<?xml version="1.0" encoding="UTF-8" standalone="no"?>
<!DOCTYPE svg PUBLIC "-//W3C//DTD SVG 1.1//EN" "http://www.w3.org/Graphics/SVG/1.1/DTD/svg11.dtd">
<svg width="100%" height="100%" viewBox="0 0 72 72" version="1.1" xmlns="http://www.w3.org/2000/svg" xmlns:xlink="http://www.w3.org/1999/xlink" xml:space="preserve" xmlns:serif="http://www.serif.com/" style="fill-rule:evenodd;clip-rule:evenodd;stroke-linejoin:round;stroke-miterlimit:2;">
    <g transform="matrix(1,0,0,1,-4057.57,-16416.2)">
        <g transform="matrix(0.525857,0,0,1,3879.34,-198.616)">
            <g transform="matrix(1.54635,0,0,0.813159,329.878,16610)">
                <g>
                    <path d="M50,7.785C26.723,7.785 7.785,26.723 7.785,50C7.785,73.277 26.723,92.215 49.996,92.215C73.273,92.215 92.207,73.277 92.207,50C92.207,26.723 73.269,7.789 49.996,7.785L50,7.785ZM50,94.14C38.207,94.14 27.125,89.55 18.789,81.21C10.453,72.874 5.859,61.788 5.859,49.999C5.859,38.21 10.449,27.124 18.789,18.788C27.125,10.452 38.211,5.858 50,5.858C61.789,5.858 72.875,10.448 81.211,18.788C89.547,27.124 94.141,38.21 94.141,49.999C94.141,61.788 89.551,72.874 81.211,81.21C72.875,89.546 61.789,94.14 50,94.14Z" style="fill:white;"/>
                    <path d="M50,14.91C30.652,14.91 14.91,30.652 14.91,50C14.91,69.348 30.652,85.09 50,85.09C69.348,85.09 85.09,69.348 85.09,50C85.09,30.652 69.348,14.91 50,14.91ZM50,87.019C29.586,87.019 12.98,70.414 12.98,50.003C12.98,29.592 29.585,12.987 50,12.987C70.41,12.987 87.016,29.592 87.016,50.003C87.016,70.414 70.411,87.019 50,87.019Z" style="fill:white;"/>
                    <path d="M84.129,61.363C82.93,61.363 81.758,60.918 80.856,60.109C79.832,59.187 79.246,57.867 79.246,56.488C79.246,53.797 81.434,51.609 84.125,51.609C84.906,51.609 85.684,51.801 86.375,52.156C86.848,52.402 87.031,52.984 86.785,53.457C86.539,53.929 85.957,54.113 85.484,53.867C85.063,53.648 84.606,53.535 84.125,53.535C82.496,53.535 81.172,54.859 81.172,56.484C81.172,57.332 81.516,58.109 82.145,58.676C82.766,59.234 83.602,59.508 84.434,59.422C84.965,59.367 85.438,59.75 85.492,60.281C85.551,60.812 85.164,61.285 84.637,61.34C84.469,61.359 84.297,61.367 84.129,61.367L84.129,61.363Z" style="fill:white;"/>
                    <path d="M30.625,81.371C30.352,81.371 30.078,81.254 29.887,81.027C29.547,80.621 29.598,80.012 30.004,79.668C30.672,79.105 31.055,78.281 31.055,77.41C31.055,75.781 29.731,74.457 28.102,74.457C26.996,74.457 25.992,75.066 25.481,76.051C25.234,76.523 24.652,76.707 24.18,76.461C23.707,76.215 23.523,75.633 23.77,75.16C24.613,73.535 26.27,72.527 28.102,72.527C30.793,72.527 32.98,74.715 32.98,77.406C32.98,78.848 32.348,80.207 31.242,81.141C31.062,81.293 30.84,81.367 30.621,81.367L30.625,81.371Z" style="fill:white;"/>
                    <path d="M50,87.02C49.469,87.02 49.035,86.59 49.035,86.055L49.035,13.95C49.035,13.419 49.465,12.985 50,12.985C50.531,12.985 50.965,13.415 50.965,13.95L50.965,86.055C50.965,86.586 50.531,87.02 50,87.02Z" style="fill:white;"/>
                    <path d="M18.773,68.992C18.441,68.992 18.117,68.82 17.937,68.512C17.671,68.051 17.828,67.461 18.293,67.195L80.75,31.136C81.21,30.871 81.8,31.027 82.066,31.488C82.332,31.949 82.175,32.538 81.714,32.804L19.257,68.863C19.105,68.949 18.937,68.992 18.773,68.992Z" style="fill:white;"/>
                    <path d="M81.23,68.992C81.066,68.992 80.902,68.949 80.75,68.863L18.293,32.804C17.832,32.538 17.671,31.949 17.937,31.488C18.207,31.027 18.793,30.871 19.253,31.136L81.71,67.195C82.171,67.461 82.328,68.051 82.062,68.512C81.882,68.82 81.558,68.992 81.226,68.992L81.23,68.992Z" style="fill:white;"/>
                    <path d="M23.266,54.492C22.028,54.492 21.024,55.496 21.024,56.73C21.024,57.965 22.028,58.969 23.266,58.969C24.5,58.969 25.504,57.965 25.504,56.73C25.504,55.496 24.5,54.492 23.266,54.492ZM23.266,60.898C20.965,60.898 19.098,59.031 19.098,56.73C19.098,54.433 20.969,52.562 23.266,52.562C25.563,52.562 27.434,54.433 27.434,56.73C27.434,59.027 25.563,60.898 23.266,60.898Z" style="fill:white;"/>
                    <path d="M22.516,41.219C21.282,41.219 20.278,42.223 20.278,43.457C20.278,44.692 21.282,45.696 22.516,45.696C23.75,45.696 24.758,44.692 24.758,43.457C24.758,42.223 23.754,41.219 22.52,41.219L22.516,41.219ZM22.516,47.625C20.219,47.625 18.348,45.758 18.348,43.457C18.348,41.16 20.219,39.289 22.516,39.289C24.817,39.289 26.684,41.16 26.684,43.457C26.684,45.754 24.813,47.625 22.516,47.625Z" style="fill:white;"/>
                    <path d="M35.047,54.957C35.004,54.957 34.965,54.953 34.922,54.949C34.395,54.883 34.02,54.398 34.09,53.871C34.492,50.754 35.645,49.766 39.238,49.473C39.774,49.43 40.231,49.824 40.277,50.355C40.32,50.887 39.926,51.352 39.395,51.395C36.434,51.637 36.262,52.117 36,54.117C35.938,54.602 35.524,54.957 35.047,54.957L35.047,54.957Z" style="fill:white;"/>
                    <path d="M33.613,48.02C33.187,48.02 32.797,47.735 32.683,47.305L32.054,44.954C31.918,44.438 32.222,43.911 32.734,43.774C33.25,43.637 33.777,43.942 33.914,44.454L34.543,46.805C34.683,47.321 34.375,47.848 33.863,47.985C33.781,48.008 33.695,48.016 33.613,48.016L33.613,48.02Z" style="fill:white;"/>
                    <path d="M27.812,51.617C27.566,51.617 27.316,51.523 27.132,51.336C26.753,50.961 26.753,50.347 27.132,49.972L28.855,48.25C29.234,47.875 29.843,47.875 30.218,48.25C30.593,48.625 30.593,49.238 30.218,49.613L28.5,51.336C28.312,51.523 28.062,51.617 27.816,51.617L27.812,51.617Z" style="fill:white;"/>
                    <path d="M42.766,20.93C41.532,20.93 40.524,21.934 40.524,23.168C40.524,24.403 41.528,25.407 42.766,25.407C44,25.407 45.004,24.403 45.004,23.168C45.004,21.934 44,20.93 42.766,20.93ZM42.766,27.336C40.469,27.336 38.598,25.469 38.598,23.168C38.598,20.871 40.469,19 42.766,19C45.063,19 46.93,20.871 46.93,23.168C46.93,25.465 45.063,27.336 42.766,27.336Z" style="fill:white;"/>
                    <path d="M33.441,28.336C32.207,28.336 31.203,29.34 31.203,30.574C31.203,31.809 32.207,32.813 33.441,32.813C34.675,32.813 35.683,31.809 35.683,30.574C35.683,29.34 34.675,28.336 33.441,28.336ZM33.441,34.742C31.144,34.742 29.273,32.871 29.273,30.574C29.273,28.277 31.144,26.406 33.441,26.406C35.742,26.406 37.609,28.277 37.609,30.574C37.609,32.871 35.742,34.742 33.441,34.742Z" style="fill:white;"/>
                    <path d="M42.812,40.461C42.773,40.461 42.73,40.457 42.687,40.453C42.16,40.387 41.789,39.902 41.855,39.375C42.257,36.258 43.41,35.27 47.003,34.977C47.539,34.934 47.999,35.328 48.042,35.859C48.085,36.391 47.691,36.856 47.16,36.899C44.199,37.141 44.023,37.621 43.765,39.621C43.703,40.106 43.289,40.461 42.808,40.461L42.812,40.461Z" style="fill:white;"/>
                    <path d="M43.613,32.258C43.367,32.258 43.117,32.164 42.933,31.977C42.554,31.602 42.554,30.988 42.933,30.613L44.656,28.891C45.035,28.516 45.64,28.516 46.019,28.891C46.394,29.266 46.394,29.879 46.019,30.254L44.297,31.977C44.109,32.164 43.863,32.258 43.617,32.258L43.613,32.258Z" style="fill:white;"/>
                    <path d="M39.125,39.441C38.699,39.441 38.309,39.156 38.195,38.726L37.566,36.375C37.43,35.859 37.734,35.332 38.246,35.195C38.762,35.058 39.289,35.363 39.426,35.875L40.055,38.226C40.195,38.742 39.887,39.269 39.375,39.406C39.293,39.429 39.207,39.437 39.125,39.437L39.125,39.441Z" style="fill:white;"/>
                    <path d="M42.055,72.895C40.821,72.895 39.817,73.899 39.817,75.133C39.817,76.368 40.821,77.372 42.055,77.372C43.289,77.372 44.297,76.368 44.297,75.133C44.297,73.899 43.289,72.895 42.055,72.895ZM42.055,79.301C39.758,79.301 37.887,77.434 37.887,75.133C37.887,72.836 39.758,70.965 42.055,70.965C44.356,70.965 46.223,72.836 46.223,75.133C46.223,77.43 44.352,79.301 42.055,79.301Z" style="fill:white;"/>
                    <path d="M36.859,63.57C35.625,63.57 34.621,64.574 34.621,65.808C34.621,67.043 35.625,68.047 36.859,68.047C38.093,68.047 39.101,67.043 39.101,65.808C39.101,64.574 38.093,63.57 36.859,63.57ZM36.859,69.976C34.562,69.976 32.691,68.105 32.691,65.808C32.691,63.511 34.562,61.64 36.855,61.64C39.156,61.64 41.023,63.507 41.023,65.808C41.023,68.105 39.152,69.976 36.855,69.976L36.859,69.976Z" style="fill:white;"/>
                    <path d="M55.961,68.852C55.789,68.852 55.617,68.805 55.461,68.711C55.004,68.434 54.859,67.84 55.137,67.387C56.184,65.664 56.207,64.043 55.211,62.434C54.934,61.981 55.07,61.387 55.523,61.106C55.977,60.825 56.57,60.965 56.848,61.418C58.246,63.672 58.223,66.016 56.781,68.387C56.602,68.684 56.285,68.852 55.957,68.852L55.961,68.852Z" style="fill:white;"/>
                    <path d="M27.383,70.27C27.137,70.27 26.891,70.176 26.703,69.989C26.324,69.614 26.324,69 26.703,68.625L28.426,66.903C28.805,66.528 29.414,66.528 29.789,66.903C30.168,67.278 30.168,67.891 29.789,68.266L28.071,69.989C27.883,70.176 27.633,70.27 27.387,70.27L27.383,70.27Z" style="fill:white;"/>
                    <path d="M58.496,75.172C57.262,75.172 56.258,76.176 56.258,77.41C56.258,78.645 57.262,79.649 58.496,79.649C59.73,79.649 60.738,78.645 60.738,77.41C60.738,76.176 59.734,75.172 58.496,75.172ZM58.496,81.578C56.199,81.578 54.328,79.707 54.328,77.41C54.328,75.113 56.195,73.242 58.496,73.242C60.797,73.242 62.66,75.113 62.66,77.41C62.66,79.707 60.793,81.578 58.496,81.578Z" style="fill:white;"/>
                    <path d="M63.906,63.5C62.672,63.5 61.664,64.504 61.664,65.738C61.664,66.973 62.672,67.977 63.906,67.977C65.14,67.977 66.144,66.973 66.144,65.738C66.144,64.504 65.14,63.5 63.906,63.5ZM63.906,69.906C61.609,69.906 59.738,68.035 59.738,65.738C59.738,63.441 61.609,61.57 63.906,61.57C66.203,61.57 68.07,63.441 68.07,65.738C68.07,68.035 66.203,69.906 63.906,69.906Z" style="fill:white;"/>
                    <path d="M65.578,75.215C65.332,75.215 65.082,75.121 64.898,74.934C64.519,74.559 64.519,73.945 64.898,73.57L66.621,71.848C67,71.473 67.609,71.473 67.984,71.848C68.359,72.223 68.359,72.836 67.984,73.211L66.266,74.934C66.078,75.121 65.828,75.215 65.582,75.215L65.578,75.215Z" style="fill:white;"/>
                    <path d="M72.301,72.48C71.77,72.48 71.336,72.05 71.336,71.515L71.336,69.082C71.336,68.55 71.77,68.117 72.301,68.117C72.832,68.117 73.266,68.55 73.266,69.082L73.266,71.515C73.266,72.046 72.832,72.48 72.301,72.48Z" style="fill:white;"/>
                    <path d="M59.492,20.934C58.258,20.934 57.254,21.938 57.254,23.172C57.254,24.407 58.258,25.411 59.492,25.411C60.726,25.411 61.734,24.407 61.734,23.172C61.734,21.938 60.73,20.934 59.496,20.934L59.492,20.934ZM59.492,27.34C57.195,27.34 55.324,25.469 55.324,23.172C55.324,20.875 57.195,19.004 59.492,19.004C61.793,19.004 63.66,20.875 63.66,23.172C63.66,25.469 61.789,27.34 59.492,27.34Z" style="fill:white;"/>
                    <path d="M60,34.285C58.766,34.285 57.758,35.289 57.758,36.523C57.758,37.758 58.766,38.762 60,38.762C61.234,38.762 62.238,37.758 62.238,36.523C62.238,35.289 61.234,34.285 60,34.285ZM60,40.691C57.699,40.691 55.832,38.82 55.832,36.523C55.832,34.226 57.703,32.355 60,32.355C62.297,32.355 64.164,34.226 64.164,36.523C64.164,38.82 62.297,40.691 60,40.691Z" style="fill:white;"/>
                    <path d="M68.828,33.48C68.539,33.48 68.254,33.351 68.066,33.105C66.144,30.617 66.265,29.101 68.598,26.355C68.941,25.949 69.551,25.902 69.953,26.246C70.359,26.589 70.41,27.199 70.062,27.605C68.141,29.871 68.355,30.332 69.59,31.929C69.914,32.351 69.836,32.957 69.414,33.281C69.238,33.418 69.031,33.48 68.828,33.48L68.828,33.48Z" style="fill:white;"/>
                    <path d="M55.254,31.574C54.828,31.574 54.438,31.289 54.324,30.859L53.695,28.508C53.555,27.992 53.859,27.465 54.375,27.328C54.891,27.191 55.418,27.496 55.555,28.011L56.184,30.363C56.32,30.879 56.016,31.406 55.5,31.543C55.418,31.566 55.332,31.574 55.25,31.574L55.254,31.574Z" style="fill:white;"/>
                    <path d="M78.57,41.859C77.336,41.859 76.332,42.863 76.332,44.097C76.332,45.332 77.336,46.336 78.57,46.336C79.804,46.336 80.812,45.332 80.812,44.097C80.812,42.863 79.804,41.859 78.57,41.859ZM78.57,48.265C76.273,48.265 74.402,46.394 74.402,44.097C74.402,41.8 76.273,39.929 78.57,39.929C80.871,39.929 82.738,41.8 82.738,44.097C82.738,46.394 80.867,48.265 78.57,48.265Z" style="fill:white;"/>
                    <path d="M64.93,53.156C64.496,53.156 64.102,52.859 63.993,52.422C63.618,50.879 62.766,50.004 61.321,49.664C60.805,49.543 60.481,49.023 60.602,48.504C60.723,47.984 61.242,47.664 61.762,47.785C63.903,48.289 65.321,49.734 65.868,51.965C65.993,52.48 65.676,53.004 65.161,53.129C65.082,53.148 65.004,53.156 64.93,53.156L64.93,53.156Z" style="fill:white;"/>
                    <path d="M72.66,52.539C71.426,52.539 70.422,53.543 70.422,54.777C70.422,56.012 71.426,57.016 72.66,57.016C73.894,57.016 74.902,56.012 74.902,54.777C74.902,53.543 73.898,52.539 72.66,52.539ZM72.66,58.945C70.363,58.945 68.492,57.074 68.492,54.777C68.492,52.48 70.363,50.609 72.66,50.609C74.961,50.609 76.828,52.48 76.828,54.777C76.828,57.074 74.961,58.945 72.66,58.945Z" style="fill:white;"/>
                    <path d="M68.875,48.637C68.629,48.637 68.383,48.543 68.191,48.356C67.816,47.981 67.816,47.367 68.191,46.992L69.914,45.27C70.289,44.895 70.898,44.895 71.277,45.27C71.652,45.645 71.652,46.258 71.277,46.633L69.555,48.356C69.367,48.543 69.121,48.637 68.875,48.637L68.875,48.637Z" style="fill:white;"/>
                    <path d="M46.316,65.254C45.882,65.254 45.488,64.957 45.379,64.52C44.902,62.559 43.773,61.399 41.929,60.965C41.414,60.844 41.089,60.324 41.214,59.805C41.336,59.285 41.855,58.965 42.375,59.086C44.957,59.691 46.597,61.367 47.254,64.059C47.382,64.574 47.062,65.098 46.547,65.223C46.468,65.242 46.39,65.25 46.316,65.25L46.316,65.254Z" style="fill:white;"/>
                </g>
            </g>
        </g>
    </g>
</svg>
