<?xml version="1.0" encoding="UTF-8" standalone="no"?>
<!DOCTYPE svg PUBLIC "-//W3C//DTD SVG 1.1//EN" "http://www.w3.org/Graphics/SVG/1.1/DTD/svg11.dtd">
<svg width="100%" height="100%" viewBox="0 0 907 908" version="1.1" xmlns="http://www.w3.org/2000/svg" xmlns:xlink="http://www.w3.org/1999/xlink" xml:space="preserve" xmlns:serif="http://www.serif.com/" style="fill-rule:evenodd;clip-rule:evenodd;stroke-linejoin:round;stroke-miterlimit:2;">
    <g transform="matrix(1,0,0,1,-23598.1,-11307.6)">
        <g id="surface1" transform="matrix(1,0,0,1,23594.2,11307)">
            <path d="M457.34,0.582C206.91,0.582 3.871,203.773 3.871,454.434C3.871,705.074 206.91,908.262 457.34,908.262C707.762,908.262 910.785,705.074 910.785,454.434C910.785,203.773 707.762,0.582 457.34,0.582" style="fill:rgb(0,165,79);"/>
            <path d="M457.34,50.898C234.68,50.898 54.148,231.563 54.148,454.43C54.148,677.281 234.68,857.941 457.34,857.941C679.996,857.941 860.512,677.281 860.512,454.43C860.512,231.563 679.996,50.898 457.34,50.898" style="fill:rgb(0,165,79);"/>
            <path d="M457.434,61.754L457.297,61.754L457.297,61.711C349.012,61.719 250.926,105.688 179.902,176.773C108.91,247.832 64.973,345.977 64.953,454.34L65,454.34L65,454.477L64.953,454.477C64.965,562.859 108.91,661.027 179.926,732.102C250.934,803.156 348.992,847.109 457.25,847.129L457.25,847.086L457.387,847.086L457.387,847.129C565.672,847.121 663.762,803.141 734.77,732.07C805.758,661.016 849.684,562.871 849.699,454.523L849.664,454.523L849.664,454.391L849.699,454.391C849.699,345.992 805.746,247.813 734.734,176.742C663.734,105.688 565.684,61.734 457.434,61.711L457.434,61.754ZM457.297,40.082L457.297,40.047L457.434,40.047L457.434,40.082C571.73,40.109 675.195,86.461 750.066,161.398C824.957,236.344 871.297,339.945 871.313,454.391L871.355,454.391L871.355,454.523L871.313,454.523C871.281,568.922 824.965,672.484 750.102,747.418C675.219,822.367 571.715,868.742 457.387,868.754L457.387,868.797L457.25,868.797L457.25,868.754C342.945,868.73 239.473,822.379 164.59,747.449C89.699,672.5 43.359,568.91 43.348,454.477L43.305,454.477L43.305,454.34L43.348,454.34C43.375,339.926 89.699,236.363 164.57,161.426C239.461,86.461 342.969,40.098 457.297,40.082" style="fill:rgb(254,254,254);fill-rule:nonzero;"/>
            <path d="M338.223,662.082L346.363,637.004L346.762,637.004L355.027,662.082L338.223,662.082ZM383.113,677.711C378.125,664.305 372.457,648.813 366.816,633.207L357.898,608.395L348.859,610.211L322.613,678.098C318.309,689.129 316.32,689.637 309.621,690.57L309.633,695.695L340.191,695.695L340.191,690.57L336.414,690.176C330.367,689.508 330.367,688.207 332.063,682.574L336.016,669.969L357.523,669.969L362.254,683.355C363.941,688.074 363.668,689.402 358.836,690.047L354.879,690.57L354.879,695.695L396.078,695.695L396.078,690.57C389.656,689.805 387.289,689.129 383.113,677.711ZM570.785,662.082L578.945,637.004L579.313,637.004L587.605,662.082L570.785,662.082ZM615.664,677.711C610.676,664.305 605.035,648.813 599.398,633.207L590.48,608.395L581.414,610.211L555.168,678.098C550.84,689.129 548.918,689.637 542.219,690.57L542.219,695.695L572.789,695.695L572.789,690.57L568.973,690.176C562.93,689.508 562.93,688.207 564.637,682.574L568.566,669.969L590.074,669.969L594.813,683.355C596.492,688.074 596.223,689.402 591.387,690.047L587.457,690.57L587.457,695.695L628.656,695.695L628.656,690.57C622.215,689.805 619.887,689.129 615.664,677.711ZM726.27,685.063C723.504,688.465 717.863,688.852 713.684,688.852C709.598,688.852 706.582,688.746 704.469,687.691C702.105,686.508 701.844,683.223 701.844,676.387L701.844,631.352C701.844,617.176 702.906,616.273 712.371,615.484L712.371,610.344L669.711,610.344L669.711,615.484C678.527,616.273 679.582,617.176 679.582,631.352L679.582,674.672C679.582,688.852 678.527,689.805 668.547,690.57L668.547,695.695L733.629,695.695C734.789,691.613 737.555,677.961 738.316,672.98L732.676,672.063C730.563,679.02 728.34,682.574 726.27,685.063ZM493.664,685.063C490.918,688.465 485.297,688.852 481.09,688.852C477.016,688.852 473.992,688.746 471.906,687.691C469.535,686.508 469.262,683.223 469.262,676.387L469.262,631.352C469.262,617.176 470.316,616.273 479.762,615.484L479.762,610.344L437.156,610.344L437.156,615.484C445.922,616.273 446.98,617.176 446.98,631.352L446.98,674.672C446.98,688.852 445.922,689.805 435.977,690.57L435.977,695.695L501.02,695.695C502.184,691.613 504.945,677.961 505.75,672.98L500.113,672.063C497.996,679.02 495.777,682.574 493.664,685.063ZM227.117,615.484C235.398,616.273 236.434,617.176 236.434,631.352L236.434,646.582L209.281,646.582L209.281,631.352C209.281,617.176 210.336,616.273 218.344,615.484L218.344,610.344L176.363,610.344L176.363,615.484C185.91,616.273 186.969,617.176 186.969,631.352L186.969,674.672C186.969,688.852 185.91,689.805 176.867,690.57L176.867,695.695L218.855,695.695L218.855,690.57C210.336,689.805 209.281,688.852 209.281,674.672L209.281,654.723L236.434,654.723L236.434,674.672C236.434,688.852 235.398,689.805 226.055,690.57L226.055,695.695L268.82,695.695L268.82,690.57C259.781,689.805 258.727,688.852 258.727,674.672L258.727,631.352C258.727,617.176 259.781,616.273 269.098,615.484L269.098,610.344L227.117,610.344L227.117,615.484" style="fill:rgb(254,254,254);"/>
            <path d="M389.832,395.363C416.297,413.828 430.758,471.672 430.758,471.672C445.195,342.223 327.266,305.234 327.266,305.234C327.266,305.234 324.824,312.145 327.266,346.773C329.641,381.555 363.281,376.867 389.832,395.363" style="fill:rgb(254,254,254);"/>
            <path d="M317.598,506.313C327.266,483.23 310.367,358.332 310.367,325.953C310.367,293.672 322.379,275.156 322.379,275.156C305.578,265.879 293.59,224.262 293.59,224.262C288.699,235.824 271.898,261.234 271.898,261.234C271.898,261.234 320.035,490.18 288.699,517.797C257.445,545.508 194.82,550.23 158.742,527.176C122.586,504.008 161.094,429.996 161.094,429.996C139.41,455.414 122.586,485.484 125.008,517.797C127.402,550.23 151.477,582.496 209.266,584.855C267.012,587.188 307.93,529.414 317.598,506.313" style="fill:rgb(254,254,254);"/>
            <path d="M625.77,420.766C586.578,425.215 565.039,491.02 563.297,496.531C564.215,494.074 569.527,483.457 596.879,469.324C628.191,453.074 690.742,487.84 690.742,487.84C661.906,513.258 608.871,515.566 565.566,510.902C522.246,506.219 524.625,413.828 522.246,342.223C519.789,270.566 505.367,277.508 505.367,277.508C505.367,277.508 507.781,245.07 476.531,393.027C445.195,540.902 276.68,577.867 276.68,577.867C370.609,591.797 437.984,547.871 461.988,501.668C486.109,455.414 502.887,358.332 502.887,358.332C502.887,497.066 514.98,531.691 551.117,547.871C587.234,564.125 657.055,540.992 707.625,522.465C739.805,510.711 777.449,515.566 777.449,515.566L806.297,471.672C806.297,471.672 765.332,473.918 736.516,462.438C707.625,450.859 666.719,416.184 625.77,420.766" style="fill:rgb(254,254,254);"/>
        </g>
    </g>
</svg>
