
<svg width="100%" height="100%" viewBox="0 0 205 372" version="1.1" xmlns="http://www.w3.org/2000/svg" xmlns:xlink="http://www.w3.org/1999/xlink" xml:space="preserve" xmlns:serif="http://www.serif.com/" style="fill-rule:evenodd;clip-rule:evenodd;stroke-linejoin:round;stroke-miterlimit:2;">
    <g transform="matrix(1,0,0,1,-10267.7,-13263.7)">
        <g>
            <g>
                <g transform="matrix(0.627015,0,0,0.627015,10246.7,13386.8)">
                    <path d="M34.342,70.649L59.55,70.649C61.855,70.649 63.786,70.921 65.343,71.467C66.901,72.012 68.151,72.771 69.093,73.744C70.035,74.718 70.705,75.898 71.102,77.284C71.499,78.67 71.698,80.196 71.698,81.863C71.698,83.545 71.499,85.032 71.102,86.325C70.705,87.618 70.035,88.72 69.093,89.631C68.151,90.542 66.901,91.227 65.343,91.687C63.786,92.146 61.855,92.376 59.55,92.376L51.957,92.376L51.957,93.777C51.957,94.603 52.163,95.245 52.576,95.705C52.989,96.164 53.74,96.394 54.83,96.394L57.213,96.394L57.213,105.061L34.342,105.061L34.342,96.394C35.712,96.394 36.694,96.211 37.286,95.845C37.877,95.479 38.173,94.79 38.173,93.777L38.173,81.956C38.173,80.928 37.877,80.231 37.286,79.865C36.694,79.499 35.712,79.316 34.342,79.316L34.342,-195.624M51.957,86.839L54.48,86.839C55.788,86.839 56.692,86.496 57.19,85.811C57.688,85.126 57.938,84.222 57.938,83.101C57.938,82.042 57.688,81.146 57.19,80.414C56.692,79.682 55.788,79.316 54.48,79.316L51.957,79.316L51.957,86.839Z" style="fill:none;fill-rule:nonzero;stroke:rgb(255,23,48);stroke-width:1.59px;"/>
                </g>
                <g transform="matrix(0.627015,0,0,0.627015,10246.7,13386.8)">
                    <path d="M90.411,79.316L90.411,93.871C90.411,94.914 90.668,95.596 91.182,95.915C91.696,96.234 92.35,96.394 93.144,96.394L93.775,96.394L93.775,105.061L74.104,105.061L74.104,96.394L75.015,96.394C75.841,96.394 76.452,96.133 76.849,95.611C77.246,95.09 77.445,94.525 77.445,93.918L77.445,90.624C77.445,89.72 77.161,89.054 76.592,88.626C76.024,88.198 75.366,87.984 74.618,87.984L74.104,87.984L74.104,79.316L90.411,79.316ZM77.071,73.569C77.071,72.23 77.581,71.085 78.601,70.135C79.622,69.185 81.074,68.71 82.959,68.71C84.874,68.71 86.35,69.185 87.386,70.135C88.421,71.085 88.939,72.23 88.939,73.569C88.939,74.94 88.421,76.096 87.386,77.038C86.35,77.981 84.874,78.452 82.959,78.452C81.074,78.452 79.622,77.981 78.601,77.038C77.581,76.096 77.071,74.94 77.071,73.569Z" style="fill:none;fill-rule:nonzero;stroke:rgb(255,23,48);stroke-width:1.59px;"/>
                </g>
                <g transform="matrix(0.627015,0,0,0.627015,10246.7,13386.8)">
                    <path d="M114.825,98.356C115.743,98.356 116.355,98.181 116.658,97.831C116.962,97.48 117.114,96.924 117.114,96.16L117.114,94.829L123.819,94.829L123.819,105.061L95.434,105.061L95.434,98.356L107.886,86.021L104.662,86.021C103.743,86.021 103.132,86.181 102.828,86.5C102.524,86.819 102.373,87.423 102.373,88.311L102.373,89.502L95.668,89.502L95.668,79.316L123.679,79.316L123.679,86.021L111.32,98.356L114.825,98.356Z" style="fill:none;fill-rule:nonzero;stroke:rgb(255,23,48);stroke-width:1.59px;"/>
                </g>
                <g transform="matrix(0.627015,0,0,0.627015,10246.7,13386.8)">
                    <path d="M145.593,98.356C146.511,98.356 147.123,98.181 147.426,97.831C147.73,97.48 147.882,96.924 147.882,96.16L147.882,94.829L154.587,94.829L154.587,105.061L126.202,105.061L126.202,98.356L138.654,86.021L135.43,86.021C134.511,86.021 133.9,86.181 133.596,86.5C133.292,86.819 133.14,87.423 133.14,88.311L133.14,89.502L126.436,89.502L126.436,79.316L154.447,79.316L154.447,86.021L142.088,98.356L145.593,98.356Z" style="fill:none;fill-rule:nonzero;stroke:rgb(255,23,48);stroke-width:1.59px;"/>
                </g>
                <g transform="matrix(0.627015,0,0,0.627015,10246.7,13386.8)">
                    <path d="M169.212,82.564C168.417,82.564 167.736,82.622 167.167,82.739C166.599,82.856 166.112,82.992 165.707,83.148C165.302,83.303 164.968,83.479 164.703,83.673C164.438,83.868 164.204,84.043 164.002,84.199L164.236,84.433C164.531,84.277 164.855,84.121 165.205,83.965C165.555,83.81 166.003,83.732 166.548,83.732C167.467,83.732 168.262,84.032 168.931,84.631C169.601,85.231 169.936,86.185 169.936,87.493C169.936,88.739 169.426,89.74 168.406,90.495C167.386,91.25 166.019,91.628 164.306,91.628C162.67,91.628 161.366,91.157 160.392,90.215C159.419,89.272 158.932,87.937 158.932,86.208C158.932,85.258 159.197,84.312 159.727,83.37C160.256,82.427 161.078,81.582 162.191,80.835C163.305,80.087 164.722,79.472 166.443,78.989C168.164,78.506 170.24,78.265 172.669,78.265C175.566,78.265 177.934,78.538 179.771,79.083C181.609,79.628 183.038,80.329 184.058,81.185C185.078,82.042 185.779,83.015 186.161,84.106C186.543,85.196 186.733,86.294 186.733,87.4L186.733,96.534C186.733,97.951 186.78,98.913 186.873,99.419C186.967,99.926 187.317,100.179 187.925,100.179C188.408,100.179 188.746,99.949 188.941,99.489C189.136,99.03 189.233,98.24 189.233,97.118L189.233,94.198L191.896,94.198L191.896,97.165C191.896,98.567 191.78,99.809 191.546,100.891C191.312,101.974 190.868,102.9 190.214,103.671C189.56,104.442 188.672,105.026 187.551,105.423C186.43,105.821 184.997,106.019 183.252,106.019C181.679,106.019 180.375,105.852 179.339,105.517C178.303,105.182 177.482,104.765 176.874,104.267C176.267,103.769 175.835,103.251 175.578,102.713C175.321,102.176 175.192,101.697 175.192,101.277L174.819,101.277C174.725,101.915 174.456,102.523 174.013,103.099C173.569,103.675 172.954,104.185 172.167,104.629C171.38,105.073 170.438,105.431 169.34,105.704C168.242,105.976 166.992,106.113 165.591,106.113C164.251,106.113 163.032,105.984 161.934,105.727C160.836,105.47 159.902,105.065 159.131,104.512C158.36,103.959 157.76,103.243 157.332,102.363C156.904,101.483 156.69,100.436 156.69,99.221C156.69,97.726 157.11,96.546 157.951,95.681C158.792,94.817 159.851,94.132 161.128,93.626C162.405,93.119 163.796,92.707 165.299,92.387C166.801,92.068 168.192,91.683 169.469,91.231C170.746,90.779 171.805,90.195 172.646,89.479C173.487,88.762 173.907,87.75 173.907,86.442C173.907,85.274 173.541,84.335 172.809,83.627C172.077,82.918 170.878,82.564 169.212,82.564ZM173.907,92.679C173.565,93.178 173.137,93.579 172.623,93.883C172.109,94.186 171.614,94.482 171.139,94.77C170.664,95.058 170.251,95.401 169.901,95.798C169.55,96.195 169.375,96.729 169.375,97.399C169.375,97.913 169.515,98.376 169.796,98.789C170.076,99.201 170.621,99.408 171.431,99.408C172.163,99.408 172.759,99.123 173.218,98.555C173.678,97.987 173.907,97.188 173.907,96.16L173.907,92.679Z" style="fill:none;fill-rule:nonzero;stroke:rgb(255,23,48);stroke-width:1.59px;"/>
                </g>
            </g>
            <g>
                <g transform="matrix(0.627015,0,0,0.627015,10246.7,13386.8)">
                    <path d="M206.825,395.191L206.825,96.394C208.195,96.394 209.177,96.211 209.768,95.845C210.36,95.479 210.656,94.79 210.656,93.777L210.656,81.956C210.656,80.928 210.36,80.231 209.768,79.865C209.177,79.499 208.195,79.316 206.825,79.316L206.825,70.649L225.187,70.649L236.869,88.941L236.869,81.956C236.869,80.928 236.654,80.231 236.226,79.865C235.798,79.499 234.898,79.316 233.528,79.316L233.528,70.649L248.643,70.649L248.643,79.316C247.272,79.316 246.373,79.542 245.945,79.994C245.516,80.445 245.302,81.1 245.302,81.956L245.302,105.061L231.262,105.061L219.067,85.974L219.067,94.058C219.067,95.07 219.362,95.713 219.954,95.985C220.546,96.258 221.527,96.394 222.898,96.394L222.898,105.061L206.825,105.061" style="fill:none;fill-rule:nonzero;stroke:rgb(255,136,0);stroke-width:1.59px;"/>
                </g>
                <g transform="matrix(0.627015,0,0,0.627015,10246.7,13386.8)">
                    <path d="M262.544,82.564C261.749,82.564 261.068,82.622 260.499,82.739C259.931,82.856 259.444,82.992 259.039,83.148C258.634,83.303 258.299,83.479 258.035,83.673C257.77,83.868 257.536,84.043 257.334,84.199L257.567,84.433C257.863,84.277 258.186,84.121 258.537,83.965C258.887,83.81 259.335,83.732 259.88,83.732C260.799,83.732 261.593,84.032 262.263,84.631C262.933,85.231 263.268,86.185 263.268,87.493C263.268,88.739 262.758,89.74 261.738,90.495C260.717,91.25 259.351,91.628 257.637,91.628C256.002,91.628 254.698,91.157 253.724,90.215C252.751,89.272 252.264,87.937 252.264,86.208C252.264,85.258 252.529,84.312 253.058,83.37C253.588,82.427 254.41,81.582 255.523,80.835C256.637,80.087 258.054,79.472 259.775,78.989C261.496,78.506 263.571,78.265 266.001,78.265C268.898,78.265 271.265,78.538 273.103,79.083C274.941,79.628 276.37,80.329 277.39,81.185C278.41,82.042 279.111,83.015 279.493,84.106C279.874,85.196 280.065,86.294 280.065,87.4L280.065,96.534C280.065,97.951 280.112,98.913 280.205,99.419C280.299,99.926 280.649,100.179 281.257,100.179C281.739,100.179 282.078,99.949 282.273,99.489C282.468,99.03 282.565,98.24 282.565,97.118L282.565,94.198L285.228,94.198L285.228,97.165C285.228,98.567 285.111,99.809 284.878,100.891C284.644,101.974 284.2,102.9 283.546,103.671C282.892,104.442 282.004,105.026 280.883,105.423C279.761,105.821 278.329,106.019 276.584,106.019C275.011,106.019 273.707,105.852 272.671,105.517C271.635,105.182 270.814,104.765 270.206,104.267C269.599,103.769 269.167,103.251 268.91,102.713C268.653,102.176 268.524,101.697 268.524,101.277L268.15,101.277C268.057,101.915 267.788,102.523 267.344,103.099C266.901,103.675 266.285,104.185 265.499,104.629C264.712,105.073 263.77,105.431 262.672,105.704C261.574,105.976 260.324,106.113 258.922,106.113C257.583,106.113 256.364,105.984 255.266,105.727C254.168,105.47 253.234,105.065 252.463,104.512C251.692,103.959 251.092,103.243 250.664,102.363C250.236,101.483 250.021,100.436 250.021,99.221C250.021,97.726 250.442,96.546 251.283,95.681C252.124,94.817 253.183,94.132 254.46,93.626C255.737,93.119 257.127,92.707 258.63,92.387C260.133,92.068 261.523,91.683 262.801,91.231C264.078,90.779 265.137,90.195 265.978,89.479C266.819,88.762 267.239,87.75 267.239,86.442C267.239,85.274 266.873,84.335 266.141,83.627C265.409,82.918 264.21,82.564 262.544,82.564ZM267.239,92.679C266.897,93.178 266.468,93.579 265.954,93.883C265.44,94.186 264.946,94.482 264.471,94.77C263.996,95.058 263.583,95.401 263.233,95.798C262.882,96.195 262.707,96.729 262.707,97.399C262.707,97.913 262.847,98.376 263.128,98.789C263.408,99.201 263.953,99.408 264.763,99.408C265.495,99.408 266.091,99.123 266.55,98.555C267.01,97.987 267.239,97.188 267.239,96.16L267.239,92.679Z" style="fill:none;fill-rule:nonzero;stroke:rgb(255,136,0);stroke-width:1.59px;"/>
                </g>
                <g transform="matrix(0.627015,0,0,0.627015,10246.7,13386.8)">
                    <path d="M308.31,90.133C308.31,89.526 308.236,89.039 308.088,88.673C307.94,88.307 307.753,88.026 307.527,87.832C307.302,87.637 307.048,87.509 306.768,87.446C306.488,87.384 306.215,87.353 305.95,87.353C304.938,87.353 304.183,87.649 303.684,88.241C303.186,88.832 302.937,89.673 302.937,90.764L302.937,94.105C302.937,94.93 303.081,95.518 303.369,95.868C303.657,96.219 304.214,96.394 305.039,96.394L306.301,96.394L306.301,105.061L286.77,105.061L286.77,96.394L288.148,96.394C288.787,96.394 289.274,96.188 289.609,95.775C289.943,95.362 290.111,94.868 290.111,94.291L290.111,89.853C290.111,89.121 289.897,88.626 289.468,88.369C289.04,88.112 288.553,87.984 288.008,87.984L286.77,87.984L286.77,79.316L300.647,79.316L300.157,85.741L300.554,85.741C300.896,83.342 301.948,81.497 303.708,80.204C305.468,78.911 307.858,78.265 310.88,78.265C313.014,78.265 314.75,78.569 316.09,79.176C317.429,79.784 318.469,80.551 319.208,81.477C319.948,82.404 320.451,83.409 320.715,84.491C320.98,85.573 321.112,86.59 321.112,87.54L321.112,94.105C321.112,94.93 321.257,95.518 321.545,95.868C321.833,96.219 322.39,96.394 323.215,96.394L324.477,96.394L324.477,105.061L308.31,105.061L308.31,90.133Z" style="fill:none;fill-rule:nonzero;stroke:rgb(255,136,0);stroke-width:1.59px;"/>
                </g>
                <g transform="matrix(0.627015,0,0,0.627015,10246.7,13386.8)">
                    <path d="M325.902,92.142C325.902,89.853 326.299,87.843 327.093,86.115C327.888,84.386 329.021,82.941 330.492,81.781C331.964,80.621 333.736,79.745 335.807,79.153C337.879,78.561 340.192,78.265 342.746,78.265C345.3,78.265 347.613,78.561 349.684,79.153C351.756,79.745 353.524,80.621 354.988,81.781C356.452,82.941 357.585,84.386 358.387,86.115C359.189,87.843 359.59,89.853 359.59,92.142C359.59,94.4 359.189,96.402 358.387,98.146C357.585,99.891 356.452,101.351 354.988,102.527C353.524,103.702 351.756,104.586 349.684,105.178C347.613,105.77 345.3,106.066 342.746,106.066C340.192,106.066 337.879,105.77 335.807,105.178C333.736,104.586 331.964,103.702 330.492,102.527C329.021,101.351 327.888,99.891 327.093,98.146C326.299,96.402 325.902,94.4 325.902,92.142ZM339.195,92.142C339.195,93.45 339.253,94.56 339.37,95.471C339.487,96.382 339.678,97.114 339.942,97.667C340.207,98.22 340.565,98.625 341.017,98.882C341.469,99.139 342.045,99.268 342.746,99.268C343.447,99.268 344.019,99.139 344.463,98.882C344.907,98.625 345.265,98.22 345.538,97.667C345.81,97.114 346.001,96.382 346.11,95.471C346.219,94.56 346.274,93.45 346.274,92.142C346.274,89.526 346.028,87.692 345.538,86.64C345.047,85.589 344.116,85.063 342.746,85.063C342.045,85.063 341.469,85.184 341.017,85.425C340.565,85.667 340.207,86.064 339.942,86.617C339.678,87.17 339.487,87.902 339.37,88.813C339.253,89.724 339.195,90.834 339.195,92.142Z" style="fill:none;fill-rule:nonzero;stroke:rgb(255,136,0);stroke-width:1.59px;"/>
                </g>
            </g>
        </g>
    </g>
</svg>
