<?xml version="1.0" encoding="UTF-8" standalone="no"?>
<!DOCTYPE svg PUBLIC "-//W3C//DTD SVG 1.1//EN" "http://www.w3.org/Graphics/SVG/1.1/DTD/svg11.dtd">
<svg width="100%" height="100%" viewBox="0 0 1950 49" version="1.1" xmlns="http://www.w3.org/2000/svg" xmlns:xlink="http://www.w3.org/1999/xlink" xml:space="preserve" xmlns:serif="http://www.serif.com/" style="fill-rule:evenodd;clip-rule:evenodd;stroke-linejoin:round;stroke-miterlimit:2;">
    <g transform="matrix(1,0,0,1,-37405.1,-30198.4)">
        <g transform="matrix(1,0,0,1,-0.62358,-0.149198)">
            <g transform="matrix(1,0,0,1,14282.8,14730.5)">
                <g transform="matrix(0.861334,0,0,0.195032,3396.95,12545.3)">
                    <rect x="22901.7" y="14985.7" width="2263.38" height="246.407" style="fill:none;"/>
                </g>
                <g transform="matrix(2.02338,0,0,2.02338,23188.9,15514.4)">
                    <path d="M20.005,-12.732C20.005,-13.25 19.942,-13.665 19.816,-13.978C19.69,-14.29 19.53,-14.529 19.337,-14.695C19.145,-14.861 18.929,-14.971 18.69,-15.024C18.451,-15.077 18.218,-15.103 17.993,-15.103C17.129,-15.103 16.485,-14.851 16.06,-14.346C15.635,-13.841 15.422,-13.124 15.422,-12.194L15.422,-9.345C15.422,-8.641 15.545,-8.139 15.791,-7.841C16.037,-7.542 16.511,-7.392 17.215,-7.392L18.291,-7.392L18.291,0L1.634,0L1.634,-7.392L2.809,-7.392C3.354,-7.392 3.769,-7.568 4.055,-7.92C4.34,-8.272 4.483,-8.694 4.483,-9.186L4.483,-12.971C4.483,-13.596 4.301,-14.017 3.935,-14.237C3.57,-14.456 3.155,-14.565 2.69,-14.565L1.634,-14.565L1.634,-21.958L13.469,-21.958L13.051,-16.478L13.39,-16.478C13.682,-18.524 14.579,-20.098 16.08,-21.201C17.581,-22.303 19.62,-22.854 22.197,-22.854C24.017,-22.854 25.498,-22.595 26.64,-22.077C27.783,-21.559 28.669,-20.905 29.3,-20.115C29.931,-19.324 30.36,-18.467 30.585,-17.544C30.811,-16.621 30.924,-15.754 30.924,-14.944L30.924,-9.345C30.924,-8.641 31.047,-8.139 31.293,-7.841C31.538,-7.542 32.013,-7.392 32.717,-7.392L33.793,-7.392L33.793,0L20.005,0L20.005,-12.732Z" style="fill:white;fill-rule:nonzero;"/>
                    <path d="M45.649,-19.188C44.971,-19.188 44.39,-19.138 43.905,-19.039C43.421,-18.939 43.005,-18.823 42.66,-18.69C42.315,-18.557 42.029,-18.408 41.803,-18.242C41.577,-18.076 41.378,-17.926 41.206,-17.793L41.405,-17.594C41.657,-17.727 41.933,-17.86 42.232,-17.993C42.531,-18.125 42.912,-18.192 43.377,-18.192C44.161,-18.192 44.839,-17.936 45.41,-17.425C45.981,-16.913 46.267,-16.1 46.267,-14.984C46.267,-13.921 45.831,-13.068 44.961,-12.423C44.091,-11.779 42.926,-11.457 41.465,-11.457C40.07,-11.457 38.957,-11.859 38.127,-12.663C37.297,-13.466 36.882,-14.605 36.882,-16.08C36.882,-16.89 37.108,-17.697 37.559,-18.501C38.011,-19.304 38.712,-20.025 39.661,-20.663C40.611,-21.3 41.82,-21.825 43.288,-22.237C44.756,-22.648 46.526,-22.854 48.598,-22.854C51.069,-22.854 53.088,-22.622 54.655,-22.157C56.223,-21.692 57.441,-21.094 58.311,-20.364C59.181,-19.633 59.779,-18.803 60.105,-17.873C60.43,-16.943 60.593,-16.007 60.593,-15.064L60.593,-7.273C60.593,-6.064 60.633,-5.244 60.712,-4.812C60.792,-4.38 61.091,-4.164 61.609,-4.164C62.021,-4.164 62.31,-4.36 62.476,-4.752C62.642,-5.144 62.725,-5.818 62.725,-6.775L62.725,-9.265L64.996,-9.265L64.996,-6.735C64.996,-5.539 64.897,-4.48 64.697,-3.557C64.498,-2.633 64.12,-1.843 63.562,-1.186C63.004,-0.528 62.247,-0.03 61.29,0.309C60.334,0.648 59.112,0.817 57.624,0.817C56.282,0.817 55.17,0.674 54.286,0.389C53.403,0.103 52.702,-0.252 52.184,-0.677C51.666,-1.103 51.298,-1.544 51.078,-2.002C50.859,-2.461 50.75,-2.869 50.75,-3.228L50.431,-3.228C50.351,-2.683 50.122,-2.165 49.743,-1.674C49.365,-1.182 48.84,-0.747 48.169,-0.369C47.499,0.01 46.695,0.315 45.758,0.548C44.822,0.78 43.756,0.897 42.56,0.897C41.418,0.897 40.379,0.787 39.442,0.568C38.506,0.349 37.709,0.003 37.051,-0.468C36.394,-0.94 35.882,-1.551 35.517,-2.301C35.152,-3.052 34.969,-3.945 34.969,-4.981C34.969,-6.257 35.328,-7.263 36.045,-8C36.762,-8.737 37.665,-9.322 38.755,-9.753C39.844,-10.185 41.029,-10.537 42.311,-10.809C43.593,-11.082 44.779,-11.411 45.868,-11.796C46.957,-12.181 47.861,-12.679 48.578,-13.29C49.295,-13.901 49.654,-14.765 49.654,-15.88C49.654,-16.877 49.342,-17.677 48.717,-18.281C48.093,-18.886 47.07,-19.188 45.649,-19.188ZM49.654,-10.56C49.362,-10.135 48.996,-9.793 48.558,-9.534C48.12,-9.275 47.698,-9.023 47.293,-8.777C46.888,-8.531 46.536,-8.239 46.237,-7.9C45.938,-7.562 45.788,-7.107 45.788,-6.535C45.788,-6.097 45.908,-5.702 46.147,-5.35C46.386,-4.998 46.851,-4.822 47.542,-4.822C48.166,-4.822 48.674,-5.064 49.066,-5.549C49.458,-6.034 49.654,-6.715 49.654,-7.592L49.654,-10.56Z" style="fill:white;fill-rule:nonzero;"/>
                    <path d="M84.682,-12.732C84.682,-13.25 84.619,-13.665 84.493,-13.978C84.367,-14.29 84.208,-14.529 84.015,-14.695C83.822,-14.861 83.607,-14.971 83.367,-15.024C83.128,-15.077 82.896,-15.103 82.67,-15.103C81.807,-15.103 81.162,-14.851 80.737,-14.346C80.312,-13.841 80.1,-13.124 80.1,-12.194L80.1,-9.345C80.1,-8.641 80.223,-8.139 80.468,-7.841C80.714,-7.542 81.189,-7.392 81.893,-7.392L82.969,-7.392L82.969,0L66.311,0L66.311,-7.392L67.487,-7.392C68.032,-7.392 68.447,-7.568 68.732,-7.92C69.018,-8.272 69.161,-8.694 69.161,-9.186L69.161,-12.971C69.161,-13.596 68.978,-14.017 68.613,-14.237C68.247,-14.456 67.832,-14.565 67.367,-14.565L66.311,-14.565L66.311,-21.958L78.147,-21.958L77.729,-16.478L78.067,-16.478C78.36,-18.524 79.256,-20.098 80.757,-21.201C82.258,-22.303 84.297,-22.854 86.874,-22.854C88.694,-22.854 90.175,-22.595 91.318,-22.077C92.46,-21.559 93.347,-20.905 93.978,-20.115C94.609,-19.324 95.037,-18.467 95.263,-17.544C95.489,-16.621 95.602,-15.754 95.602,-14.944L95.602,-9.345C95.602,-8.641 95.724,-8.139 95.97,-7.841C96.216,-7.542 96.691,-7.392 97.395,-7.392L98.471,-7.392L98.471,0L84.682,0L84.682,-12.732Z" style="fill:white;fill-rule:nonzero;"/>
                    <path d="M99.686,-11.019C99.686,-12.971 100.025,-14.685 100.702,-16.159C101.38,-17.634 102.346,-18.866 103.602,-19.856C104.857,-20.845 106.368,-21.592 108.135,-22.097C109.901,-22.602 111.874,-22.854 114.052,-22.854C116.231,-22.854 118.203,-22.602 119.97,-22.097C121.737,-21.592 123.245,-20.845 124.493,-19.856C125.742,-18.866 126.708,-17.634 127.392,-16.159C128.076,-14.685 128.419,-12.971 128.419,-11.019C128.419,-9.093 128.076,-7.386 127.392,-5.898C126.708,-4.41 125.742,-3.165 124.493,-2.162C123.245,-1.159 121.737,-0.405 119.97,0.1C118.203,0.604 116.231,0.857 114.052,0.857C111.874,0.857 109.901,0.604 108.135,0.1C106.368,-0.405 104.857,-1.159 103.602,-2.162C102.346,-3.165 101.38,-4.41 100.702,-5.898C100.025,-7.386 99.686,-9.093 99.686,-11.019ZM111.024,-11.019C111.024,-9.903 111.074,-8.956 111.173,-8.179C111.273,-7.402 111.436,-6.778 111.661,-6.306C111.887,-5.835 112.193,-5.489 112.578,-5.27C112.963,-5.051 113.455,-4.941 114.052,-4.941C114.65,-4.941 115.138,-5.051 115.517,-5.27C115.895,-5.489 116.201,-5.835 116.433,-6.306C116.666,-6.778 116.829,-7.402 116.922,-8.179C117.015,-8.956 117.061,-9.903 117.061,-11.019C117.061,-13.25 116.852,-14.814 116.433,-15.711C116.015,-16.608 115.221,-17.056 114.052,-17.056C113.455,-17.056 112.963,-16.953 112.578,-16.747C112.193,-16.541 111.887,-16.203 111.661,-15.731C111.436,-15.259 111.273,-14.635 111.173,-13.858C111.074,-13.081 111.024,-12.135 111.024,-11.019Z" style="fill:white;fill-rule:nonzero;"/>
                </g>
                <g transform="matrix(2.02338,0,0,2.02338,23577.6,15514.4)">
                    <path d="M20.005,-12.732C20.005,-13.25 19.942,-13.665 19.816,-13.978C19.69,-14.29 19.53,-14.529 19.337,-14.695C19.145,-14.861 18.929,-14.971 18.69,-15.024C18.451,-15.077 18.218,-15.103 17.993,-15.103C17.129,-15.103 16.485,-14.851 16.06,-14.346C15.635,-13.841 15.422,-13.124 15.422,-12.194L15.422,-9.345C15.422,-8.641 15.545,-8.139 15.791,-7.841C16.037,-7.542 16.511,-7.392 17.215,-7.392L18.291,-7.392L18.291,0L1.634,0L1.634,-7.392L2.809,-7.392C3.354,-7.392 3.769,-7.568 4.055,-7.92C4.34,-8.272 4.483,-8.694 4.483,-9.186L4.483,-12.971C4.483,-13.596 4.301,-14.017 3.935,-14.237C3.57,-14.456 3.155,-14.565 2.69,-14.565L1.634,-14.565L1.634,-21.958L13.469,-21.958L13.051,-16.478L13.39,-16.478C13.682,-18.524 14.579,-20.098 16.08,-21.201C17.581,-22.303 19.62,-22.854 22.197,-22.854C24.017,-22.854 25.498,-22.595 26.64,-22.077C27.783,-21.559 28.669,-20.905 29.3,-20.115C29.931,-19.324 30.36,-18.467 30.585,-17.544C30.811,-16.621 30.924,-15.754 30.924,-14.944L30.924,-9.345C30.924,-8.641 31.047,-8.139 31.293,-7.841C31.538,-7.542 32.013,-7.392 32.717,-7.392L33.793,-7.392L33.793,0L20.005,0L20.005,-12.732Z" style="fill:white;fill-rule:nonzero;"/>
                    <path d="M45.649,-19.188C44.971,-19.188 44.39,-19.138 43.905,-19.039C43.421,-18.939 43.005,-18.823 42.66,-18.69C42.315,-18.557 42.029,-18.408 41.803,-18.242C41.577,-18.076 41.378,-17.926 41.206,-17.793L41.405,-17.594C41.657,-17.727 41.933,-17.86 42.232,-17.993C42.531,-18.125 42.912,-18.192 43.377,-18.192C44.161,-18.192 44.839,-17.936 45.41,-17.425C45.981,-16.913 46.267,-16.1 46.267,-14.984C46.267,-13.921 45.831,-13.068 44.961,-12.423C44.091,-11.779 42.926,-11.457 41.465,-11.457C40.07,-11.457 38.957,-11.859 38.127,-12.663C37.297,-13.466 36.882,-14.605 36.882,-16.08C36.882,-16.89 37.108,-17.697 37.559,-18.501C38.011,-19.304 38.712,-20.025 39.661,-20.663C40.611,-21.3 41.82,-21.825 43.288,-22.237C44.756,-22.648 46.526,-22.854 48.598,-22.854C51.069,-22.854 53.088,-22.622 54.655,-22.157C56.223,-21.692 57.441,-21.094 58.311,-20.364C59.181,-19.633 59.779,-18.803 60.105,-17.873C60.43,-16.943 60.593,-16.007 60.593,-15.064L60.593,-7.273C60.593,-6.064 60.633,-5.244 60.712,-4.812C60.792,-4.38 61.091,-4.164 61.609,-4.164C62.021,-4.164 62.31,-4.36 62.476,-4.752C62.642,-5.144 62.725,-5.818 62.725,-6.775L62.725,-9.265L64.996,-9.265L64.996,-6.735C64.996,-5.539 64.897,-4.48 64.697,-3.557C64.498,-2.633 64.12,-1.843 63.562,-1.186C63.004,-0.528 62.247,-0.03 61.29,0.309C60.334,0.648 59.112,0.817 57.624,0.817C56.282,0.817 55.17,0.674 54.286,0.389C53.403,0.103 52.702,-0.252 52.184,-0.677C51.666,-1.103 51.298,-1.544 51.078,-2.002C50.859,-2.461 50.75,-2.869 50.75,-3.228L50.431,-3.228C50.351,-2.683 50.122,-2.165 49.743,-1.674C49.365,-1.182 48.84,-0.747 48.169,-0.369C47.499,0.01 46.695,0.315 45.758,0.548C44.822,0.78 43.756,0.897 42.56,0.897C41.418,0.897 40.379,0.787 39.442,0.568C38.506,0.349 37.709,0.003 37.051,-0.468C36.394,-0.94 35.882,-1.551 35.517,-2.301C35.152,-3.052 34.969,-3.945 34.969,-4.981C34.969,-6.257 35.328,-7.263 36.045,-8C36.762,-8.737 37.665,-9.322 38.755,-9.753C39.844,-10.185 41.029,-10.537 42.311,-10.809C43.593,-11.082 44.779,-11.411 45.868,-11.796C46.957,-12.181 47.861,-12.679 48.578,-13.29C49.295,-13.901 49.654,-14.765 49.654,-15.88C49.654,-16.877 49.342,-17.677 48.717,-18.281C48.093,-18.886 47.07,-19.188 45.649,-19.188ZM49.654,-10.56C49.362,-10.135 48.996,-9.793 48.558,-9.534C48.12,-9.275 47.698,-9.023 47.293,-8.777C46.888,-8.531 46.536,-8.239 46.237,-7.9C45.938,-7.562 45.788,-7.107 45.788,-6.535C45.788,-6.097 45.908,-5.702 46.147,-5.35C46.386,-4.998 46.851,-4.822 47.542,-4.822C48.166,-4.822 48.674,-5.064 49.066,-5.549C49.458,-6.034 49.654,-6.715 49.654,-7.592L49.654,-10.56Z" style="fill:white;fill-rule:nonzero;"/>
                    <path d="M84.682,-12.732C84.682,-13.25 84.619,-13.665 84.493,-13.978C84.367,-14.29 84.208,-14.529 84.015,-14.695C83.822,-14.861 83.607,-14.971 83.367,-15.024C83.128,-15.077 82.896,-15.103 82.67,-15.103C81.807,-15.103 81.162,-14.851 80.737,-14.346C80.312,-13.841 80.1,-13.124 80.1,-12.194L80.1,-9.345C80.1,-8.641 80.223,-8.139 80.468,-7.841C80.714,-7.542 81.189,-7.392 81.893,-7.392L82.969,-7.392L82.969,0L66.311,0L66.311,-7.392L67.487,-7.392C68.032,-7.392 68.447,-7.568 68.732,-7.92C69.018,-8.272 69.161,-8.694 69.161,-9.186L69.161,-12.971C69.161,-13.596 68.978,-14.017 68.613,-14.237C68.247,-14.456 67.832,-14.565 67.367,-14.565L66.311,-14.565L66.311,-21.958L78.147,-21.958L77.729,-16.478L78.067,-16.478C78.36,-18.524 79.256,-20.098 80.757,-21.201C82.258,-22.303 84.297,-22.854 86.874,-22.854C88.694,-22.854 90.175,-22.595 91.318,-22.077C92.46,-21.559 93.347,-20.905 93.978,-20.115C94.609,-19.324 95.037,-18.467 95.263,-17.544C95.489,-16.621 95.602,-15.754 95.602,-14.944L95.602,-9.345C95.602,-8.641 95.724,-8.139 95.97,-7.841C96.216,-7.542 96.691,-7.392 97.395,-7.392L98.471,-7.392L98.471,0L84.682,0L84.682,-12.732Z" style="fill:white;fill-rule:nonzero;"/>
                    <path d="M99.686,-11.019C99.686,-12.971 100.025,-14.685 100.702,-16.159C101.38,-17.634 102.346,-18.866 103.602,-19.856C104.857,-20.845 106.368,-21.592 108.135,-22.097C109.901,-22.602 111.874,-22.854 114.052,-22.854C116.231,-22.854 118.203,-22.602 119.97,-22.097C121.737,-21.592 123.245,-20.845 124.493,-19.856C125.742,-18.866 126.708,-17.634 127.392,-16.159C128.076,-14.685 128.419,-12.971 128.419,-11.019C128.419,-9.093 128.076,-7.386 127.392,-5.898C126.708,-4.41 125.742,-3.165 124.493,-2.162C123.245,-1.159 121.737,-0.405 119.97,0.1C118.203,0.604 116.231,0.857 114.052,0.857C111.874,0.857 109.901,0.604 108.135,0.1C106.368,-0.405 104.857,-1.159 103.602,-2.162C102.346,-3.165 101.38,-4.41 100.702,-5.898C100.025,-7.386 99.686,-9.093 99.686,-11.019ZM111.024,-11.019C111.024,-9.903 111.074,-8.956 111.173,-8.179C111.273,-7.402 111.436,-6.778 111.661,-6.306C111.887,-5.835 112.193,-5.489 112.578,-5.27C112.963,-5.051 113.455,-4.941 114.052,-4.941C114.65,-4.941 115.138,-5.051 115.517,-5.27C115.895,-5.489 116.201,-5.835 116.433,-6.306C116.666,-6.778 116.829,-7.402 116.922,-8.179C117.015,-8.956 117.061,-9.903 117.061,-11.019C117.061,-13.25 116.852,-14.814 116.433,-15.711C116.015,-16.608 115.221,-17.056 114.052,-17.056C113.455,-17.056 112.963,-16.953 112.578,-16.747C112.193,-16.541 111.887,-16.203 111.661,-15.731C111.436,-15.259 111.273,-14.635 111.173,-13.858C111.074,-13.081 111.024,-12.135 111.024,-11.019Z" style="fill:white;fill-rule:nonzero;"/>
                </g>
                <g transform="matrix(2.02338,0,0,2.02338,23966.2,15514.4)">
                    <path d="M20.005,-12.732C20.005,-13.25 19.942,-13.665 19.816,-13.978C19.69,-14.29 19.53,-14.529 19.337,-14.695C19.145,-14.861 18.929,-14.971 18.69,-15.024C18.451,-15.077 18.218,-15.103 17.993,-15.103C17.129,-15.103 16.485,-14.851 16.06,-14.346C15.635,-13.841 15.422,-13.124 15.422,-12.194L15.422,-9.345C15.422,-8.641 15.545,-8.139 15.791,-7.841C16.037,-7.542 16.511,-7.392 17.215,-7.392L18.291,-7.392L18.291,0L1.634,0L1.634,-7.392L2.809,-7.392C3.354,-7.392 3.769,-7.568 4.055,-7.92C4.34,-8.272 4.483,-8.694 4.483,-9.186L4.483,-12.971C4.483,-13.596 4.301,-14.017 3.935,-14.237C3.57,-14.456 3.155,-14.565 2.69,-14.565L1.634,-14.565L1.634,-21.958L13.469,-21.958L13.051,-16.478L13.39,-16.478C13.682,-18.524 14.579,-20.098 16.08,-21.201C17.581,-22.303 19.62,-22.854 22.197,-22.854C24.017,-22.854 25.498,-22.595 26.64,-22.077C27.783,-21.559 28.669,-20.905 29.3,-20.115C29.931,-19.324 30.36,-18.467 30.585,-17.544C30.811,-16.621 30.924,-15.754 30.924,-14.944L30.924,-9.345C30.924,-8.641 31.047,-8.139 31.293,-7.841C31.538,-7.542 32.013,-7.392 32.717,-7.392L33.793,-7.392L33.793,0L20.005,0L20.005,-12.732Z" style="fill:white;fill-rule:nonzero;"/>
                    <path d="M45.649,-19.188C44.971,-19.188 44.39,-19.138 43.905,-19.039C43.421,-18.939 43.005,-18.823 42.66,-18.69C42.315,-18.557 42.029,-18.408 41.803,-18.242C41.577,-18.076 41.378,-17.926 41.206,-17.793L41.405,-17.594C41.657,-17.727 41.933,-17.86 42.232,-17.993C42.531,-18.125 42.912,-18.192 43.377,-18.192C44.161,-18.192 44.839,-17.936 45.41,-17.425C45.981,-16.913 46.267,-16.1 46.267,-14.984C46.267,-13.921 45.831,-13.068 44.961,-12.423C44.091,-11.779 42.926,-11.457 41.465,-11.457C40.07,-11.457 38.957,-11.859 38.127,-12.663C37.297,-13.466 36.882,-14.605 36.882,-16.08C36.882,-16.89 37.108,-17.697 37.559,-18.501C38.011,-19.304 38.712,-20.025 39.661,-20.663C40.611,-21.3 41.82,-21.825 43.288,-22.237C44.756,-22.648 46.526,-22.854 48.598,-22.854C51.069,-22.854 53.088,-22.622 54.655,-22.157C56.223,-21.692 57.441,-21.094 58.311,-20.364C59.181,-19.633 59.779,-18.803 60.105,-17.873C60.43,-16.943 60.593,-16.007 60.593,-15.064L60.593,-7.273C60.593,-6.064 60.633,-5.244 60.712,-4.812C60.792,-4.38 61.091,-4.164 61.609,-4.164C62.021,-4.164 62.31,-4.36 62.476,-4.752C62.642,-5.144 62.725,-5.818 62.725,-6.775L62.725,-9.265L64.996,-9.265L64.996,-6.735C64.996,-5.539 64.897,-4.48 64.697,-3.557C64.498,-2.633 64.12,-1.843 63.562,-1.186C63.004,-0.528 62.247,-0.03 61.29,0.309C60.334,0.648 59.112,0.817 57.624,0.817C56.282,0.817 55.17,0.674 54.286,0.389C53.403,0.103 52.702,-0.252 52.184,-0.677C51.666,-1.103 51.298,-1.544 51.078,-2.002C50.859,-2.461 50.75,-2.869 50.75,-3.228L50.431,-3.228C50.351,-2.683 50.122,-2.165 49.743,-1.674C49.365,-1.182 48.84,-0.747 48.169,-0.369C47.499,0.01 46.695,0.315 45.758,0.548C44.822,0.78 43.756,0.897 42.56,0.897C41.418,0.897 40.379,0.787 39.442,0.568C38.506,0.349 37.709,0.003 37.051,-0.468C36.394,-0.94 35.882,-1.551 35.517,-2.301C35.152,-3.052 34.969,-3.945 34.969,-4.981C34.969,-6.257 35.328,-7.263 36.045,-8C36.762,-8.737 37.665,-9.322 38.755,-9.753C39.844,-10.185 41.029,-10.537 42.311,-10.809C43.593,-11.082 44.779,-11.411 45.868,-11.796C46.957,-12.181 47.861,-12.679 48.578,-13.29C49.295,-13.901 49.654,-14.765 49.654,-15.88C49.654,-16.877 49.342,-17.677 48.717,-18.281C48.093,-18.886 47.07,-19.188 45.649,-19.188ZM49.654,-10.56C49.362,-10.135 48.996,-9.793 48.558,-9.534C48.12,-9.275 47.698,-9.023 47.293,-8.777C46.888,-8.531 46.536,-8.239 46.237,-7.9C45.938,-7.562 45.788,-7.107 45.788,-6.535C45.788,-6.097 45.908,-5.702 46.147,-5.35C46.386,-4.998 46.851,-4.822 47.542,-4.822C48.166,-4.822 48.674,-5.064 49.066,-5.549C49.458,-6.034 49.654,-6.715 49.654,-7.592L49.654,-10.56Z" style="fill:white;fill-rule:nonzero;"/>
                    <path d="M84.682,-12.732C84.682,-13.25 84.619,-13.665 84.493,-13.978C84.367,-14.29 84.208,-14.529 84.015,-14.695C83.822,-14.861 83.607,-14.971 83.367,-15.024C83.128,-15.077 82.896,-15.103 82.67,-15.103C81.807,-15.103 81.162,-14.851 80.737,-14.346C80.312,-13.841 80.1,-13.124 80.1,-12.194L80.1,-9.345C80.1,-8.641 80.223,-8.139 80.468,-7.841C80.714,-7.542 81.189,-7.392 81.893,-7.392L82.969,-7.392L82.969,0L66.311,0L66.311,-7.392L67.487,-7.392C68.032,-7.392 68.447,-7.568 68.732,-7.92C69.018,-8.272 69.161,-8.694 69.161,-9.186L69.161,-12.971C69.161,-13.596 68.978,-14.017 68.613,-14.237C68.247,-14.456 67.832,-14.565 67.367,-14.565L66.311,-14.565L66.311,-21.958L78.147,-21.958L77.729,-16.478L78.067,-16.478C78.36,-18.524 79.256,-20.098 80.757,-21.201C82.258,-22.303 84.297,-22.854 86.874,-22.854C88.694,-22.854 90.175,-22.595 91.318,-22.077C92.46,-21.559 93.347,-20.905 93.978,-20.115C94.609,-19.324 95.037,-18.467 95.263,-17.544C95.489,-16.621 95.602,-15.754 95.602,-14.944L95.602,-9.345C95.602,-8.641 95.724,-8.139 95.97,-7.841C96.216,-7.542 96.691,-7.392 97.395,-7.392L98.471,-7.392L98.471,0L84.682,0L84.682,-12.732Z" style="fill:white;fill-rule:nonzero;"/>
                    <path d="M99.686,-11.019C99.686,-12.971 100.025,-14.685 100.702,-16.159C101.38,-17.634 102.346,-18.866 103.602,-19.856C104.857,-20.845 106.368,-21.592 108.135,-22.097C109.901,-22.602 111.874,-22.854 114.052,-22.854C116.231,-22.854 118.203,-22.602 119.97,-22.097C121.737,-21.592 123.245,-20.845 124.493,-19.856C125.742,-18.866 126.708,-17.634 127.392,-16.159C128.076,-14.685 128.419,-12.971 128.419,-11.019C128.419,-9.093 128.076,-7.386 127.392,-5.898C126.708,-4.41 125.742,-3.165 124.493,-2.162C123.245,-1.159 121.737,-0.405 119.97,0.1C118.203,0.604 116.231,0.857 114.052,0.857C111.874,0.857 109.901,0.604 108.135,0.1C106.368,-0.405 104.857,-1.159 103.602,-2.162C102.346,-3.165 101.38,-4.41 100.702,-5.898C100.025,-7.386 99.686,-9.093 99.686,-11.019ZM111.024,-11.019C111.024,-9.903 111.074,-8.956 111.173,-8.179C111.273,-7.402 111.436,-6.778 111.661,-6.306C111.887,-5.835 112.193,-5.489 112.578,-5.27C112.963,-5.051 113.455,-4.941 114.052,-4.941C114.65,-4.941 115.138,-5.051 115.517,-5.27C115.895,-5.489 116.201,-5.835 116.433,-6.306C116.666,-6.778 116.829,-7.402 116.922,-8.179C117.015,-8.956 117.061,-9.903 117.061,-11.019C117.061,-13.25 116.852,-14.814 116.433,-15.711C116.015,-16.608 115.221,-17.056 114.052,-17.056C113.455,-17.056 112.963,-16.953 112.578,-16.747C112.193,-16.541 111.887,-16.203 111.661,-15.731C111.436,-15.259 111.273,-14.635 111.173,-13.858C111.074,-13.081 111.024,-12.135 111.024,-11.019Z" style="fill:white;fill-rule:nonzero;"/>
                </g>
                <g transform="matrix(2.02338,0,0,2.02338,24354.8,15514.4)">
                    <path d="M20.005,-12.732C20.005,-13.25 19.942,-13.665 19.816,-13.978C19.69,-14.29 19.53,-14.529 19.337,-14.695C19.145,-14.861 18.929,-14.971 18.69,-15.024C18.451,-15.077 18.218,-15.103 17.993,-15.103C17.129,-15.103 16.485,-14.851 16.06,-14.346C15.635,-13.841 15.422,-13.124 15.422,-12.194L15.422,-9.345C15.422,-8.641 15.545,-8.139 15.791,-7.841C16.037,-7.542 16.511,-7.392 17.215,-7.392L18.291,-7.392L18.291,0L1.634,0L1.634,-7.392L2.809,-7.392C3.354,-7.392 3.769,-7.568 4.055,-7.92C4.34,-8.272 4.483,-8.694 4.483,-9.186L4.483,-12.971C4.483,-13.596 4.301,-14.017 3.935,-14.237C3.57,-14.456 3.155,-14.565 2.69,-14.565L1.634,-14.565L1.634,-21.958L13.469,-21.958L13.051,-16.478L13.39,-16.478C13.682,-18.524 14.579,-20.098 16.08,-21.201C17.581,-22.303 19.62,-22.854 22.197,-22.854C24.017,-22.854 25.498,-22.595 26.64,-22.077C27.783,-21.559 28.669,-20.905 29.3,-20.115C29.931,-19.324 30.36,-18.467 30.585,-17.544C30.811,-16.621 30.924,-15.754 30.924,-14.944L30.924,-9.345C30.924,-8.641 31.047,-8.139 31.293,-7.841C31.538,-7.542 32.013,-7.392 32.717,-7.392L33.793,-7.392L33.793,0L20.005,0L20.005,-12.732Z" style="fill:white;fill-rule:nonzero;"/>
                    <path d="M45.649,-19.188C44.971,-19.188 44.39,-19.138 43.905,-19.039C43.421,-18.939 43.005,-18.823 42.66,-18.69C42.315,-18.557 42.029,-18.408 41.803,-18.242C41.577,-18.076 41.378,-17.926 41.206,-17.793L41.405,-17.594C41.657,-17.727 41.933,-17.86 42.232,-17.993C42.531,-18.125 42.912,-18.192 43.377,-18.192C44.161,-18.192 44.839,-17.936 45.41,-17.425C45.981,-16.913 46.267,-16.1 46.267,-14.984C46.267,-13.921 45.831,-13.068 44.961,-12.423C44.091,-11.779 42.926,-11.457 41.465,-11.457C40.07,-11.457 38.957,-11.859 38.127,-12.663C37.297,-13.466 36.882,-14.605 36.882,-16.08C36.882,-16.89 37.108,-17.697 37.559,-18.501C38.011,-19.304 38.712,-20.025 39.661,-20.663C40.611,-21.3 41.82,-21.825 43.288,-22.237C44.756,-22.648 46.526,-22.854 48.598,-22.854C51.069,-22.854 53.088,-22.622 54.655,-22.157C56.223,-21.692 57.441,-21.094 58.311,-20.364C59.181,-19.633 59.779,-18.803 60.105,-17.873C60.43,-16.943 60.593,-16.007 60.593,-15.064L60.593,-7.273C60.593,-6.064 60.633,-5.244 60.712,-4.812C60.792,-4.38 61.091,-4.164 61.609,-4.164C62.021,-4.164 62.31,-4.36 62.476,-4.752C62.642,-5.144 62.725,-5.818 62.725,-6.775L62.725,-9.265L64.996,-9.265L64.996,-6.735C64.996,-5.539 64.897,-4.48 64.697,-3.557C64.498,-2.633 64.12,-1.843 63.562,-1.186C63.004,-0.528 62.247,-0.03 61.29,0.309C60.334,0.648 59.112,0.817 57.624,0.817C56.282,0.817 55.17,0.674 54.286,0.389C53.403,0.103 52.702,-0.252 52.184,-0.677C51.666,-1.103 51.298,-1.544 51.078,-2.002C50.859,-2.461 50.75,-2.869 50.75,-3.228L50.431,-3.228C50.351,-2.683 50.122,-2.165 49.743,-1.674C49.365,-1.182 48.84,-0.747 48.169,-0.369C47.499,0.01 46.695,0.315 45.758,0.548C44.822,0.78 43.756,0.897 42.56,0.897C41.418,0.897 40.379,0.787 39.442,0.568C38.506,0.349 37.709,0.003 37.051,-0.468C36.394,-0.94 35.882,-1.551 35.517,-2.301C35.152,-3.052 34.969,-3.945 34.969,-4.981C34.969,-6.257 35.328,-7.263 36.045,-8C36.762,-8.737 37.665,-9.322 38.755,-9.753C39.844,-10.185 41.029,-10.537 42.311,-10.809C43.593,-11.082 44.779,-11.411 45.868,-11.796C46.957,-12.181 47.861,-12.679 48.578,-13.29C49.295,-13.901 49.654,-14.765 49.654,-15.88C49.654,-16.877 49.342,-17.677 48.717,-18.281C48.093,-18.886 47.07,-19.188 45.649,-19.188ZM49.654,-10.56C49.362,-10.135 48.996,-9.793 48.558,-9.534C48.12,-9.275 47.698,-9.023 47.293,-8.777C46.888,-8.531 46.536,-8.239 46.237,-7.9C45.938,-7.562 45.788,-7.107 45.788,-6.535C45.788,-6.097 45.908,-5.702 46.147,-5.35C46.386,-4.998 46.851,-4.822 47.542,-4.822C48.166,-4.822 48.674,-5.064 49.066,-5.549C49.458,-6.034 49.654,-6.715 49.654,-7.592L49.654,-10.56Z" style="fill:white;fill-rule:nonzero;"/>
                    <path d="M84.682,-12.732C84.682,-13.25 84.619,-13.665 84.493,-13.978C84.367,-14.29 84.208,-14.529 84.015,-14.695C83.822,-14.861 83.607,-14.971 83.367,-15.024C83.128,-15.077 82.896,-15.103 82.67,-15.103C81.807,-15.103 81.162,-14.851 80.737,-14.346C80.312,-13.841 80.1,-13.124 80.1,-12.194L80.1,-9.345C80.1,-8.641 80.223,-8.139 80.468,-7.841C80.714,-7.542 81.189,-7.392 81.893,-7.392L82.969,-7.392L82.969,0L66.311,0L66.311,-7.392L67.487,-7.392C68.032,-7.392 68.447,-7.568 68.732,-7.92C69.018,-8.272 69.161,-8.694 69.161,-9.186L69.161,-12.971C69.161,-13.596 68.978,-14.017 68.613,-14.237C68.247,-14.456 67.832,-14.565 67.367,-14.565L66.311,-14.565L66.311,-21.958L78.147,-21.958L77.729,-16.478L78.067,-16.478C78.36,-18.524 79.256,-20.098 80.757,-21.201C82.258,-22.303 84.297,-22.854 86.874,-22.854C88.694,-22.854 90.175,-22.595 91.318,-22.077C92.46,-21.559 93.347,-20.905 93.978,-20.115C94.609,-19.324 95.037,-18.467 95.263,-17.544C95.489,-16.621 95.602,-15.754 95.602,-14.944L95.602,-9.345C95.602,-8.641 95.724,-8.139 95.97,-7.841C96.216,-7.542 96.691,-7.392 97.395,-7.392L98.471,-7.392L98.471,0L84.682,0L84.682,-12.732Z" style="fill:white;fill-rule:nonzero;"/>
                    <path d="M99.686,-11.019C99.686,-12.971 100.025,-14.685 100.702,-16.159C101.38,-17.634 102.346,-18.866 103.602,-19.856C104.857,-20.845 106.368,-21.592 108.135,-22.097C109.901,-22.602 111.874,-22.854 114.052,-22.854C116.231,-22.854 118.203,-22.602 119.97,-22.097C121.737,-21.592 123.245,-20.845 124.493,-19.856C125.742,-18.866 126.708,-17.634 127.392,-16.159C128.076,-14.685 128.419,-12.971 128.419,-11.019C128.419,-9.093 128.076,-7.386 127.392,-5.898C126.708,-4.41 125.742,-3.165 124.493,-2.162C123.245,-1.159 121.737,-0.405 119.97,0.1C118.203,0.604 116.231,0.857 114.052,0.857C111.874,0.857 109.901,0.604 108.135,0.1C106.368,-0.405 104.857,-1.159 103.602,-2.162C102.346,-3.165 101.38,-4.41 100.702,-5.898C100.025,-7.386 99.686,-9.093 99.686,-11.019ZM111.024,-11.019C111.024,-9.903 111.074,-8.956 111.173,-8.179C111.273,-7.402 111.436,-6.778 111.661,-6.306C111.887,-5.835 112.193,-5.489 112.578,-5.27C112.963,-5.051 113.455,-4.941 114.052,-4.941C114.65,-4.941 115.138,-5.051 115.517,-5.27C115.895,-5.489 116.201,-5.835 116.433,-6.306C116.666,-6.778 116.829,-7.402 116.922,-8.179C117.015,-8.956 117.061,-9.903 117.061,-11.019C117.061,-13.25 116.852,-14.814 116.433,-15.711C116.015,-16.608 115.221,-17.056 114.052,-17.056C113.455,-17.056 112.963,-16.953 112.578,-16.747C112.193,-16.541 111.887,-16.203 111.661,-15.731C111.436,-15.259 111.273,-14.635 111.173,-13.858C111.074,-13.081 111.024,-12.135 111.024,-11.019Z" style="fill:white;fill-rule:nonzero;"/>
                </g>
                <g transform="matrix(2.02338,0,0,2.02338,24743.5,15514.4)">
                    <path d="M20.005,-12.732C20.005,-13.25 19.942,-13.665 19.816,-13.978C19.69,-14.29 19.53,-14.529 19.337,-14.695C19.145,-14.861 18.929,-14.971 18.69,-15.024C18.451,-15.077 18.218,-15.103 17.993,-15.103C17.129,-15.103 16.485,-14.851 16.06,-14.346C15.635,-13.841 15.422,-13.124 15.422,-12.194L15.422,-9.345C15.422,-8.641 15.545,-8.139 15.791,-7.841C16.037,-7.542 16.511,-7.392 17.215,-7.392L18.291,-7.392L18.291,0L1.634,0L1.634,-7.392L2.809,-7.392C3.354,-7.392 3.769,-7.568 4.055,-7.92C4.34,-8.272 4.483,-8.694 4.483,-9.186L4.483,-12.971C4.483,-13.596 4.301,-14.017 3.935,-14.237C3.57,-14.456 3.155,-14.565 2.69,-14.565L1.634,-14.565L1.634,-21.958L13.469,-21.958L13.051,-16.478L13.39,-16.478C13.682,-18.524 14.579,-20.098 16.08,-21.201C17.581,-22.303 19.62,-22.854 22.197,-22.854C24.017,-22.854 25.498,-22.595 26.64,-22.077C27.783,-21.559 28.669,-20.905 29.3,-20.115C29.931,-19.324 30.36,-18.467 30.585,-17.544C30.811,-16.621 30.924,-15.754 30.924,-14.944L30.924,-9.345C30.924,-8.641 31.047,-8.139 31.293,-7.841C31.538,-7.542 32.013,-7.392 32.717,-7.392L33.793,-7.392L33.793,0L20.005,0L20.005,-12.732Z" style="fill:white;fill-rule:nonzero;"/>
                    <path d="M45.649,-19.188C44.971,-19.188 44.39,-19.138 43.905,-19.039C43.421,-18.939 43.005,-18.823 42.66,-18.69C42.315,-18.557 42.029,-18.408 41.803,-18.242C41.577,-18.076 41.378,-17.926 41.206,-17.793L41.405,-17.594C41.657,-17.727 41.933,-17.86 42.232,-17.993C42.531,-18.125 42.912,-18.192 43.377,-18.192C44.161,-18.192 44.839,-17.936 45.41,-17.425C45.981,-16.913 46.267,-16.1 46.267,-14.984C46.267,-13.921 45.831,-13.068 44.961,-12.423C44.091,-11.779 42.926,-11.457 41.465,-11.457C40.07,-11.457 38.957,-11.859 38.127,-12.663C37.297,-13.466 36.882,-14.605 36.882,-16.08C36.882,-16.89 37.108,-17.697 37.559,-18.501C38.011,-19.304 38.712,-20.025 39.661,-20.663C40.611,-21.3 41.82,-21.825 43.288,-22.237C44.756,-22.648 46.526,-22.854 48.598,-22.854C51.069,-22.854 53.088,-22.622 54.655,-22.157C56.223,-21.692 57.441,-21.094 58.311,-20.364C59.181,-19.633 59.779,-18.803 60.105,-17.873C60.43,-16.943 60.593,-16.007 60.593,-15.064L60.593,-7.273C60.593,-6.064 60.633,-5.244 60.712,-4.812C60.792,-4.38 61.091,-4.164 61.609,-4.164C62.021,-4.164 62.31,-4.36 62.476,-4.752C62.642,-5.144 62.725,-5.818 62.725,-6.775L62.725,-9.265L64.996,-9.265L64.996,-6.735C64.996,-5.539 64.897,-4.48 64.697,-3.557C64.498,-2.633 64.12,-1.843 63.562,-1.186C63.004,-0.528 62.247,-0.03 61.29,0.309C60.334,0.648 59.112,0.817 57.624,0.817C56.282,0.817 55.17,0.674 54.286,0.389C53.403,0.103 52.702,-0.252 52.184,-0.677C51.666,-1.103 51.298,-1.544 51.078,-2.002C50.859,-2.461 50.75,-2.869 50.75,-3.228L50.431,-3.228C50.351,-2.683 50.122,-2.165 49.743,-1.674C49.365,-1.182 48.84,-0.747 48.169,-0.369C47.499,0.01 46.695,0.315 45.758,0.548C44.822,0.78 43.756,0.897 42.56,0.897C41.418,0.897 40.379,0.787 39.442,0.568C38.506,0.349 37.709,0.003 37.051,-0.468C36.394,-0.94 35.882,-1.551 35.517,-2.301C35.152,-3.052 34.969,-3.945 34.969,-4.981C34.969,-6.257 35.328,-7.263 36.045,-8C36.762,-8.737 37.665,-9.322 38.755,-9.753C39.844,-10.185 41.029,-10.537 42.311,-10.809C43.593,-11.082 44.779,-11.411 45.868,-11.796C46.957,-12.181 47.861,-12.679 48.578,-13.29C49.295,-13.901 49.654,-14.765 49.654,-15.88C49.654,-16.877 49.342,-17.677 48.717,-18.281C48.093,-18.886 47.07,-19.188 45.649,-19.188ZM49.654,-10.56C49.362,-10.135 48.996,-9.793 48.558,-9.534C48.12,-9.275 47.698,-9.023 47.293,-8.777C46.888,-8.531 46.536,-8.239 46.237,-7.9C45.938,-7.562 45.788,-7.107 45.788,-6.535C45.788,-6.097 45.908,-5.702 46.147,-5.35C46.386,-4.998 46.851,-4.822 47.542,-4.822C48.166,-4.822 48.674,-5.064 49.066,-5.549C49.458,-6.034 49.654,-6.715 49.654,-7.592L49.654,-10.56Z" style="fill:white;fill-rule:nonzero;"/>
                    <path d="M84.682,-12.732C84.682,-13.25 84.619,-13.665 84.493,-13.978C84.367,-14.29 84.208,-14.529 84.015,-14.695C83.822,-14.861 83.607,-14.971 83.367,-15.024C83.128,-15.077 82.896,-15.103 82.67,-15.103C81.807,-15.103 81.162,-14.851 80.737,-14.346C80.312,-13.841 80.1,-13.124 80.1,-12.194L80.1,-9.345C80.1,-8.641 80.223,-8.139 80.468,-7.841C80.714,-7.542 81.189,-7.392 81.893,-7.392L82.969,-7.392L82.969,0L66.311,0L66.311,-7.392L67.487,-7.392C68.032,-7.392 68.447,-7.568 68.732,-7.92C69.018,-8.272 69.161,-8.694 69.161,-9.186L69.161,-12.971C69.161,-13.596 68.978,-14.017 68.613,-14.237C68.247,-14.456 67.832,-14.565 67.367,-14.565L66.311,-14.565L66.311,-21.958L78.147,-21.958L77.729,-16.478L78.067,-16.478C78.36,-18.524 79.256,-20.098 80.757,-21.201C82.258,-22.303 84.297,-22.854 86.874,-22.854C88.694,-22.854 90.175,-22.595 91.318,-22.077C92.46,-21.559 93.347,-20.905 93.978,-20.115C94.609,-19.324 95.037,-18.467 95.263,-17.544C95.489,-16.621 95.602,-15.754 95.602,-14.944L95.602,-9.345C95.602,-8.641 95.724,-8.139 95.97,-7.841C96.216,-7.542 96.691,-7.392 97.395,-7.392L98.471,-7.392L98.471,0L84.682,0L84.682,-12.732Z" style="fill:white;fill-rule:nonzero;"/>
                    <path d="M99.686,-11.019C99.686,-12.971 100.025,-14.685 100.702,-16.159C101.38,-17.634 102.346,-18.866 103.602,-19.856C104.857,-20.845 106.368,-21.592 108.135,-22.097C109.901,-22.602 111.874,-22.854 114.052,-22.854C116.231,-22.854 118.203,-22.602 119.97,-22.097C121.737,-21.592 123.245,-20.845 124.493,-19.856C125.742,-18.866 126.708,-17.634 127.392,-16.159C128.076,-14.685 128.419,-12.971 128.419,-11.019C128.419,-9.093 128.076,-7.386 127.392,-5.898C126.708,-4.41 125.742,-3.165 124.493,-2.162C123.245,-1.159 121.737,-0.405 119.97,0.1C118.203,0.604 116.231,0.857 114.052,0.857C111.874,0.857 109.901,0.604 108.135,0.1C106.368,-0.405 104.857,-1.159 103.602,-2.162C102.346,-3.165 101.38,-4.41 100.702,-5.898C100.025,-7.386 99.686,-9.093 99.686,-11.019ZM111.024,-11.019C111.024,-9.903 111.074,-8.956 111.173,-8.179C111.273,-7.402 111.436,-6.778 111.661,-6.306C111.887,-5.835 112.193,-5.489 112.578,-5.27C112.963,-5.051 113.455,-4.941 114.052,-4.941C114.65,-4.941 115.138,-5.051 115.517,-5.27C115.895,-5.489 116.201,-5.835 116.433,-6.306C116.666,-6.778 116.829,-7.402 116.922,-8.179C117.015,-8.956 117.061,-9.903 117.061,-11.019C117.061,-13.25 116.852,-14.814 116.433,-15.711C116.015,-16.608 115.221,-17.056 114.052,-17.056C113.455,-17.056 112.963,-16.953 112.578,-16.747C112.193,-16.541 111.887,-16.203 111.661,-15.731C111.436,-15.259 111.273,-14.635 111.173,-13.858C111.074,-13.081 111.024,-12.135 111.024,-11.019Z" style="fill:white;fill-rule:nonzero;"/>
                </g>
            </g>
        </g>
    </g>
</svg>
