<?xml version="1.0" encoding="UTF-8" standalone="no"?>
<!DOCTYPE svg PUBLIC "-//W3C//DTD SVG 1.1//EN" "http://www.w3.org/Graphics/SVG/1.1/DTD/svg11.dtd">
<svg width="100%" height="100%" viewBox="0 0 2024 95" version="1.1" xmlns="http://www.w3.org/2000/svg" xmlns:xlink="http://www.w3.org/1999/xlink" xml:space="preserve" xmlns:serif="http://www.serif.com/" style="fill-rule:evenodd;clip-rule:evenodd;stroke-linejoin:round;stroke-miterlimit:2;">
    <g transform="matrix(1,0,0,1,-20928,-15515.4)">
        <g transform="matrix(0.525857,0,0,1,21075.3,-198.616)">
            <g transform="matrix(5.8076,0,0,3.05397,-59394.7,-22759.9)">
                <g transform="matrix(0.735166,0,0,0.735166,10153.1,12543.8)">
                    <g transform="matrix(40.8071,0,0,40.8071,162.62,105.061)">
                    </g>
                    <text x="33.384px" y="105.061px" style="font-family:'Ultra-Regular', 'Ultra', serif;font-size:40.807px;">nano</text>
                </g>
                <g transform="matrix(0.546007,0,0,0.546007,10690.9,12562.9)">
                    <g transform="matrix(54.9444,0,0,54.9444,292.814,105.061)">
                    </g>
                    <text x="33.384px" y="105.061px" style="font-family:'Ultra-Regular', 'Ultra', serif;font-size:54.944px;">Burger</text>
                </g>
                <g transform="matrix(0.538807,0,0,0.538807,10301.5,12564.2)">
                    <g transform="matrix(55.6786,0,0,55.6786,270.399,105.061)">
                    </g>
                    <text x="33.384px" y="105.061px" style="font-family:'Ultra-Regular', 'Ultra', serif;font-size:55.679px;fill:rgb(239,157,82);">cheesy</text>
                </g>
                <g transform="matrix(0.5244,0,0,0.5244,10480.8,12565.7)">
                    <g transform="matrix(57.2082,0,0,57.2082,346.214,105.061)">
                    </g>
                    <text x="33.384px" y="105.061px" style="font-family:'Ultra-Regular', 'Ultra', serif;font-size:57.208px;">jalapeño</text>
                </g>
            </g>
        </g>
    </g>
</svg>
