<?xml version="1.0" encoding="UTF-8" standalone="no"?>
<!DOCTYPE svg PUBLIC "-//W3C//DTD SVG 1.1//EN" "http://www.w3.org/Graphics/SVG/1.1/DTD/svg11.dtd">
<svg width="100%" height="100%" viewBox="0 0 1646 79" version="1.1" xmlns="http://www.w3.org/2000/svg" xmlns:xlink="http://www.w3.org/1999/xlink" xml:space="preserve" xmlns:serif="http://www.serif.com/" style="fill-rule:evenodd;clip-rule:evenodd;stroke-linejoin:round;stroke-miterlimit:2;">
    <g transform="matrix(1,0,0,1,-37557.3,-30183.5)">
        <g transform="matrix(1,0,0,1,-0.62358,-0.149198)">
            <g transform="matrix(1,0,0,1,14339,14525.6)">
                <g transform="matrix(0.726905,0,0,0.316626,6571.5,10913.2)">
                    <rect x="22901.7" y="14985.7" width="2263.38" height="246.407" style="fill:none;"/>
                </g>
                <g transform="matrix(1.62429,0,0,1.62429,23256.5,15723.4)">
                    <path d="M18.573,-12.686L18.573,-11.284C18.573,-10.459 18.779,-9.816 19.192,-9.357C19.605,-8.897 20.356,-8.667 21.447,-8.667L23.83,-8.667L23.83,0L0.958,0L0.958,-8.667C2.328,-8.667 3.31,-8.85 3.902,-9.216C4.493,-9.582 4.789,-10.272 4.789,-11.284L4.789,-23.105C4.789,-24.133 4.493,-24.83 3.902,-25.196C3.31,-25.562 2.328,-25.745 0.958,-25.745L0.958,-34.413L26.166,-34.413C28.471,-34.413 30.402,-34.14 31.96,-33.595C33.517,-33.05 34.767,-32.291 35.709,-31.317C36.652,-30.344 37.321,-29.164 37.718,-27.778C38.116,-26.392 38.314,-24.865 38.314,-23.199C38.314,-21.517 38.116,-20.029 37.718,-18.737C37.321,-17.444 36.652,-16.342 35.709,-15.431C34.767,-14.52 33.517,-13.834 31.96,-13.375C30.402,-12.915 28.471,-12.686 26.166,-12.686L18.573,-12.686ZM18.573,-18.223L21.096,-18.223C22.404,-18.223 23.308,-18.565 23.806,-19.251C24.305,-19.936 24.554,-20.839 24.554,-21.961C24.554,-23.02 24.305,-23.915 23.806,-24.647C23.308,-25.379 22.404,-25.745 21.096,-25.745L18.573,-25.745L18.573,-18.223Z" style="fill:rgb(239,157,82);fill-rule:nonzero;"/>
                    <path d="M57.027,-25.745L57.027,-11.191C57.027,-10.147 57.284,-9.466 57.798,-9.146C58.312,-8.827 58.966,-8.667 59.761,-8.667L60.392,-8.667L60.392,0L40.72,0L40.72,-8.667L41.632,-8.667C42.457,-8.667 43.068,-8.928 43.466,-9.45C43.863,-9.972 44.061,-10.536 44.061,-11.144L44.061,-14.438C44.061,-15.341 43.777,-16.007 43.209,-16.435C42.64,-16.864 41.982,-17.078 41.234,-17.078L40.72,-17.078L40.72,-25.745L57.027,-25.745ZM43.688,-31.492C43.688,-32.832 44.198,-33.977 45.218,-34.927C46.238,-35.877 47.69,-36.352 49.575,-36.352C51.491,-36.352 52.966,-35.877 54.002,-34.927C55.038,-33.977 55.556,-32.832 55.556,-31.492C55.556,-30.122 55.038,-28.965 54.002,-28.023C52.966,-27.081 51.491,-26.61 49.575,-26.61C47.69,-26.61 46.238,-27.081 45.218,-28.023C44.198,-28.965 43.688,-30.122 43.688,-31.492Z" style="fill:rgb(239,157,82);fill-rule:nonzero;"/>
                    <path d="M81.441,-6.705C82.36,-6.705 82.971,-6.88 83.275,-7.231C83.579,-7.581 83.73,-8.138 83.73,-8.901L83.73,-10.233L90.435,-10.233L90.435,0L62.05,0L62.05,-6.705L74.502,-19.04L71.278,-19.04C70.359,-19.04 69.748,-18.881 69.444,-18.561C69.141,-18.242 68.989,-17.639 68.989,-16.751L68.989,-15.559L62.284,-15.559L62.284,-25.745L90.295,-25.745L90.295,-19.04L77.937,-6.705L81.441,-6.705Z" style="fill:rgb(239,157,82);fill-rule:nonzero;"/>
                    <path d="M112.209,-6.705C113.128,-6.705 113.739,-6.88 114.043,-7.231C114.347,-7.581 114.499,-8.138 114.499,-8.901L114.499,-10.233L121.204,-10.233L121.204,0L92.818,0L92.818,-6.705L105.271,-19.04L102.047,-19.04C101.128,-19.04 100.516,-18.881 100.213,-18.561C99.909,-18.242 99.757,-17.639 99.757,-16.751L99.757,-15.559L93.052,-15.559L93.052,-25.745L121.063,-25.745L121.063,-19.04L108.705,-6.705L112.209,-6.705Z" style="fill:rgb(239,157,82);fill-rule:nonzero;"/>
                    <path d="M135.828,-22.498C135.034,-22.498 134.353,-22.439 133.784,-22.323C133.216,-22.206 132.729,-22.07 132.324,-21.914C131.919,-21.758 131.584,-21.583 131.32,-21.388C131.055,-21.194 130.821,-21.018 130.619,-20.863L130.852,-20.629C131.148,-20.785 131.471,-20.94 131.822,-21.096C132.172,-21.252 132.62,-21.33 133.165,-21.33C134.084,-21.33 134.878,-21.03 135.548,-20.43C136.218,-19.831 136.553,-18.877 136.553,-17.568C136.553,-16.322 136.043,-15.322 135.022,-14.566C134.002,-13.811 132.636,-13.433 130.922,-13.433C129.287,-13.433 127.983,-13.904 127.009,-14.847C126.036,-15.789 125.549,-17.125 125.549,-18.853C125.549,-19.803 125.814,-20.75 126.343,-21.692C126.873,-22.634 127.694,-23.479 128.808,-24.227C129.922,-24.974 131.339,-25.59 133.06,-26.072C134.781,-26.555 136.856,-26.797 139.286,-26.797C142.183,-26.797 144.55,-26.524 146.388,-25.979C148.226,-25.434 149.655,-24.733 150.675,-23.876C151.695,-23.02 152.396,-22.046 152.778,-20.956C153.159,-19.866 153.35,-18.768 153.35,-17.662L153.35,-8.527C153.35,-7.11 153.397,-6.148 153.49,-5.642C153.584,-5.136 153.934,-4.883 154.542,-4.883C155.024,-4.883 155.363,-5.112 155.558,-5.572C155.753,-6.031 155.85,-6.822 155.85,-7.943L155.85,-10.863L158.513,-10.863L158.513,-7.896C158.513,-6.495 158.396,-5.253 158.163,-4.17C157.929,-3.088 157.485,-2.161 156.831,-1.39C156.177,-0.619 155.289,-0.035 154.168,0.362C153.046,0.759 151.614,0.958 149.869,0.958C148.296,0.958 146.992,0.79 145.956,0.456C144.92,0.121 144.099,-0.296 143.491,-0.794C142.884,-1.293 142.452,-1.811 142.195,-2.348C141.938,-2.885 141.809,-3.364 141.809,-3.785L141.435,-3.785C141.342,-3.146 141.073,-2.539 140.629,-1.962C140.186,-1.386 139.57,-0.876 138.784,-0.432C137.997,0.012 137.055,0.37 135.957,0.642C134.859,0.915 133.609,1.051 132.207,1.051C130.868,1.051 129.649,0.923 128.551,0.666C127.453,0.409 126.519,0.004 125.748,-0.549C124.977,-1.102 124.377,-1.818 123.949,-2.698C123.52,-3.578 123.306,-4.626 123.306,-5.841C123.306,-7.336 123.727,-8.516 124.568,-9.38C125.409,-10.244 126.468,-10.93 127.745,-11.436C129.022,-11.942 130.412,-12.355 131.915,-12.674C133.418,-12.993 134.808,-13.379 136.085,-13.83C137.363,-14.282 138.422,-14.866 139.263,-15.583C140.104,-16.299 140.524,-17.311 140.524,-18.62C140.524,-19.788 140.158,-20.726 139.426,-21.435C138.694,-22.144 137.495,-22.498 135.828,-22.498ZM140.524,-12.382C140.182,-11.884 139.753,-11.483 139.239,-11.179C138.725,-10.875 138.231,-10.579 137.756,-10.291C137.281,-10.003 136.868,-9.66 136.518,-9.263C136.167,-8.866 135.992,-8.333 135.992,-7.663C135.992,-7.149 136.132,-6.686 136.412,-6.273C136.693,-5.86 137.238,-5.654 138.048,-5.654C138.78,-5.654 139.376,-5.938 139.835,-6.506C140.295,-7.075 140.524,-7.873 140.524,-8.901L140.524,-12.382Z" style="fill:rgb(239,157,82);fill-rule:nonzero;"/>
                </g>
                <g transform="matrix(1.89565,0,0,1.89565,24247.7,15723.4)">
                    <path d="M30.668,-9.388C30.668,-8.681 30.791,-8.177 31.038,-7.877C31.285,-7.577 31.762,-7.427 32.469,-7.427L33.13,-7.427L33.13,0L19.678,0L19.678,-12.792C19.678,-13.312 19.624,-13.729 19.518,-14.043C19.411,-14.356 19.267,-14.597 19.087,-14.763C18.907,-14.93 18.7,-15.04 18.467,-15.094C18.233,-15.147 18.01,-15.174 17.796,-15.174C16.915,-15.174 16.311,-14.92 15.984,-14.413C15.657,-13.906 15.494,-13.185 15.494,-12.251L15.494,-9.388C15.494,-8.681 15.617,-8.177 15.864,-7.877C16.111,-7.577 16.588,-7.427 17.296,-7.427L17.956,-7.427L17.956,0L1.641,0L1.641,-7.427L2.823,-7.427C3.37,-7.427 3.787,-7.604 4.074,-7.957C4.361,-8.311 4.504,-8.735 4.504,-9.228L4.504,-13.032C4.504,-13.659 4.321,-14.083 3.954,-14.303C3.587,-14.523 3.17,-14.633 2.702,-14.633L1.641,-14.633L1.641,-22.06L13.532,-22.06L13.112,-16.555L13.452,-16.555C13.746,-18.61 14.576,-20.192 15.944,-21.299C17.312,-22.407 19.297,-22.961 21.9,-22.961C22.874,-22.961 23.785,-22.831 24.632,-22.57C25.48,-22.31 26.234,-21.913 26.894,-21.379C27.555,-20.845 28.075,-20.175 28.456,-19.367C28.836,-18.56 29.053,-17.623 29.106,-16.555L29.387,-16.555C29.507,-17.569 29.804,-18.48 30.277,-19.287C30.751,-20.095 31.352,-20.765 32.079,-21.299C32.806,-21.833 33.607,-22.243 34.481,-22.53C35.355,-22.817 36.273,-22.961 37.234,-22.961C39.009,-22.961 40.457,-22.7 41.578,-22.18C42.699,-21.66 43.573,-21.002 44.2,-20.208C44.827,-19.414 45.258,-18.553 45.491,-17.626C45.725,-16.698 45.841,-15.828 45.841,-15.014L45.841,-9.388C45.841,-8.681 45.965,-8.177 46.212,-7.877C46.459,-7.577 46.936,-7.427 47.643,-7.427L48.704,-7.427L48.704,0L34.851,0L34.851,-12.792C34.851,-13.312 34.795,-13.729 34.681,-14.043C34.568,-14.356 34.424,-14.597 34.251,-14.763C34.077,-14.93 33.874,-15.04 33.64,-15.094C33.407,-15.147 33.183,-15.174 32.97,-15.174C32.089,-15.174 31.485,-14.92 31.158,-14.413C30.831,-13.906 30.668,-13.185 30.668,-12.251L30.668,-9.388Z" style="fill:white;fill-rule:nonzero;"/>
                    <path d="M78.971,-9.028C78.971,-8.388 79.155,-7.961 79.522,-7.747C79.889,-7.533 80.306,-7.427 80.773,-7.427L81.834,-7.427L81.834,0L69.943,0L69.943,-5.485L69.623,-5.485C69.316,-3.443 68.482,-1.895 67.121,-0.841C65.759,0.214 63.778,0.741 61.175,0.741C59.347,0.741 57.859,0.48 56.711,-0.04C55.563,-0.561 54.676,-1.218 54.049,-2.012C53.422,-2.806 52.991,-3.667 52.758,-4.594C52.524,-5.522 52.407,-6.392 52.407,-7.207L52.407,-12.671C52.407,-13.379 52.284,-13.883 52.037,-14.183C51.79,-14.483 51.313,-14.633 50.606,-14.633L49.405,-14.633L49.405,-22.06L63.397,-22.06L63.397,-9.429C63.397,-8.908 63.457,-8.491 63.577,-8.177C63.697,-7.864 63.854,-7.624 64.048,-7.457C64.241,-7.29 64.462,-7.18 64.708,-7.126C64.955,-7.073 65.185,-7.046 65.399,-7.046C66.28,-7.046 66.93,-7.3 67.351,-7.807C67.771,-8.314 67.981,-9.035 67.981,-9.969L67.981,-12.671C67.981,-13.379 67.858,-13.883 67.611,-14.183C67.364,-14.483 66.887,-14.633 66.18,-14.633L64.999,-14.633L64.999,-22.06L78.971,-22.06L78.971,-9.028Z" style="fill:white;fill-rule:nonzero;"/>
                    <path d="M107.017,-14.753L101.512,-14.753C101.125,-15.714 100.524,-16.475 99.71,-17.035C98.896,-17.596 98.048,-17.876 97.168,-17.876C96.567,-17.876 96.09,-17.766 95.736,-17.546C95.383,-17.326 95.206,-16.995 95.206,-16.555C95.206,-16.008 95.513,-15.597 96.127,-15.324C96.741,-15.05 97.511,-14.807 98.439,-14.593C99.366,-14.38 100.371,-14.123 101.452,-13.822C102.533,-13.522 103.537,-13.092 104.464,-12.531C105.392,-11.971 106.162,-11.217 106.776,-10.269C107.39,-9.322 107.697,-8.074 107.697,-6.526C107.697,-5.325 107.43,-4.277 106.896,-3.383C106.363,-2.489 105.632,-1.755 104.704,-1.181C103.777,-0.607 102.686,-0.177 101.432,0.11C100.177,0.397 98.823,0.54 97.368,0.54C95.953,0.54 94.615,0.404 93.354,0.13C92.093,-0.143 90.889,-0.607 89.741,-1.261L89.541,0.12L84.256,0.12L84.256,-7.907L89.741,-7.907C90.261,-6.84 90.919,-6.012 91.713,-5.425C92.507,-4.838 93.384,-4.544 94.345,-4.544C95.079,-4.544 95.603,-4.681 95.917,-4.954C96.23,-5.228 96.387,-5.532 96.387,-5.865C96.387,-6.412 96.08,-6.836 95.466,-7.136C94.852,-7.437 94.095,-7.704 93.194,-7.937C92.293,-8.171 91.302,-8.431 90.221,-8.718C89.14,-9.005 88.15,-9.422 87.249,-9.969C86.348,-10.516 85.591,-11.253 84.977,-12.181C84.363,-13.108 84.056,-14.326 84.056,-15.834C84.056,-16.915 84.299,-17.903 84.787,-18.797C85.274,-19.691 85.971,-20.445 86.878,-21.059C87.786,-21.673 88.854,-22.143 90.081,-22.47C91.309,-22.797 92.657,-22.961 94.125,-22.961C95.766,-22.961 97.244,-22.777 98.559,-22.41C99.873,-22.043 100.858,-21.64 101.512,-21.199L101.712,-22.62L107.017,-22.62L107.017,-14.753Z" style="fill:white;fill-rule:nonzero;"/>
                    <path d="M131.359,-22.961C133.12,-22.961 134.551,-22.7 135.652,-22.18C136.753,-21.66 137.614,-21.002 138.235,-20.208C138.855,-19.414 139.279,-18.553 139.506,-17.626C139.733,-16.698 139.846,-15.828 139.846,-15.014L139.846,-9.388C139.846,-8.681 139.97,-8.177 140.217,-7.877C140.463,-7.577 140.941,-7.427 141.648,-7.427L142.729,-7.427L142.729,0L128.876,0L128.876,-12.792C128.876,-13.312 128.813,-13.729 128.686,-14.043C128.559,-14.356 128.399,-14.597 128.206,-14.763C128.012,-14.93 127.795,-15.04 127.555,-15.094C127.315,-15.147 127.081,-15.174 126.854,-15.174C125.987,-15.174 125.34,-14.92 124.913,-14.413C124.486,-13.906 124.272,-13.185 124.272,-12.251L124.272,-9.388C124.272,-8.681 124.396,-8.177 124.642,-7.877C124.889,-7.577 125.366,-7.427 126.074,-7.427L127.555,-7.427L127.555,0L110.42,0L110.42,-7.427L111.601,-7.427C112.148,-7.427 112.565,-7.604 112.852,-7.957C113.139,-8.311 113.282,-8.735 113.282,-9.228L113.242,-19.798C113.242,-20.572 112.999,-21.142 112.512,-21.509C112.024,-21.876 111.461,-22.06 110.82,-22.06L110.42,-22.06L110.42,-29.487L124.272,-29.487L124.272,-22.06C124.272,-21.806 124.192,-21.366 124.032,-20.739C123.872,-20.111 123.572,-19.484 123.131,-18.857L123.531,-18.657C124.252,-19.965 125.22,-21.009 126.434,-21.79C127.649,-22.57 129.29,-22.961 131.359,-22.961Z" style="fill:white;fill-rule:nonzero;"/>
                    <path d="M156.661,-22.06L156.321,-16.555L156.661,-16.555C157.128,-18.664 157.906,-20.258 158.993,-21.339C160.081,-22.42 161.492,-22.961 163.227,-22.961C164.255,-22.961 165.139,-22.797 165.88,-22.47C166.62,-22.143 167.218,-21.706 167.671,-21.159C168.125,-20.612 168.452,-19.981 168.652,-19.267C168.852,-18.553 168.952,-17.816 168.952,-17.055C168.952,-16.428 168.859,-15.808 168.672,-15.194C168.485,-14.58 168.185,-14.026 167.771,-13.532C167.358,-13.038 166.824,-12.641 166.17,-12.341C165.516,-12.041 164.709,-11.891 163.748,-11.891C162.413,-11.891 161.362,-12.231 160.595,-12.912C159.828,-13.592 159.444,-14.413 159.444,-15.374C159.444,-15.841 159.497,-16.238 159.604,-16.565C159.711,-16.892 159.821,-17.159 159.934,-17.366C160.048,-17.573 160.125,-17.723 160.165,-17.816C160.205,-17.909 160.158,-17.956 160.024,-17.956C159.744,-17.956 159.441,-17.636 159.114,-16.995C158.787,-16.355 158.623,-15.347 158.623,-13.973L158.623,-9.388C158.623,-8.681 158.747,-8.177 158.993,-7.877C159.24,-7.577 159.717,-7.427 160.425,-7.427L161.626,-7.427L161.626,0L144.771,0L144.771,-7.427L145.952,-7.427C146.499,-7.427 146.916,-7.604 147.203,-7.957C147.49,-8.311 147.633,-8.735 147.633,-9.228L147.633,-13.032C147.633,-13.659 147.45,-14.083 147.083,-14.303C146.716,-14.523 146.299,-14.633 145.832,-14.633L144.771,-14.633L144.771,-22.06L156.661,-22.06Z" style="fill:white;fill-rule:nonzero;"/>
                    <path d="M170.194,-11.07C170.194,-13.032 170.534,-14.753 171.215,-16.235C171.895,-17.716 172.866,-18.954 174.127,-19.948C175.388,-20.942 176.906,-21.693 178.681,-22.2C180.456,-22.707 182.438,-22.961 184.627,-22.961C186.815,-22.961 188.797,-22.707 190.572,-22.2C192.347,-21.693 193.862,-20.942 195.116,-19.948C196.371,-18.954 197.341,-17.716 198.029,-16.235C198.716,-14.753 199.06,-13.032 199.06,-11.07C199.06,-9.135 198.716,-7.42 198.029,-5.925C197.341,-4.431 196.371,-3.18 195.116,-2.172C193.862,-1.164 192.347,-0.407 190.572,0.1C188.797,0.607 186.815,0.861 184.627,0.861C182.438,0.861 180.456,0.607 178.681,0.1C176.906,-0.407 175.388,-1.164 174.127,-2.172C172.866,-3.18 171.895,-4.431 171.215,-5.925C170.534,-7.42 170.194,-9.135 170.194,-11.07ZM181.584,-11.07C181.584,-9.949 181.634,-8.998 181.734,-8.217C181.834,-7.437 181.998,-6.809 182.224,-6.336C182.451,-5.862 182.758,-5.515 183.145,-5.295C183.532,-5.075 184.026,-4.964 184.627,-4.964C185.227,-4.964 185.718,-5.075 186.098,-5.295C186.478,-5.515 186.785,-5.862 187.019,-6.336C187.252,-6.809 187.416,-7.437 187.509,-8.217C187.603,-8.998 187.649,-9.949 187.649,-11.07C187.649,-13.312 187.439,-14.883 187.019,-15.784C186.598,-16.685 185.801,-17.135 184.627,-17.135C184.026,-17.135 183.532,-17.032 183.145,-16.825C182.758,-16.618 182.451,-16.278 182.224,-15.804C181.998,-15.331 181.834,-14.703 181.734,-13.923C181.634,-13.142 181.584,-12.191 181.584,-11.07Z" style="fill:white;fill-rule:nonzero;"/>
                    <path d="M200.701,-11.07C200.701,-13.032 201.041,-14.753 201.722,-16.235C202.403,-17.716 203.374,-18.954 204.635,-19.948C205.896,-20.942 207.414,-21.693 209.189,-22.2C210.964,-22.707 212.946,-22.961 215.134,-22.961C217.323,-22.961 219.305,-22.707 221.08,-22.2C222.854,-21.693 224.369,-20.942 225.624,-19.948C226.878,-18.954 227.849,-17.716 228.536,-16.235C229.224,-14.753 229.567,-13.032 229.567,-11.07C229.567,-9.135 229.224,-7.42 228.536,-5.925C227.849,-4.431 226.878,-3.18 225.624,-2.172C224.369,-1.164 222.854,-0.407 221.08,0.1C219.305,0.607 217.323,0.861 215.134,0.861C212.946,0.861 210.964,0.607 209.189,0.1C207.414,-0.407 205.896,-1.164 204.635,-2.172C203.374,-3.18 202.403,-4.431 201.722,-5.925C201.041,-7.42 200.701,-9.135 200.701,-11.07ZM212.091,-11.07C212.091,-9.949 212.141,-8.998 212.242,-8.217C212.342,-7.437 212.505,-6.809 212.732,-6.336C212.959,-5.862 213.266,-5.515 213.653,-5.295C214.04,-5.075 214.534,-4.964 215.134,-4.964C215.735,-4.964 216.225,-5.075 216.605,-5.295C216.986,-5.515 217.293,-5.862 217.526,-6.336C217.76,-6.809 217.923,-7.437 218.017,-8.217C218.11,-8.998 218.157,-9.949 218.157,-11.07C218.157,-13.312 217.947,-14.883 217.526,-15.784C217.106,-16.685 216.309,-17.135 215.134,-17.135C214.534,-17.135 214.04,-17.032 213.653,-16.825C213.266,-16.618 212.959,-16.278 212.732,-15.804C212.505,-15.331 212.342,-14.703 212.242,-13.923C212.141,-13.142 212.091,-12.191 212.091,-11.07Z" style="fill:white;fill-rule:nonzero;"/>
                    <path d="M261.056,-9.388C261.056,-8.681 261.179,-8.177 261.426,-7.877C261.673,-7.577 262.15,-7.427 262.857,-7.427L263.518,-7.427L263.518,0L250.066,0L250.066,-12.792C250.066,-13.312 250.012,-13.729 249.906,-14.043C249.799,-14.356 249.655,-14.597 249.475,-14.763C249.295,-14.93 249.088,-15.04 248.855,-15.094C248.621,-15.147 248.398,-15.174 248.184,-15.174C247.303,-15.174 246.699,-14.92 246.372,-14.413C246.045,-13.906 245.882,-13.185 245.882,-12.251L245.882,-9.388C245.882,-8.681 246.005,-8.177 246.252,-7.877C246.499,-7.577 246.976,-7.427 247.684,-7.427L248.344,-7.427L248.344,0L232.029,0L232.029,-7.427L233.21,-7.427C233.758,-7.427 234.175,-7.604 234.462,-7.957C234.749,-8.311 234.892,-8.735 234.892,-9.228L234.892,-13.032C234.892,-13.659 234.708,-14.083 234.341,-14.303C233.974,-14.523 233.557,-14.633 233.09,-14.633L232.029,-14.633L232.029,-22.06L243.92,-22.06L243.5,-16.555L243.84,-16.555C244.134,-18.61 244.964,-20.192 246.332,-21.299C247.7,-22.407 249.685,-22.961 252.288,-22.961C253.262,-22.961 254.173,-22.831 255.02,-22.57C255.868,-22.31 256.622,-21.913 257.282,-21.379C257.943,-20.845 258.463,-20.175 258.844,-19.367C259.224,-18.56 259.441,-17.623 259.494,-16.555L259.774,-16.555C259.895,-17.569 260.191,-18.48 260.665,-19.287C261.139,-20.095 261.74,-20.765 262.467,-21.299C263.194,-21.833 263.995,-22.243 264.869,-22.53C265.743,-22.817 266.661,-22.961 267.622,-22.961C269.396,-22.961 270.844,-22.7 271.965,-22.18C273.086,-21.66 273.961,-21.002 274.588,-20.208C275.215,-19.414 275.645,-18.553 275.879,-17.626C276.113,-16.698 276.229,-15.828 276.229,-15.014L276.229,-9.388C276.229,-8.681 276.353,-8.177 276.6,-7.877C276.847,-7.577 277.324,-7.427 278.031,-7.427L279.092,-7.427L279.092,0L265.239,0L265.239,-12.792C265.239,-13.312 265.183,-13.729 265.069,-14.043C264.956,-14.356 264.812,-14.597 264.639,-14.763C264.465,-14.93 264.262,-15.04 264.028,-15.094C263.795,-15.147 263.571,-15.174 263.358,-15.174C262.477,-15.174 261.873,-14.92 261.546,-14.413C261.219,-13.906 261.056,-13.185 261.056,-12.251L261.056,-9.388Z" style="fill:white;fill-rule:nonzero;"/>
                    <path d="M303.874,-14.753L298.369,-14.753C297.982,-15.714 297.382,-16.475 296.568,-17.035C295.754,-17.596 294.906,-17.876 294.025,-17.876C293.425,-17.876 292.948,-17.766 292.594,-17.546C292.24,-17.326 292.064,-16.995 292.064,-16.555C292.064,-16.008 292.371,-15.597 292.984,-15.324C293.598,-15.05 294.369,-14.807 295.297,-14.593C296.224,-14.38 297.228,-14.123 298.309,-13.822C299.39,-13.522 300.394,-13.092 301.322,-12.531C302.249,-11.971 303.02,-11.217 303.634,-10.269C304.248,-9.322 304.555,-8.074 304.555,-6.526C304.555,-5.325 304.288,-4.277 303.754,-3.383C303.22,-2.489 302.49,-1.755 301.562,-1.181C300.635,-0.607 299.544,-0.177 298.289,0.11C297.035,0.397 295.68,0.54 294.226,0.54C292.811,0.54 291.473,0.404 290.212,0.13C288.951,-0.143 287.746,-0.607 286.599,-1.261L286.398,0.12L281.114,0.12L281.114,-7.907L286.599,-7.907C287.119,-6.84 287.776,-6.012 288.57,-5.425C289.364,-4.838 290.242,-4.544 291.203,-4.544C291.937,-4.544 292.461,-4.681 292.774,-4.954C293.088,-5.228 293.245,-5.532 293.245,-5.865C293.245,-6.412 292.938,-6.836 292.324,-7.136C291.71,-7.437 290.953,-7.704 290.052,-7.937C289.151,-8.171 288.16,-8.431 287.079,-8.718C285.998,-9.005 285.007,-9.422 284.106,-9.969C283.206,-10.516 282.448,-11.253 281.834,-12.181C281.22,-13.108 280.914,-14.326 280.914,-15.834C280.914,-16.915 281.157,-17.903 281.644,-18.797C282.131,-19.691 282.829,-20.445 283.736,-21.059C284.644,-21.673 285.711,-22.143 286.939,-22.47C288.167,-22.797 289.515,-22.961 290.983,-22.961C292.624,-22.961 294.102,-22.777 295.417,-22.41C296.731,-22.043 297.715,-21.64 298.369,-21.199L298.569,-22.62L303.874,-22.62L303.874,-14.753Z" style="fill:white;fill-rule:nonzero;"/>
                </g>
                <g transform="matrix(1.90445,0,0,1.90445,23563.6,15716.3)">
                    <path d="M20.005,-12.732C20.005,-13.25 19.942,-13.665 19.816,-13.978C19.69,-14.29 19.53,-14.529 19.337,-14.695C19.145,-14.861 18.929,-14.971 18.69,-15.024C18.451,-15.077 18.218,-15.103 17.993,-15.103C17.129,-15.103 16.485,-14.851 16.06,-14.346C15.635,-13.841 15.422,-13.124 15.422,-12.194L15.422,-9.345C15.422,-8.641 15.545,-8.139 15.791,-7.841C16.037,-7.542 16.511,-7.392 17.215,-7.392L18.291,-7.392L18.291,0L1.634,0L1.634,-7.392L2.809,-7.392C3.354,-7.392 3.769,-7.568 4.055,-7.92C4.34,-8.272 4.483,-8.694 4.483,-9.186L4.483,-12.971C4.483,-13.596 4.301,-14.017 3.935,-14.237C3.57,-14.456 3.155,-14.565 2.69,-14.565L1.634,-14.565L1.634,-21.958L13.469,-21.958L13.051,-16.478L13.39,-16.478C13.682,-18.524 14.579,-20.098 16.08,-21.201C17.581,-22.303 19.62,-22.854 22.197,-22.854C24.017,-22.854 25.498,-22.595 26.64,-22.077C27.783,-21.559 28.669,-20.905 29.3,-20.115C29.931,-19.324 30.36,-18.467 30.585,-17.544C30.811,-16.621 30.924,-15.754 30.924,-14.944L30.924,-9.345C30.924,-8.641 31.047,-8.139 31.293,-7.841C31.538,-7.542 32.013,-7.392 32.717,-7.392L33.793,-7.392L33.793,0L20.005,0L20.005,-12.732Z" style="fill:white;fill-rule:nonzero;"/>
                    <path d="M45.649,-19.188C44.971,-19.188 44.39,-19.138 43.905,-19.039C43.421,-18.939 43.005,-18.823 42.66,-18.69C42.315,-18.557 42.029,-18.408 41.803,-18.242C41.577,-18.076 41.378,-17.926 41.206,-17.793L41.405,-17.594C41.657,-17.727 41.933,-17.86 42.232,-17.993C42.531,-18.125 42.912,-18.192 43.377,-18.192C44.161,-18.192 44.839,-17.936 45.41,-17.425C45.981,-16.913 46.267,-16.1 46.267,-14.984C46.267,-13.921 45.831,-13.068 44.961,-12.423C44.091,-11.779 42.926,-11.457 41.465,-11.457C40.07,-11.457 38.957,-11.859 38.127,-12.663C37.297,-13.466 36.882,-14.605 36.882,-16.08C36.882,-16.89 37.108,-17.697 37.559,-18.501C38.011,-19.304 38.712,-20.025 39.661,-20.663C40.611,-21.3 41.82,-21.825 43.288,-22.237C44.756,-22.648 46.526,-22.854 48.598,-22.854C51.069,-22.854 53.088,-22.622 54.655,-22.157C56.223,-21.692 57.441,-21.094 58.311,-20.364C59.181,-19.633 59.779,-18.803 60.105,-17.873C60.43,-16.943 60.593,-16.007 60.593,-15.064L60.593,-7.273C60.593,-6.064 60.633,-5.244 60.712,-4.812C60.792,-4.38 61.091,-4.164 61.609,-4.164C62.021,-4.164 62.31,-4.36 62.476,-4.752C62.642,-5.144 62.725,-5.818 62.725,-6.775L62.725,-9.265L64.996,-9.265L64.996,-6.735C64.996,-5.539 64.897,-4.48 64.697,-3.557C64.498,-2.633 64.12,-1.843 63.562,-1.186C63.004,-0.528 62.247,-0.03 61.29,0.309C60.334,0.648 59.112,0.817 57.624,0.817C56.282,0.817 55.17,0.674 54.286,0.389C53.403,0.103 52.702,-0.252 52.184,-0.677C51.666,-1.103 51.298,-1.544 51.078,-2.002C50.859,-2.461 50.75,-2.869 50.75,-3.228L50.431,-3.228C50.351,-2.683 50.122,-2.165 49.743,-1.674C49.365,-1.182 48.84,-0.747 48.169,-0.369C47.499,0.01 46.695,0.315 45.758,0.548C44.822,0.78 43.756,0.897 42.56,0.897C41.418,0.897 40.379,0.787 39.442,0.568C38.506,0.349 37.709,0.003 37.051,-0.468C36.394,-0.94 35.882,-1.551 35.517,-2.301C35.152,-3.052 34.969,-3.945 34.969,-4.981C34.969,-6.257 35.328,-7.263 36.045,-8C36.762,-8.737 37.665,-9.322 38.755,-9.753C39.844,-10.185 41.029,-10.537 42.311,-10.809C43.593,-11.082 44.779,-11.411 45.868,-11.796C46.957,-12.181 47.861,-12.679 48.578,-13.29C49.295,-13.901 49.654,-14.765 49.654,-15.88C49.654,-16.877 49.342,-17.677 48.717,-18.281C48.093,-18.886 47.07,-19.188 45.649,-19.188ZM49.654,-10.56C49.362,-10.135 48.996,-9.793 48.558,-9.534C48.12,-9.275 47.698,-9.023 47.293,-8.777C46.888,-8.531 46.536,-8.239 46.237,-7.9C45.938,-7.562 45.788,-7.107 45.788,-6.535C45.788,-6.097 45.908,-5.702 46.147,-5.35C46.386,-4.998 46.851,-4.822 47.542,-4.822C48.166,-4.822 48.674,-5.064 49.066,-5.549C49.458,-6.034 49.654,-6.715 49.654,-7.592L49.654,-10.56Z" style="fill:white;fill-rule:nonzero;"/>
                    <path d="M84.682,-12.732C84.682,-13.25 84.619,-13.665 84.493,-13.978C84.367,-14.29 84.208,-14.529 84.015,-14.695C83.822,-14.861 83.607,-14.971 83.367,-15.024C83.128,-15.077 82.896,-15.103 82.67,-15.103C81.807,-15.103 81.162,-14.851 80.737,-14.346C80.312,-13.841 80.1,-13.124 80.1,-12.194L80.1,-9.345C80.1,-8.641 80.223,-8.139 80.468,-7.841C80.714,-7.542 81.189,-7.392 81.893,-7.392L82.969,-7.392L82.969,0L66.311,0L66.311,-7.392L67.487,-7.392C68.032,-7.392 68.447,-7.568 68.732,-7.92C69.018,-8.272 69.161,-8.694 69.161,-9.186L69.161,-12.971C69.161,-13.596 68.978,-14.017 68.613,-14.237C68.247,-14.456 67.832,-14.565 67.367,-14.565L66.311,-14.565L66.311,-21.958L78.147,-21.958L77.729,-16.478L78.067,-16.478C78.36,-18.524 79.256,-20.098 80.757,-21.201C82.258,-22.303 84.297,-22.854 86.874,-22.854C88.694,-22.854 90.175,-22.595 91.318,-22.077C92.46,-21.559 93.347,-20.905 93.978,-20.115C94.609,-19.324 95.037,-18.467 95.263,-17.544C95.489,-16.621 95.602,-15.754 95.602,-14.944L95.602,-9.345C95.602,-8.641 95.724,-8.139 95.97,-7.841C96.216,-7.542 96.691,-7.392 97.395,-7.392L98.471,-7.392L98.471,0L84.682,0L84.682,-12.732Z" style="fill:white;fill-rule:nonzero;"/>
                    <path d="M99.686,-11.019C99.686,-12.971 100.025,-14.685 100.702,-16.159C101.38,-17.634 102.346,-18.866 103.602,-19.856C104.857,-20.845 106.368,-21.592 108.135,-22.097C109.901,-22.602 111.874,-22.854 114.052,-22.854C116.231,-22.854 118.203,-22.602 119.97,-22.097C121.737,-21.592 123.245,-20.845 124.493,-19.856C125.742,-18.866 126.708,-17.634 127.392,-16.159C128.076,-14.685 128.419,-12.971 128.419,-11.019C128.419,-9.093 128.076,-7.386 127.392,-5.898C126.708,-4.41 125.742,-3.165 124.493,-2.162C123.245,-1.159 121.737,-0.405 119.97,0.1C118.203,0.604 116.231,0.857 114.052,0.857C111.874,0.857 109.901,0.604 108.135,0.1C106.368,-0.405 104.857,-1.159 103.602,-2.162C102.346,-3.165 101.38,-4.41 100.702,-5.898C100.025,-7.386 99.686,-9.093 99.686,-11.019ZM111.024,-11.019C111.024,-9.903 111.074,-8.956 111.173,-8.179C111.273,-7.402 111.436,-6.778 111.661,-6.306C111.887,-5.835 112.193,-5.489 112.578,-5.27C112.963,-5.051 113.455,-4.941 114.052,-4.941C114.65,-4.941 115.138,-5.051 115.517,-5.27C115.895,-5.489 116.201,-5.835 116.433,-6.306C116.666,-6.778 116.829,-7.402 116.922,-8.179C117.015,-8.956 117.061,-9.903 117.061,-11.019C117.061,-13.25 116.852,-14.814 116.433,-15.711C116.015,-16.608 115.221,-17.056 114.052,-17.056C113.455,-17.056 112.963,-16.953 112.578,-16.747C112.193,-16.541 111.887,-16.203 111.661,-15.731C111.436,-15.259 111.273,-14.635 111.173,-13.858C111.074,-13.081 111.024,-12.135 111.024,-11.019Z" style="fill:white;fill-rule:nonzero;"/>
                </g>
                <g transform="matrix(1.85405,0,0,1.85404,23858.9,15714.8)">
                    <path d="M28.757,-19.198L22.002,-19.198C21.893,-19.894 21.651,-20.542 21.276,-21.143C20.901,-21.743 20.44,-22.262 19.894,-22.698C19.348,-23.135 18.741,-23.473 18.073,-23.711C17.404,-23.95 16.715,-24.07 16.005,-24.07C15.146,-24.07 14.45,-23.906 13.918,-23.578C13.386,-23.251 13.12,-22.794 13.12,-22.207C13.12,-21.648 13.358,-21.194 13.836,-20.846C14.313,-20.498 14.941,-20.198 15.719,-19.945C16.497,-19.693 17.384,-19.451 18.38,-19.219C19.376,-18.987 20.389,-18.7 21.419,-18.359C22.449,-18.018 23.462,-17.605 24.458,-17.121C25.454,-16.636 26.341,-16.016 27.119,-15.258C27.897,-14.501 28.525,-13.577 29.002,-12.485C29.48,-11.393 29.718,-10.084 29.718,-8.555C29.718,-6.932 29.371,-5.547 28.675,-4.4C27.979,-3.254 27.044,-2.313 25.871,-1.576C24.697,-0.839 23.346,-0.3 21.818,0.041C20.29,0.382 18.707,0.553 17.07,0.553C15.473,0.553 13.948,0.368 12.495,0C11.042,-0.368 9.558,-0.969 8.044,-1.801L8.044,0L1.289,0L1.289,-11.155L8.044,-11.155C8.439,-9.558 9.231,-8.299 10.418,-7.378C11.605,-6.457 12.942,-5.997 14.429,-5.997C15.426,-5.997 16.169,-6.185 16.66,-6.56C17.152,-6.935 17.397,-7.361 17.397,-7.839C17.397,-8.589 16.991,-9.169 16.179,-9.579C15.368,-9.988 14.361,-10.353 13.16,-10.674C11.96,-10.994 10.646,-11.356 9.221,-11.758C7.795,-12.161 6.481,-12.741 5.281,-13.498C4.08,-14.255 3.074,-15.255 2.262,-16.497C1.45,-17.738 1.044,-19.362 1.044,-21.368C1.044,-22.855 1.364,-24.172 2.006,-25.318C2.647,-26.464 3.507,-27.43 4.585,-28.214C5.663,-28.999 6.908,-29.592 8.32,-29.995C9.732,-30.397 11.223,-30.599 12.792,-30.599C14.962,-30.599 16.824,-30.346 18.38,-29.841C19.935,-29.336 21.143,-28.804 22.002,-28.245L22.002,-30.148L28.757,-30.148L28.757,-19.198Z" style="fill:white;fill-rule:nonzero;"/>
                    <path d="M42.531,-19.71C41.835,-19.71 41.238,-19.659 40.74,-19.556C40.242,-19.454 39.816,-19.335 39.461,-19.198C39.106,-19.062 38.813,-18.908 38.581,-18.738C38.349,-18.567 38.144,-18.414 37.967,-18.277L38.171,-18.073C38.431,-18.209 38.714,-18.346 39.021,-18.482C39.328,-18.618 39.72,-18.687 40.198,-18.687C41.003,-18.687 41.699,-18.424 42.285,-17.899C42.872,-17.373 43.166,-16.538 43.166,-15.391C43.166,-14.3 42.719,-13.423 41.825,-12.761C40.931,-12.1 39.734,-11.769 38.233,-11.769C36.8,-11.769 35.657,-12.181 34.805,-13.007C33.952,-13.832 33.525,-15.003 33.525,-16.517C33.525,-17.349 33.757,-18.178 34.221,-19.004C34.685,-19.829 35.405,-20.57 36.381,-21.225C37.356,-21.88 38.598,-22.418 40.106,-22.841C41.613,-23.264 43.432,-23.476 45.56,-23.476C48.098,-23.476 50.172,-23.237 51.782,-22.76C53.392,-22.282 54.644,-21.668 55.538,-20.918C56.432,-20.167 57.046,-19.314 57.38,-18.359C57.714,-17.404 57.881,-16.442 57.881,-15.473L57.881,-7.471C57.881,-6.229 57.922,-5.386 58.004,-4.943C58.086,-4.499 58.393,-4.278 58.925,-4.278C59.348,-4.278 59.645,-4.479 59.816,-4.881C59.986,-5.284 60.071,-5.976 60.071,-6.959L60.071,-9.517L62.405,-9.517L62.405,-6.918C62.405,-5.69 62.302,-4.602 62.098,-3.653C61.893,-2.705 61.504,-1.893 60.931,-1.218C60.358,-0.542 59.58,-0.031 58.598,0.317C57.615,0.665 56.36,0.839 54.832,0.839C53.454,0.839 52.311,0.692 51.404,0.399C50.496,0.106 49.776,-0.259 49.244,-0.696C48.712,-1.133 48.333,-1.586 48.108,-2.057C47.883,-2.528 47.771,-2.947 47.771,-3.316L47.443,-3.316C47.361,-2.756 47.126,-2.224 46.737,-1.719C46.348,-1.214 45.809,-0.768 45.12,-0.379C44.431,0.01 43.606,0.324 42.644,0.563C41.682,0.802 40.587,0.921 39.359,0.921C38.185,0.921 37.117,0.808 36.155,0.583C35.193,0.358 34.375,0.003 33.699,-0.481C33.024,-0.965 32.499,-1.593 32.123,-2.364C31.748,-3.135 31.561,-4.053 31.561,-5.117C31.561,-6.427 31.929,-7.46 32.666,-8.218C33.403,-8.975 34.33,-9.575 35.449,-10.019C36.568,-10.462 37.786,-10.824 39.103,-11.104C40.419,-11.383 41.637,-11.721 42.756,-12.117C43.875,-12.512 44.803,-13.024 45.54,-13.652C46.277,-14.279 46.645,-15.166 46.645,-16.312C46.645,-17.336 46.324,-18.158 45.683,-18.779C45.042,-19.4 43.991,-19.71 42.531,-19.71ZM46.645,-10.848C46.345,-10.411 45.97,-10.06 45.519,-9.794C45.069,-9.528 44.636,-9.268 44.22,-9.016C43.803,-8.763 43.442,-8.463 43.135,-8.115C42.828,-7.767 42.674,-7.3 42.674,-6.713C42.674,-6.263 42.797,-5.857 43.043,-5.495C43.288,-5.134 43.766,-4.953 44.475,-4.953C45.117,-4.953 45.639,-5.202 46.041,-5.7C46.444,-6.198 46.645,-6.897 46.645,-7.798L46.645,-10.848Z" style="fill:white;fill-rule:nonzero;"/>
                    <path d="M92.594,-9.231C92.594,-8.576 92.782,-8.139 93.157,-7.921C93.532,-7.703 93.958,-7.593 94.436,-7.593L95.521,-7.593L95.521,0L83.363,0L83.363,-5.608L83.036,-5.608C82.722,-3.52 81.869,-1.938 80.477,-0.86C79.086,0.218 77.059,0.757 74.399,0.757C72.529,0.757 71.008,0.491 69.834,-0.041C68.661,-0.573 67.754,-1.245 67.112,-2.057C66.471,-2.869 66.031,-3.749 65.792,-4.697C65.553,-5.646 65.434,-6.536 65.434,-7.368L65.434,-12.956C65.434,-13.679 65.308,-14.194 65.055,-14.501C64.803,-14.808 64.315,-14.962 63.592,-14.962L62.364,-14.962L62.364,-22.555L76.67,-22.555L76.67,-9.64C76.67,-9.108 76.732,-8.682 76.855,-8.361C76.977,-8.04 77.138,-7.795 77.336,-7.624C77.533,-7.454 77.759,-7.341 78.011,-7.286C78.263,-7.232 78.499,-7.204 78.717,-7.204C79.618,-7.204 80.283,-7.464 80.713,-7.982C81.143,-8.501 81.357,-9.238 81.357,-10.193L81.357,-12.956C81.357,-13.679 81.231,-14.194 80.979,-14.501C80.726,-14.808 80.239,-14.962 79.515,-14.962L78.308,-14.962L78.308,-22.555L92.594,-22.555L92.594,-9.231Z" style="fill:white;fill-rule:nonzero;"/>
                    <path d="M112.488,-17.95C111.315,-17.95 110.414,-17.452 109.787,-16.456C109.159,-15.46 108.845,-13.802 108.845,-11.482C108.845,-9.163 109.169,-7.515 109.817,-6.539C110.465,-5.564 111.458,-5.076 112.795,-5.076C113.177,-5.076 113.566,-5.137 113.962,-5.26C114.358,-5.383 114.716,-5.564 115.036,-5.802C115.357,-6.041 115.623,-6.348 115.835,-6.724C116.046,-7.099 116.165,-7.539 116.193,-8.044L122.804,-8.044C122.367,-5.001 121.142,-2.753 119.13,-1.3C117.117,0.154 114.248,0.88 110.523,0.88C108.654,0.88 106.907,0.634 105.284,0.143C103.66,-0.348 102.248,-1.095 101.047,-2.098C99.846,-3.101 98.905,-4.363 98.223,-5.884C97.54,-7.406 97.199,-9.217 97.199,-11.318C97.199,-13.324 97.54,-15.084 98.223,-16.599C98.905,-18.114 99.863,-19.379 101.098,-20.396C102.333,-21.412 103.793,-22.18 105.478,-22.698C107.163,-23.217 109.016,-23.476 111.035,-23.476C113.177,-23.476 114.985,-23.21 116.459,-22.678C117.932,-22.146 119.123,-21.48 120.03,-20.682C120.938,-19.884 121.586,-19.024 121.975,-18.103C122.364,-17.182 122.558,-16.319 122.558,-15.514C122.558,-14.873 122.466,-14.245 122.282,-13.631C122.098,-13.017 121.797,-12.458 121.381,-11.953C120.965,-11.448 120.436,-11.042 119.795,-10.735C119.154,-10.428 118.369,-10.275 117.441,-10.275C116.554,-10.275 115.831,-10.401 115.272,-10.653C114.712,-10.906 114.279,-11.219 113.972,-11.595C113.665,-11.97 113.447,-12.366 113.317,-12.782C113.187,-13.198 113.123,-13.59 113.123,-13.959C113.123,-14.791 113.321,-15.453 113.716,-15.944C114.112,-16.435 114.569,-16.776 115.088,-16.967C114.787,-17.199 114.484,-17.421 114.177,-17.633C113.87,-17.844 113.307,-17.95 112.488,-17.95Z" style="fill:white;fill-rule:nonzero;"/>
                    <path d="M136.292,-10.009C136.346,-7.975 136.732,-6.573 137.448,-5.802C138.164,-5.032 139.191,-4.646 140.528,-4.646C140.979,-4.646 141.419,-4.711 141.849,-4.841C142.278,-4.97 142.677,-5.182 143.046,-5.475C143.414,-5.768 143.732,-6.157 143.998,-6.642C144.264,-7.126 144.438,-7.737 144.52,-8.473L151.97,-8.473C151.697,-6.713 151.195,-5.24 150.465,-4.053C149.735,-2.865 148.797,-1.907 147.651,-1.177C146.505,-0.447 145.171,0.078 143.65,0.399C142.128,0.72 140.433,0.88 138.564,0.88C136.64,0.88 134.832,0.634 133.14,0.143C131.448,-0.348 129.964,-1.095 128.688,-2.098C127.412,-3.101 126.413,-4.363 125.69,-5.884C124.966,-7.406 124.605,-9.217 124.605,-11.318C124.605,-13.324 124.946,-15.084 125.628,-16.599C126.31,-18.114 127.269,-19.379 128.504,-20.396C129.739,-21.412 131.199,-22.18 132.884,-22.698C134.569,-23.217 136.421,-23.476 138.441,-23.476C140.924,-23.476 143.06,-23.148 144.847,-22.494C146.634,-21.839 148.094,-20.924 149.227,-19.751C150.359,-18.577 151.192,-17.165 151.724,-15.514C152.256,-13.863 152.509,-12.028 152.481,-10.009L136.292,-10.009ZM139.321,-17.95C138.366,-17.95 137.66,-17.612 137.202,-16.937C136.745,-16.261 136.442,-15.146 136.292,-13.59L142.289,-13.59C142.207,-14.927 141.92,-15.988 141.429,-16.773C140.938,-17.558 140.235,-17.95 139.321,-17.95Z" style="fill:white;fill-rule:nonzero;"/>
                    <path d="M172.846,1.678C172.382,2.688 171.905,3.766 171.414,4.912C170.922,6.058 170.278,7.119 169.479,8.095C168.681,9.07 167.654,9.879 166.399,10.52C165.144,11.161 163.506,11.482 161.487,11.482C160.068,11.482 158.826,11.301 157.762,10.94C156.698,10.578 155.817,10.09 155.122,9.476C154.426,8.862 153.911,8.156 153.576,7.358C153.242,6.56 153.075,5.744 153.075,4.912C153.075,3.261 153.583,1.961 154.6,1.013C155.616,0.065 156.882,-0.409 158.396,-0.409C159.283,-0.409 160.027,-0.28 160.627,-0.02C161.228,0.239 161.719,0.573 162.101,0.982C162.483,1.392 162.749,1.842 162.899,2.333C163.049,2.824 163.124,3.288 163.124,3.725C163.124,4.707 162.882,5.458 162.398,5.976C161.913,6.495 161.33,6.822 160.648,6.959C160.702,7.013 160.791,7.054 160.914,7.082C161.078,7.164 161.412,7.204 161.917,7.204C162.394,7.204 162.821,7.085 163.196,6.846C163.571,6.608 163.912,6.314 164.219,5.966C164.526,5.618 164.792,5.243 165.017,4.841C165.243,4.438 165.423,4.066 165.56,3.725L165.601,3.602L156.882,-13.201C156.745,-13.515 156.599,-13.781 156.442,-14C156.285,-14.218 156.094,-14.399 155.869,-14.542C155.643,-14.685 155.364,-14.791 155.029,-14.859C154.695,-14.927 154.276,-14.962 153.771,-14.962L153.771,-22.555L170.206,-22.555L170.206,-14.962C169.346,-14.962 168.783,-14.835 168.517,-14.583C168.251,-14.331 168.227,-13.938 168.446,-13.406L170.922,-8.126L173.317,-13.406C173.535,-13.884 173.511,-14.262 173.245,-14.542C172.979,-14.822 172.416,-14.962 171.557,-14.962L171.557,-22.555L182.957,-22.555L182.957,-14.962C181.947,-14.962 181.241,-14.822 180.839,-14.542C180.436,-14.262 180.092,-13.815 179.805,-13.201L172.846,1.678Z" style="fill:white;fill-rule:nonzero;"/>
                </g>
            </g>
        </g>
    </g>
</svg>
