<?xml version="1.0" encoding="UTF-8" standalone="no"?>
<!DOCTYPE svg PUBLIC "-//W3C//DTD SVG 1.1//EN" "http://www.w3.org/Graphics/SVG/1.1/DTD/svg11.dtd">
<svg width="100%" height="100%" viewBox="0 0 1812 49" version="1.1" xmlns="http://www.w3.org/2000/svg" xmlns:xlink="http://www.w3.org/1999/xlink" xml:space="preserve" xmlns:serif="http://www.serif.com/" style="fill-rule:evenodd;clip-rule:evenodd;stroke-linejoin:round;stroke-miterlimit:2;">
    <g transform="matrix(1,0,0,1,-20928,-15420.7)">
        <g transform="matrix(0.525857,0,0,1,21075.3,-198.616)">
            <g transform="matrix(5.23388,0,0,2.75227,-48703.5,-19049.9)">
                <g transform="matrix(0.735166,0,0,0.735166,9226.18,12536.2)">
                    <g transform="matrix(40.8071,0,0,40.8071,162.62,105.061)">
                    </g>
                    <text x="33.384px" y="105.061px" style="font-family:'Ultra-Regular', 'Ultra', serif;font-size:40.807px;fill:white;">nano</text>
                </g>
                <g transform="matrix(0.735166,0,0,0.735166,9367.39,12536.2)">
                    <g transform="matrix(40.8071,0,0,40.8071,162.62,105.061)">
                    </g>
                    <text x="33.384px" y="105.061px" style="font-family:'Ultra-Regular', 'Ultra', serif;font-size:40.807px;fill:white;">nano</text>
                </g>
                <g transform="matrix(0.735166,0,0,0.735166,9508.6,12536.2)">
                    <g transform="matrix(40.8071,0,0,40.8071,162.62,105.061)">
                    </g>
                    <text x="33.384px" y="105.061px" style="font-family:'Ultra-Regular', 'Ultra', serif;font-size:40.807px;fill:white;">nano</text>
                </g>
                <g transform="matrix(0.735166,0,0,0.735166,9649.8,12536.2)">
                    <g transform="matrix(40.8071,0,0,40.8071,162.62,105.061)">
                    </g>
                    <text x="33.384px" y="105.061px" style="font-family:'Ultra-Regular', 'Ultra', serif;font-size:40.807px;fill:white;">nano</text>
                </g>
                <g transform="matrix(0.735166,0,0,0.735166,9791.01,12536.2)">
                    <g transform="matrix(40.8071,0,0,40.8071,162.62,105.061)">
                    </g>
                    <text x="33.384px" y="105.061px" style="font-family:'Ultra-Regular', 'Ultra', serif;font-size:40.807px;fill:white;">nano</text>
                </g>
            </g>
        </g>
    </g>
</svg>
