<?xml version="1.0" encoding="UTF-8" standalone="no"?>
<!DOCTYPE svg PUBLIC "-//W3C//DTD SVG 1.1//EN" "http://www.w3.org/Graphics/SVG/1.1/DTD/svg11.dtd">
<svg width="100%" height="100%" viewBox="0 0 1776 98" version="1.1" xmlns="http://www.w3.org/2000/svg" xmlns:xlink="http://www.w3.org/1999/xlink" xml:space="preserve" xmlns:serif="http://www.serif.com/" style="fill-rule:evenodd;clip-rule:evenodd;stroke-linejoin:round;stroke-miterlimit:2;">
    <g transform="matrix(1,0,0,1,-21041.2,-15278)">
        <g transform="matrix(0.525857,0,0,1,21075.3,-198.616)">
            <g transform="matrix(1,0,0,1,4.90174,37.5355)">
                <g transform="matrix(3.83719,0,0,2.01781,-202.477,15300.5)">
                    <g transform="matrix(47.8457,0,0,47.8457,205.54,105.061)">
                    </g>
                    <text x="33.384px" y="105.061px" style="font-family:'Ultra-Regular', 'Ultra', serif;font-size:47.846px;">pizza</text>
                </g>
                <g transform="matrix(3.83719,0,0,2.01781,491.217,15300.5)">
                    <g transform="matrix(47.8457,0,0,47.8457,205.54,105.061)">
                    </g>
                    <text x="33.384px" y="105.061px" style="font-family:'Ultra-Regular', 'Ultra', serif;font-size:47.846px;">pizza</text>
                </g>
                <g transform="matrix(3.83719,0,0,2.01781,1184.91,15300.5)">
                    <g transform="matrix(47.8457,0,0,47.8457,205.54,105.061)">
                    </g>
                    <text x="33.384px" y="105.061px" style="font-family:'Ultra-Regular', 'Ultra', serif;font-size:47.846px;">pizza</text>
                </g>
                <g transform="matrix(3.83719,0,0,2.01781,1878.61,15300.5)">
                    <g transform="matrix(47.8457,0,0,47.8457,205.54,105.061)">
                    </g>
                    <text x="33.384px" y="105.061px" style="font-family:'Ultra-Regular', 'Ultra', serif;font-size:47.846px;">pizza</text>
                </g>
                <g transform="matrix(3.83719,0,0,2.01781,2572.3,15300.5)">
                    <g transform="matrix(47.8457,0,0,47.8457,205.54,105.061)">
                    </g>
                    <text x="33.384px" y="105.061px" style="font-family:'Ultra-Regular', 'Ultra', serif;font-size:47.846px;fill:rgb(239,157,82);">pizza</text>
                </g>
            </g>
        </g>
    </g>
</svg>
