<?xml version="1.0" encoding="UTF-8" standalone="no"?>
<!DOCTYPE svg PUBLIC "-//W3C//DTD SVG 1.1//EN" "http://www.w3.org/Graphics/SVG/1.1/DTD/svg11.dtd">
<svg width="100%" height="100%" viewBox="0 0 1950 49" version="1.1" xmlns="http://www.w3.org/2000/svg" xmlns:xlink="http://www.w3.org/1999/xlink" xml:space="preserve" xmlns:serif="http://www.serif.com/" style="fill-rule:evenodd;clip-rule:evenodd;stroke-linejoin:round;stroke-miterlimit:2;">
    <g transform="matrix(1,0,0,1,-23123,-15468)">
        <g>
            <g transform="matrix(0.861334,0,0,0.195032,3396.95,12545.3)">
                <rect x="22901.7" y="14985.7" width="2263.38" height="246.407" style="fill:none;"/>
            </g>
            <g transform="matrix(2.75227,0,0,2.75227,-2271.57,-19201.2)">
                <g transform="matrix(0.735166,0,0,0.735166,9226.18,12536.2)">
                    <g transform="matrix(40.8071,0,0,40.8071,162.62,105.061)">
                    </g>
                    <text x="33.384px" y="105.061px" style="font-family:'Ultra', serif;font-size:40.807px;fill:white;">nano</text>
                </g>
                <g transform="matrix(0.735166,0,0,0.735166,9367.39,12536.2)">
                    <g transform="matrix(40.8071,0,0,40.8071,162.62,105.061)">
                    </g>
                    <text x="33.384px" y="105.061px" style="font-family:'Ultra', serif;font-size:40.807px;fill:white;">nano</text>
                </g>
                <g transform="matrix(0.735166,0,0,0.735166,9508.6,12536.2)">
                    <g transform="matrix(40.8071,0,0,40.8071,162.62,105.061)">
                    </g>
                    <text x="33.384px" y="105.061px" style="font-family:'Ultra', serif;font-size:40.807px;fill:white;">nano</text>
                </g>
                <g transform="matrix(0.735166,0,0,0.735166,9649.8,12536.2)">
                    <g transform="matrix(40.8071,0,0,40.8071,162.62,105.061)">
                    </g>
                    <text x="33.384px" y="105.061px" style="font-family:'Ultra', serif;font-size:40.807px;fill:white;">nano</text>
                </g>
                <g transform="matrix(0.735166,0,0,0.735166,9791.01,12536.2)">
                    <g transform="matrix(40.8071,0,0,40.8071,162.62,105.061)">
                    </g>
                    <text x="33.384px" y="105.061px" style="font-family:'Ultra', serif;font-size:40.807px;fill:white;">nano</text>
                </g>
            </g>
        </g>
    </g>
</svg>
