<?xml version="1.0" encoding="UTF-8" standalone="no"?>
<!DOCTYPE svg PUBLIC "-//W3C//DTD SVG 1.1//EN" "http://www.w3.org/Graphics/SVG/1.1/DTD/svg11.dtd">
<svg width="100%" height="100%" viewBox="0 0 1868 98" version="1.1" xmlns="http://www.w3.org/2000/svg" xmlns:xlink="http://www.w3.org/1999/xlink" xml:space="preserve" xmlns:serif="http://www.serif.com/" style="fill-rule:evenodd;clip-rule:evenodd;stroke-linejoin:round;stroke-miterlimit:2;">
    <g transform="matrix(1,0,0,1,-37446,-30173.7)">
        <g transform="matrix(1,0,0,1,-0.62358,-0.149198)">
            <g transform="matrix(1,0,0,1,14386.2,14993.3)">
                <g transform="matrix(0.825215,0,0,0.384347,4161.62,9422.22)">
                    <rect x="22901.7" y="14985.7" width="2263.38" height="246.407" style="fill:none;"/>
                </g>
                <g transform="matrix(2.01781,0,0,2.01781,23104,15253.9)">
                    <path d="M25.699,0.771C24.702,0.771 23.814,0.72 23.035,0.619C22.256,0.518 21.548,0.374 20.909,0.187C20.271,0 19.663,-0.222 19.087,-0.479C18.511,-0.736 17.934,-1.005 17.358,-1.285L17.358,1.005C17.358,1.83 17.502,2.418 17.79,2.768C18.079,3.119 18.643,3.294 19.484,3.294L20.863,3.294L20.863,11.961L1.191,11.961L1.191,3.294L2.593,3.294C3.232,3.294 3.719,3.088 4.053,2.675C4.388,2.262 4.556,1.768 4.556,1.191L4.556,-15.209C4.556,-15.941 4.338,-16.435 3.902,-16.692C3.465,-16.949 2.975,-17.078 2.43,-17.078L1.191,-17.078L1.191,-25.745L16.354,-25.745L16.354,-20.956L16.751,-20.956C17.327,-22.576 18.347,-23.915 19.811,-24.974C21.275,-26.033 23.284,-26.563 25.839,-26.563C29.499,-26.563 32.361,-25.407 34.424,-23.094C36.488,-20.781 37.52,-17.389 37.52,-12.919C37.52,-8.449 36.465,-5.05 34.354,-2.722C32.244,-0.393 29.359,0.771 25.699,0.771ZM24.203,-12.686C24.203,-13.511 24.157,-14.298 24.063,-15.045C23.97,-15.793 23.795,-16.447 23.538,-17.008C23.281,-17.568 22.938,-18.008 22.51,-18.328C22.081,-18.647 21.517,-18.807 20.816,-18.807C20.115,-18.807 19.539,-18.655 19.087,-18.351C18.635,-18.047 18.285,-17.631 18.036,-17.101C17.787,-16.572 17.611,-15.941 17.51,-15.209C17.409,-14.477 17.358,-13.698 17.358,-12.873L17.358,-7.126C17.623,-6.721 18.114,-6.397 18.83,-6.156C19.546,-5.915 20.208,-5.794 20.816,-5.794C21.517,-5.794 22.081,-5.992 22.51,-6.39C22.938,-6.787 23.281,-7.312 23.538,-7.967C23.795,-8.621 23.97,-9.36 24.063,-10.186C24.157,-11.011 24.203,-11.845 24.203,-12.686Z" style="fill-rule:nonzero;"/>
                    <path d="M56.7,-25.745L56.7,-11.191C56.7,-10.147 56.957,-9.466 57.471,-9.146C57.985,-8.827 58.639,-8.667 59.434,-8.667L60.064,-8.667L60.064,0L40.393,0L40.393,-8.667L41.305,-8.667C42.13,-8.667 42.741,-8.928 43.138,-9.45C43.536,-9.972 43.734,-10.536 43.734,-11.144L43.734,-14.438C43.734,-15.341 43.45,-16.007 42.882,-16.435C42.313,-16.864 41.655,-17.078 40.907,-17.078L40.393,-17.078L40.393,-25.745L56.7,-25.745ZM43.36,-31.492C43.36,-32.832 43.871,-33.977 44.891,-34.927C45.911,-35.877 47.363,-36.352 49.248,-36.352C51.163,-36.352 52.639,-35.877 53.675,-34.927C54.711,-33.977 55.228,-32.832 55.228,-31.492C55.228,-30.122 54.711,-28.965 53.675,-28.023C52.639,-27.081 51.163,-26.61 49.248,-26.61C47.363,-26.61 45.911,-27.081 44.891,-28.023C43.871,-28.965 43.36,-30.122 43.36,-31.492Z" style="fill-rule:nonzero;"/>
                    <path d="M81.114,-6.705C82.033,-6.705 82.644,-6.88 82.948,-7.231C83.252,-7.581 83.403,-8.138 83.403,-8.901L83.403,-10.233L90.108,-10.233L90.108,0L61.723,0L61.723,-6.705L74.175,-19.04L70.951,-19.04C70.032,-19.04 69.421,-18.881 69.117,-18.561C68.814,-18.242 68.662,-17.639 68.662,-16.751L68.662,-15.559L61.957,-15.559L61.957,-25.745L89.968,-25.745L89.968,-19.04L77.61,-6.705L81.114,-6.705Z" style="fill-rule:nonzero;"/>
                    <path d="M111.882,-6.705C112.801,-6.705 113.412,-6.88 113.716,-7.231C114.02,-7.581 114.172,-8.138 114.172,-8.901L114.172,-10.233L120.877,-10.233L120.877,0L92.491,0L92.491,-6.705L104.943,-19.04L101.719,-19.04C100.801,-19.04 100.189,-18.881 99.886,-18.561C99.582,-18.242 99.43,-17.639 99.43,-16.751L99.43,-15.559L92.725,-15.559L92.725,-25.745L120.736,-25.745L120.736,-19.04L108.378,-6.705L111.882,-6.705Z" style="fill-rule:nonzero;"/>
                    <path d="M135.501,-22.498C134.707,-22.498 134.026,-22.439 133.457,-22.323C132.889,-22.206 132.402,-22.07 131.997,-21.914C131.592,-21.758 131.257,-21.583 130.992,-21.388C130.728,-21.194 130.494,-21.018 130.292,-20.863L130.525,-20.629C130.821,-20.785 131.144,-20.94 131.495,-21.096C131.845,-21.252 132.293,-21.33 132.838,-21.33C133.757,-21.33 134.551,-21.03 135.221,-20.43C135.891,-19.831 136.226,-18.877 136.226,-17.568C136.226,-16.322 135.716,-15.322 134.695,-14.566C133.675,-13.811 132.309,-13.433 130.595,-13.433C128.96,-13.433 127.656,-13.904 126.682,-14.847C125.709,-15.789 125.222,-17.125 125.222,-18.853C125.222,-19.803 125.487,-20.75 126.016,-21.692C126.546,-22.634 127.367,-23.479 128.481,-24.227C129.595,-24.974 131.012,-25.59 132.733,-26.072C134.454,-26.555 136.529,-26.797 138.959,-26.797C141.856,-26.797 144.223,-26.524 146.061,-25.979C147.899,-25.434 149.328,-24.733 150.348,-23.876C151.368,-23.02 152.069,-22.046 152.451,-20.956C152.832,-19.866 153.023,-18.768 153.023,-17.662L153.023,-8.527C153.023,-7.11 153.07,-6.148 153.163,-5.642C153.257,-5.136 153.607,-4.883 154.215,-4.883C154.697,-4.883 155.036,-5.112 155.231,-5.572C155.426,-6.031 155.523,-6.822 155.523,-7.943L155.523,-10.863L158.186,-10.863L158.186,-7.896C158.186,-6.495 158.069,-5.253 157.836,-4.17C157.602,-3.088 157.158,-2.161 156.504,-1.39C155.85,-0.619 154.962,-0.035 153.841,0.362C152.719,0.759 151.286,0.958 149.542,0.958C147.969,0.958 146.665,0.79 145.629,0.456C144.593,0.121 143.772,-0.296 143.164,-0.794C142.557,-1.293 142.125,-1.811 141.868,-2.348C141.611,-2.885 141.482,-3.364 141.482,-3.785L141.108,-3.785C141.015,-3.146 140.746,-2.539 140.302,-1.962C139.858,-1.386 139.243,-0.876 138.457,-0.432C137.67,0.012 136.728,0.37 135.63,0.642C134.532,0.915 133.282,1.051 131.88,1.051C130.541,1.051 129.322,0.923 128.224,0.666C127.126,0.409 126.191,0.004 125.421,-0.549C124.65,-1.102 124.05,-1.818 123.622,-2.698C123.193,-3.578 122.979,-4.626 122.979,-5.841C122.979,-7.336 123.4,-8.516 124.241,-9.38C125.082,-10.244 126.141,-10.93 127.418,-11.436C128.695,-11.942 130.085,-12.355 131.588,-12.674C133.091,-12.993 134.481,-13.379 135.758,-13.83C137.035,-14.282 138.095,-14.866 138.936,-15.583C139.777,-16.299 140.197,-17.311 140.197,-18.62C140.197,-19.788 139.831,-20.726 139.099,-21.435C138.367,-22.144 137.168,-22.498 135.501,-22.498ZM140.197,-12.382C139.855,-11.884 139.426,-11.483 138.912,-11.179C138.398,-10.875 137.904,-10.579 137.429,-10.291C136.954,-10.003 136.541,-9.66 136.191,-9.263C135.84,-8.866 135.665,-8.333 135.665,-7.663C135.665,-7.149 135.805,-6.686 136.085,-6.273C136.366,-5.86 136.911,-5.654 137.721,-5.654C138.453,-5.654 139.049,-5.938 139.508,-6.506C139.967,-7.075 140.197,-7.873 140.197,-8.901L140.197,-12.382Z" style="fill-rule:nonzero;"/>
                </g>
                <g transform="matrix(2.01781,0,0,2.01781,23468.8,15253.9)">
                    <path d="M25.699,0.771C24.702,0.771 23.814,0.72 23.035,0.619C22.256,0.518 21.548,0.374 20.909,0.187C20.271,0 19.663,-0.222 19.087,-0.479C18.511,-0.736 17.934,-1.005 17.358,-1.285L17.358,1.005C17.358,1.83 17.502,2.418 17.79,2.768C18.079,3.119 18.643,3.294 19.484,3.294L20.863,3.294L20.863,11.961L1.191,11.961L1.191,3.294L2.593,3.294C3.232,3.294 3.719,3.088 4.053,2.675C4.388,2.262 4.556,1.768 4.556,1.191L4.556,-15.209C4.556,-15.941 4.338,-16.435 3.902,-16.692C3.465,-16.949 2.975,-17.078 2.43,-17.078L1.191,-17.078L1.191,-25.745L16.354,-25.745L16.354,-20.956L16.751,-20.956C17.327,-22.576 18.347,-23.915 19.811,-24.974C21.275,-26.033 23.284,-26.563 25.839,-26.563C29.499,-26.563 32.361,-25.407 34.424,-23.094C36.488,-20.781 37.52,-17.389 37.52,-12.919C37.52,-8.449 36.465,-5.05 34.354,-2.722C32.244,-0.393 29.359,0.771 25.699,0.771ZM24.203,-12.686C24.203,-13.511 24.157,-14.298 24.063,-15.045C23.97,-15.793 23.795,-16.447 23.538,-17.008C23.281,-17.568 22.938,-18.008 22.51,-18.328C22.081,-18.647 21.517,-18.807 20.816,-18.807C20.115,-18.807 19.539,-18.655 19.087,-18.351C18.635,-18.047 18.285,-17.631 18.036,-17.101C17.787,-16.572 17.611,-15.941 17.51,-15.209C17.409,-14.477 17.358,-13.698 17.358,-12.873L17.358,-7.126C17.623,-6.721 18.114,-6.397 18.83,-6.156C19.546,-5.915 20.208,-5.794 20.816,-5.794C21.517,-5.794 22.081,-5.992 22.51,-6.39C22.938,-6.787 23.281,-7.312 23.538,-7.967C23.795,-8.621 23.97,-9.36 24.063,-10.186C24.157,-11.011 24.203,-11.845 24.203,-12.686Z" style="fill-rule:nonzero;"/>
                    <path d="M56.7,-25.745L56.7,-11.191C56.7,-10.147 56.957,-9.466 57.471,-9.146C57.985,-8.827 58.639,-8.667 59.434,-8.667L60.064,-8.667L60.064,0L40.393,0L40.393,-8.667L41.305,-8.667C42.13,-8.667 42.741,-8.928 43.138,-9.45C43.536,-9.972 43.734,-10.536 43.734,-11.144L43.734,-14.438C43.734,-15.341 43.45,-16.007 42.882,-16.435C42.313,-16.864 41.655,-17.078 40.907,-17.078L40.393,-17.078L40.393,-25.745L56.7,-25.745ZM43.36,-31.492C43.36,-32.832 43.871,-33.977 44.891,-34.927C45.911,-35.877 47.363,-36.352 49.248,-36.352C51.163,-36.352 52.639,-35.877 53.675,-34.927C54.711,-33.977 55.228,-32.832 55.228,-31.492C55.228,-30.122 54.711,-28.965 53.675,-28.023C52.639,-27.081 51.163,-26.61 49.248,-26.61C47.363,-26.61 45.911,-27.081 44.891,-28.023C43.871,-28.965 43.36,-30.122 43.36,-31.492Z" style="fill-rule:nonzero;"/>
                    <path d="M81.114,-6.705C82.033,-6.705 82.644,-6.88 82.948,-7.231C83.252,-7.581 83.403,-8.138 83.403,-8.901L83.403,-10.233L90.108,-10.233L90.108,0L61.723,0L61.723,-6.705L74.175,-19.04L70.951,-19.04C70.032,-19.04 69.421,-18.881 69.117,-18.561C68.814,-18.242 68.662,-17.639 68.662,-16.751L68.662,-15.559L61.957,-15.559L61.957,-25.745L89.968,-25.745L89.968,-19.04L77.61,-6.705L81.114,-6.705Z" style="fill-rule:nonzero;"/>
                    <path d="M111.882,-6.705C112.801,-6.705 113.412,-6.88 113.716,-7.231C114.02,-7.581 114.172,-8.138 114.172,-8.901L114.172,-10.233L120.877,-10.233L120.877,0L92.491,0L92.491,-6.705L104.943,-19.04L101.719,-19.04C100.801,-19.04 100.189,-18.881 99.886,-18.561C99.582,-18.242 99.43,-17.639 99.43,-16.751L99.43,-15.559L92.725,-15.559L92.725,-25.745L120.736,-25.745L120.736,-19.04L108.378,-6.705L111.882,-6.705Z" style="fill-rule:nonzero;"/>
                    <path d="M135.501,-22.498C134.707,-22.498 134.026,-22.439 133.457,-22.323C132.889,-22.206 132.402,-22.07 131.997,-21.914C131.592,-21.758 131.257,-21.583 130.992,-21.388C130.728,-21.194 130.494,-21.018 130.292,-20.863L130.525,-20.629C130.821,-20.785 131.144,-20.94 131.495,-21.096C131.845,-21.252 132.293,-21.33 132.838,-21.33C133.757,-21.33 134.551,-21.03 135.221,-20.43C135.891,-19.831 136.226,-18.877 136.226,-17.568C136.226,-16.322 135.716,-15.322 134.695,-14.566C133.675,-13.811 132.309,-13.433 130.595,-13.433C128.96,-13.433 127.656,-13.904 126.682,-14.847C125.709,-15.789 125.222,-17.125 125.222,-18.853C125.222,-19.803 125.487,-20.75 126.016,-21.692C126.546,-22.634 127.367,-23.479 128.481,-24.227C129.595,-24.974 131.012,-25.59 132.733,-26.072C134.454,-26.555 136.529,-26.797 138.959,-26.797C141.856,-26.797 144.223,-26.524 146.061,-25.979C147.899,-25.434 149.328,-24.733 150.348,-23.876C151.368,-23.02 152.069,-22.046 152.451,-20.956C152.832,-19.866 153.023,-18.768 153.023,-17.662L153.023,-8.527C153.023,-7.11 153.07,-6.148 153.163,-5.642C153.257,-5.136 153.607,-4.883 154.215,-4.883C154.697,-4.883 155.036,-5.112 155.231,-5.572C155.426,-6.031 155.523,-6.822 155.523,-7.943L155.523,-10.863L158.186,-10.863L158.186,-7.896C158.186,-6.495 158.069,-5.253 157.836,-4.17C157.602,-3.088 157.158,-2.161 156.504,-1.39C155.85,-0.619 154.962,-0.035 153.841,0.362C152.719,0.759 151.286,0.958 149.542,0.958C147.969,0.958 146.665,0.79 145.629,0.456C144.593,0.121 143.772,-0.296 143.164,-0.794C142.557,-1.293 142.125,-1.811 141.868,-2.348C141.611,-2.885 141.482,-3.364 141.482,-3.785L141.108,-3.785C141.015,-3.146 140.746,-2.539 140.302,-1.962C139.858,-1.386 139.243,-0.876 138.457,-0.432C137.67,0.012 136.728,0.37 135.63,0.642C134.532,0.915 133.282,1.051 131.88,1.051C130.541,1.051 129.322,0.923 128.224,0.666C127.126,0.409 126.191,0.004 125.421,-0.549C124.65,-1.102 124.05,-1.818 123.622,-2.698C123.193,-3.578 122.979,-4.626 122.979,-5.841C122.979,-7.336 123.4,-8.516 124.241,-9.38C125.082,-10.244 126.141,-10.93 127.418,-11.436C128.695,-11.942 130.085,-12.355 131.588,-12.674C133.091,-12.993 134.481,-13.379 135.758,-13.83C137.035,-14.282 138.095,-14.866 138.936,-15.583C139.777,-16.299 140.197,-17.311 140.197,-18.62C140.197,-19.788 139.831,-20.726 139.099,-21.435C138.367,-22.144 137.168,-22.498 135.501,-22.498ZM140.197,-12.382C139.855,-11.884 139.426,-11.483 138.912,-11.179C138.398,-10.875 137.904,-10.579 137.429,-10.291C136.954,-10.003 136.541,-9.66 136.191,-9.263C135.84,-8.866 135.665,-8.333 135.665,-7.663C135.665,-7.149 135.805,-6.686 136.085,-6.273C136.366,-5.86 136.911,-5.654 137.721,-5.654C138.453,-5.654 139.049,-5.938 139.508,-6.506C139.967,-7.075 140.197,-7.873 140.197,-8.901L140.197,-12.382Z" style="fill-rule:nonzero;"/>
                </g>
                <g transform="matrix(2.01781,0,0,2.01781,23833.6,15253.9)">
                    <path d="M25.699,0.771C24.702,0.771 23.814,0.72 23.035,0.619C22.256,0.518 21.548,0.374 20.909,0.187C20.271,0 19.663,-0.222 19.087,-0.479C18.511,-0.736 17.934,-1.005 17.358,-1.285L17.358,1.005C17.358,1.83 17.502,2.418 17.79,2.768C18.079,3.119 18.643,3.294 19.484,3.294L20.863,3.294L20.863,11.961L1.191,11.961L1.191,3.294L2.593,3.294C3.232,3.294 3.719,3.088 4.053,2.675C4.388,2.262 4.556,1.768 4.556,1.191L4.556,-15.209C4.556,-15.941 4.338,-16.435 3.902,-16.692C3.465,-16.949 2.975,-17.078 2.43,-17.078L1.191,-17.078L1.191,-25.745L16.354,-25.745L16.354,-20.956L16.751,-20.956C17.327,-22.576 18.347,-23.915 19.811,-24.974C21.275,-26.033 23.284,-26.563 25.839,-26.563C29.499,-26.563 32.361,-25.407 34.424,-23.094C36.488,-20.781 37.52,-17.389 37.52,-12.919C37.52,-8.449 36.465,-5.05 34.354,-2.722C32.244,-0.393 29.359,0.771 25.699,0.771ZM24.203,-12.686C24.203,-13.511 24.157,-14.298 24.063,-15.045C23.97,-15.793 23.795,-16.447 23.538,-17.008C23.281,-17.568 22.938,-18.008 22.51,-18.328C22.081,-18.647 21.517,-18.807 20.816,-18.807C20.115,-18.807 19.539,-18.655 19.087,-18.351C18.635,-18.047 18.285,-17.631 18.036,-17.101C17.787,-16.572 17.611,-15.941 17.51,-15.209C17.409,-14.477 17.358,-13.698 17.358,-12.873L17.358,-7.126C17.623,-6.721 18.114,-6.397 18.83,-6.156C19.546,-5.915 20.208,-5.794 20.816,-5.794C21.517,-5.794 22.081,-5.992 22.51,-6.39C22.938,-6.787 23.281,-7.312 23.538,-7.967C23.795,-8.621 23.97,-9.36 24.063,-10.186C24.157,-11.011 24.203,-11.845 24.203,-12.686Z" style="fill-rule:nonzero;"/>
                    <path d="M56.7,-25.745L56.7,-11.191C56.7,-10.147 56.957,-9.466 57.471,-9.146C57.985,-8.827 58.639,-8.667 59.434,-8.667L60.064,-8.667L60.064,0L40.393,0L40.393,-8.667L41.305,-8.667C42.13,-8.667 42.741,-8.928 43.138,-9.45C43.536,-9.972 43.734,-10.536 43.734,-11.144L43.734,-14.438C43.734,-15.341 43.45,-16.007 42.882,-16.435C42.313,-16.864 41.655,-17.078 40.907,-17.078L40.393,-17.078L40.393,-25.745L56.7,-25.745ZM43.36,-31.492C43.36,-32.832 43.871,-33.977 44.891,-34.927C45.911,-35.877 47.363,-36.352 49.248,-36.352C51.163,-36.352 52.639,-35.877 53.675,-34.927C54.711,-33.977 55.228,-32.832 55.228,-31.492C55.228,-30.122 54.711,-28.965 53.675,-28.023C52.639,-27.081 51.163,-26.61 49.248,-26.61C47.363,-26.61 45.911,-27.081 44.891,-28.023C43.871,-28.965 43.36,-30.122 43.36,-31.492Z" style="fill-rule:nonzero;"/>
                    <path d="M81.114,-6.705C82.033,-6.705 82.644,-6.88 82.948,-7.231C83.252,-7.581 83.403,-8.138 83.403,-8.901L83.403,-10.233L90.108,-10.233L90.108,0L61.723,0L61.723,-6.705L74.175,-19.04L70.951,-19.04C70.032,-19.04 69.421,-18.881 69.117,-18.561C68.814,-18.242 68.662,-17.639 68.662,-16.751L68.662,-15.559L61.957,-15.559L61.957,-25.745L89.968,-25.745L89.968,-19.04L77.61,-6.705L81.114,-6.705Z" style="fill-rule:nonzero;"/>
                    <path d="M111.882,-6.705C112.801,-6.705 113.412,-6.88 113.716,-7.231C114.02,-7.581 114.172,-8.138 114.172,-8.901L114.172,-10.233L120.877,-10.233L120.877,0L92.491,0L92.491,-6.705L104.943,-19.04L101.719,-19.04C100.801,-19.04 100.189,-18.881 99.886,-18.561C99.582,-18.242 99.43,-17.639 99.43,-16.751L99.43,-15.559L92.725,-15.559L92.725,-25.745L120.736,-25.745L120.736,-19.04L108.378,-6.705L111.882,-6.705Z" style="fill-rule:nonzero;"/>
                    <path d="M135.501,-22.498C134.707,-22.498 134.026,-22.439 133.457,-22.323C132.889,-22.206 132.402,-22.07 131.997,-21.914C131.592,-21.758 131.257,-21.583 130.992,-21.388C130.728,-21.194 130.494,-21.018 130.292,-20.863L130.525,-20.629C130.821,-20.785 131.144,-20.94 131.495,-21.096C131.845,-21.252 132.293,-21.33 132.838,-21.33C133.757,-21.33 134.551,-21.03 135.221,-20.43C135.891,-19.831 136.226,-18.877 136.226,-17.568C136.226,-16.322 135.716,-15.322 134.695,-14.566C133.675,-13.811 132.309,-13.433 130.595,-13.433C128.96,-13.433 127.656,-13.904 126.682,-14.847C125.709,-15.789 125.222,-17.125 125.222,-18.853C125.222,-19.803 125.487,-20.75 126.016,-21.692C126.546,-22.634 127.367,-23.479 128.481,-24.227C129.595,-24.974 131.012,-25.59 132.733,-26.072C134.454,-26.555 136.529,-26.797 138.959,-26.797C141.856,-26.797 144.223,-26.524 146.061,-25.979C147.899,-25.434 149.328,-24.733 150.348,-23.876C151.368,-23.02 152.069,-22.046 152.451,-20.956C152.832,-19.866 153.023,-18.768 153.023,-17.662L153.023,-8.527C153.023,-7.11 153.07,-6.148 153.163,-5.642C153.257,-5.136 153.607,-4.883 154.215,-4.883C154.697,-4.883 155.036,-5.112 155.231,-5.572C155.426,-6.031 155.523,-6.822 155.523,-7.943L155.523,-10.863L158.186,-10.863L158.186,-7.896C158.186,-6.495 158.069,-5.253 157.836,-4.17C157.602,-3.088 157.158,-2.161 156.504,-1.39C155.85,-0.619 154.962,-0.035 153.841,0.362C152.719,0.759 151.286,0.958 149.542,0.958C147.969,0.958 146.665,0.79 145.629,0.456C144.593,0.121 143.772,-0.296 143.164,-0.794C142.557,-1.293 142.125,-1.811 141.868,-2.348C141.611,-2.885 141.482,-3.364 141.482,-3.785L141.108,-3.785C141.015,-3.146 140.746,-2.539 140.302,-1.962C139.858,-1.386 139.243,-0.876 138.457,-0.432C137.67,0.012 136.728,0.37 135.63,0.642C134.532,0.915 133.282,1.051 131.88,1.051C130.541,1.051 129.322,0.923 128.224,0.666C127.126,0.409 126.191,0.004 125.421,-0.549C124.65,-1.102 124.05,-1.818 123.622,-2.698C123.193,-3.578 122.979,-4.626 122.979,-5.841C122.979,-7.336 123.4,-8.516 124.241,-9.38C125.082,-10.244 126.141,-10.93 127.418,-11.436C128.695,-11.942 130.085,-12.355 131.588,-12.674C133.091,-12.993 134.481,-13.379 135.758,-13.83C137.035,-14.282 138.095,-14.866 138.936,-15.583C139.777,-16.299 140.197,-17.311 140.197,-18.62C140.197,-19.788 139.831,-20.726 139.099,-21.435C138.367,-22.144 137.168,-22.498 135.501,-22.498ZM140.197,-12.382C139.855,-11.884 139.426,-11.483 138.912,-11.179C138.398,-10.875 137.904,-10.579 137.429,-10.291C136.954,-10.003 136.541,-9.66 136.191,-9.263C135.84,-8.866 135.665,-8.333 135.665,-7.663C135.665,-7.149 135.805,-6.686 136.085,-6.273C136.366,-5.86 136.911,-5.654 137.721,-5.654C138.453,-5.654 139.049,-5.938 139.508,-6.506C139.967,-7.075 140.197,-7.873 140.197,-8.901L140.197,-12.382Z" style="fill-rule:nonzero;"/>
                </g>
                <g transform="matrix(2.01781,0,0,2.01781,24198.3,15253.9)">
                    <path d="M25.699,0.771C24.702,0.771 23.814,0.72 23.035,0.619C22.256,0.518 21.548,0.374 20.909,0.187C20.271,0 19.663,-0.222 19.087,-0.479C18.511,-0.736 17.934,-1.005 17.358,-1.285L17.358,1.005C17.358,1.83 17.502,2.418 17.79,2.768C18.079,3.119 18.643,3.294 19.484,3.294L20.863,3.294L20.863,11.961L1.191,11.961L1.191,3.294L2.593,3.294C3.232,3.294 3.719,3.088 4.053,2.675C4.388,2.262 4.556,1.768 4.556,1.191L4.556,-15.209C4.556,-15.941 4.338,-16.435 3.902,-16.692C3.465,-16.949 2.975,-17.078 2.43,-17.078L1.191,-17.078L1.191,-25.745L16.354,-25.745L16.354,-20.956L16.751,-20.956C17.327,-22.576 18.347,-23.915 19.811,-24.974C21.275,-26.033 23.284,-26.563 25.839,-26.563C29.499,-26.563 32.361,-25.407 34.424,-23.094C36.488,-20.781 37.52,-17.389 37.52,-12.919C37.52,-8.449 36.465,-5.05 34.354,-2.722C32.244,-0.393 29.359,0.771 25.699,0.771ZM24.203,-12.686C24.203,-13.511 24.157,-14.298 24.063,-15.045C23.97,-15.793 23.795,-16.447 23.538,-17.008C23.281,-17.568 22.938,-18.008 22.51,-18.328C22.081,-18.647 21.517,-18.807 20.816,-18.807C20.115,-18.807 19.539,-18.655 19.087,-18.351C18.635,-18.047 18.285,-17.631 18.036,-17.101C17.787,-16.572 17.611,-15.941 17.51,-15.209C17.409,-14.477 17.358,-13.698 17.358,-12.873L17.358,-7.126C17.623,-6.721 18.114,-6.397 18.83,-6.156C19.546,-5.915 20.208,-5.794 20.816,-5.794C21.517,-5.794 22.081,-5.992 22.51,-6.39C22.938,-6.787 23.281,-7.312 23.538,-7.967C23.795,-8.621 23.97,-9.36 24.063,-10.186C24.157,-11.011 24.203,-11.845 24.203,-12.686Z" style="fill-rule:nonzero;"/>
                    <path d="M56.7,-25.745L56.7,-11.191C56.7,-10.147 56.957,-9.466 57.471,-9.146C57.985,-8.827 58.639,-8.667 59.434,-8.667L60.064,-8.667L60.064,0L40.393,0L40.393,-8.667L41.305,-8.667C42.13,-8.667 42.741,-8.928 43.138,-9.45C43.536,-9.972 43.734,-10.536 43.734,-11.144L43.734,-14.438C43.734,-15.341 43.45,-16.007 42.882,-16.435C42.313,-16.864 41.655,-17.078 40.907,-17.078L40.393,-17.078L40.393,-25.745L56.7,-25.745ZM43.36,-31.492C43.36,-32.832 43.871,-33.977 44.891,-34.927C45.911,-35.877 47.363,-36.352 49.248,-36.352C51.163,-36.352 52.639,-35.877 53.675,-34.927C54.711,-33.977 55.228,-32.832 55.228,-31.492C55.228,-30.122 54.711,-28.965 53.675,-28.023C52.639,-27.081 51.163,-26.61 49.248,-26.61C47.363,-26.61 45.911,-27.081 44.891,-28.023C43.871,-28.965 43.36,-30.122 43.36,-31.492Z" style="fill-rule:nonzero;"/>
                    <path d="M81.114,-6.705C82.033,-6.705 82.644,-6.88 82.948,-7.231C83.252,-7.581 83.403,-8.138 83.403,-8.901L83.403,-10.233L90.108,-10.233L90.108,0L61.723,0L61.723,-6.705L74.175,-19.04L70.951,-19.04C70.032,-19.04 69.421,-18.881 69.117,-18.561C68.814,-18.242 68.662,-17.639 68.662,-16.751L68.662,-15.559L61.957,-15.559L61.957,-25.745L89.968,-25.745L89.968,-19.04L77.61,-6.705L81.114,-6.705Z" style="fill-rule:nonzero;"/>
                    <path d="M111.882,-6.705C112.801,-6.705 113.412,-6.88 113.716,-7.231C114.02,-7.581 114.172,-8.138 114.172,-8.901L114.172,-10.233L120.877,-10.233L120.877,0L92.491,0L92.491,-6.705L104.943,-19.04L101.719,-19.04C100.801,-19.04 100.189,-18.881 99.886,-18.561C99.582,-18.242 99.43,-17.639 99.43,-16.751L99.43,-15.559L92.725,-15.559L92.725,-25.745L120.736,-25.745L120.736,-19.04L108.378,-6.705L111.882,-6.705Z" style="fill-rule:nonzero;"/>
                    <path d="M135.501,-22.498C134.707,-22.498 134.026,-22.439 133.457,-22.323C132.889,-22.206 132.402,-22.07 131.997,-21.914C131.592,-21.758 131.257,-21.583 130.992,-21.388C130.728,-21.194 130.494,-21.018 130.292,-20.863L130.525,-20.629C130.821,-20.785 131.144,-20.94 131.495,-21.096C131.845,-21.252 132.293,-21.33 132.838,-21.33C133.757,-21.33 134.551,-21.03 135.221,-20.43C135.891,-19.831 136.226,-18.877 136.226,-17.568C136.226,-16.322 135.716,-15.322 134.695,-14.566C133.675,-13.811 132.309,-13.433 130.595,-13.433C128.96,-13.433 127.656,-13.904 126.682,-14.847C125.709,-15.789 125.222,-17.125 125.222,-18.853C125.222,-19.803 125.487,-20.75 126.016,-21.692C126.546,-22.634 127.367,-23.479 128.481,-24.227C129.595,-24.974 131.012,-25.59 132.733,-26.072C134.454,-26.555 136.529,-26.797 138.959,-26.797C141.856,-26.797 144.223,-26.524 146.061,-25.979C147.899,-25.434 149.328,-24.733 150.348,-23.876C151.368,-23.02 152.069,-22.046 152.451,-20.956C152.832,-19.866 153.023,-18.768 153.023,-17.662L153.023,-8.527C153.023,-7.11 153.07,-6.148 153.163,-5.642C153.257,-5.136 153.607,-4.883 154.215,-4.883C154.697,-4.883 155.036,-5.112 155.231,-5.572C155.426,-6.031 155.523,-6.822 155.523,-7.943L155.523,-10.863L158.186,-10.863L158.186,-7.896C158.186,-6.495 158.069,-5.253 157.836,-4.17C157.602,-3.088 157.158,-2.161 156.504,-1.39C155.85,-0.619 154.962,-0.035 153.841,0.362C152.719,0.759 151.286,0.958 149.542,0.958C147.969,0.958 146.665,0.79 145.629,0.456C144.593,0.121 143.772,-0.296 143.164,-0.794C142.557,-1.293 142.125,-1.811 141.868,-2.348C141.611,-2.885 141.482,-3.364 141.482,-3.785L141.108,-3.785C141.015,-3.146 140.746,-2.539 140.302,-1.962C139.858,-1.386 139.243,-0.876 138.457,-0.432C137.67,0.012 136.728,0.37 135.63,0.642C134.532,0.915 133.282,1.051 131.88,1.051C130.541,1.051 129.322,0.923 128.224,0.666C127.126,0.409 126.191,0.004 125.421,-0.549C124.65,-1.102 124.05,-1.818 123.622,-2.698C123.193,-3.578 122.979,-4.626 122.979,-5.841C122.979,-7.336 123.4,-8.516 124.241,-9.38C125.082,-10.244 126.141,-10.93 127.418,-11.436C128.695,-11.942 130.085,-12.355 131.588,-12.674C133.091,-12.993 134.481,-13.379 135.758,-13.83C137.035,-14.282 138.095,-14.866 138.936,-15.583C139.777,-16.299 140.197,-17.311 140.197,-18.62C140.197,-19.788 139.831,-20.726 139.099,-21.435C138.367,-22.144 137.168,-22.498 135.501,-22.498ZM140.197,-12.382C139.855,-11.884 139.426,-11.483 138.912,-11.179C138.398,-10.875 137.904,-10.579 137.429,-10.291C136.954,-10.003 136.541,-9.66 136.191,-9.263C135.84,-8.866 135.665,-8.333 135.665,-7.663C135.665,-7.149 135.805,-6.686 136.085,-6.273C136.366,-5.86 136.911,-5.654 137.721,-5.654C138.453,-5.654 139.049,-5.938 139.508,-6.506C139.967,-7.075 140.197,-7.873 140.197,-8.901L140.197,-12.382Z" style="fill-rule:nonzero;"/>
                </g>
                <g transform="matrix(2.01781,0,0,2.01781,24563.1,15253.9)">
                    <path d="M25.699,0.771C24.702,0.771 23.814,0.72 23.035,0.619C22.256,0.518 21.548,0.374 20.909,0.187C20.271,0 19.663,-0.222 19.087,-0.479C18.511,-0.736 17.934,-1.005 17.358,-1.285L17.358,1.005C17.358,1.83 17.502,2.418 17.79,2.768C18.079,3.119 18.643,3.294 19.484,3.294L20.863,3.294L20.863,11.961L1.191,11.961L1.191,3.294L2.593,3.294C3.232,3.294 3.719,3.088 4.053,2.675C4.388,2.262 4.556,1.768 4.556,1.191L4.556,-15.209C4.556,-15.941 4.338,-16.435 3.902,-16.692C3.465,-16.949 2.975,-17.078 2.43,-17.078L1.191,-17.078L1.191,-25.745L16.354,-25.745L16.354,-20.956L16.751,-20.956C17.327,-22.576 18.347,-23.915 19.811,-24.974C21.275,-26.033 23.284,-26.563 25.839,-26.563C29.499,-26.563 32.361,-25.407 34.424,-23.094C36.488,-20.781 37.52,-17.389 37.52,-12.919C37.52,-8.449 36.465,-5.05 34.354,-2.722C32.244,-0.393 29.359,0.771 25.699,0.771ZM24.203,-12.686C24.203,-13.511 24.157,-14.298 24.063,-15.045C23.97,-15.793 23.795,-16.447 23.538,-17.008C23.281,-17.568 22.938,-18.008 22.51,-18.328C22.081,-18.647 21.517,-18.807 20.816,-18.807C20.115,-18.807 19.539,-18.655 19.087,-18.351C18.635,-18.047 18.285,-17.631 18.036,-17.101C17.787,-16.572 17.611,-15.941 17.51,-15.209C17.409,-14.477 17.358,-13.698 17.358,-12.873L17.358,-7.126C17.623,-6.721 18.114,-6.397 18.83,-6.156C19.546,-5.915 20.208,-5.794 20.816,-5.794C21.517,-5.794 22.081,-5.992 22.51,-6.39C22.938,-6.787 23.281,-7.312 23.538,-7.967C23.795,-8.621 23.97,-9.36 24.063,-10.186C24.157,-11.011 24.203,-11.845 24.203,-12.686Z" style="fill:rgb(239,157,82);fill-rule:nonzero;"/>
                    <path d="M56.7,-25.745L56.7,-11.191C56.7,-10.147 56.957,-9.466 57.471,-9.146C57.985,-8.827 58.639,-8.667 59.434,-8.667L60.064,-8.667L60.064,0L40.393,0L40.393,-8.667L41.305,-8.667C42.13,-8.667 42.741,-8.928 43.138,-9.45C43.536,-9.972 43.734,-10.536 43.734,-11.144L43.734,-14.438C43.734,-15.341 43.45,-16.007 42.882,-16.435C42.313,-16.864 41.655,-17.078 40.907,-17.078L40.393,-17.078L40.393,-25.745L56.7,-25.745ZM43.36,-31.492C43.36,-32.832 43.871,-33.977 44.891,-34.927C45.911,-35.877 47.363,-36.352 49.248,-36.352C51.163,-36.352 52.639,-35.877 53.675,-34.927C54.711,-33.977 55.228,-32.832 55.228,-31.492C55.228,-30.122 54.711,-28.965 53.675,-28.023C52.639,-27.081 51.163,-26.61 49.248,-26.61C47.363,-26.61 45.911,-27.081 44.891,-28.023C43.871,-28.965 43.36,-30.122 43.36,-31.492Z" style="fill:rgb(239,157,82);fill-rule:nonzero;"/>
                    <path d="M81.114,-6.705C82.033,-6.705 82.644,-6.88 82.948,-7.231C83.252,-7.581 83.403,-8.138 83.403,-8.901L83.403,-10.233L90.108,-10.233L90.108,0L61.723,0L61.723,-6.705L74.175,-19.04L70.951,-19.04C70.032,-19.04 69.421,-18.881 69.117,-18.561C68.814,-18.242 68.662,-17.639 68.662,-16.751L68.662,-15.559L61.957,-15.559L61.957,-25.745L89.968,-25.745L89.968,-19.04L77.61,-6.705L81.114,-6.705Z" style="fill:rgb(239,157,82);fill-rule:nonzero;"/>
                    <path d="M111.882,-6.705C112.801,-6.705 113.412,-6.88 113.716,-7.231C114.02,-7.581 114.172,-8.138 114.172,-8.901L114.172,-10.233L120.877,-10.233L120.877,0L92.491,0L92.491,-6.705L104.943,-19.04L101.719,-19.04C100.801,-19.04 100.189,-18.881 99.886,-18.561C99.582,-18.242 99.43,-17.639 99.43,-16.751L99.43,-15.559L92.725,-15.559L92.725,-25.745L120.736,-25.745L120.736,-19.04L108.378,-6.705L111.882,-6.705Z" style="fill:rgb(239,157,82);fill-rule:nonzero;"/>
                    <path d="M135.501,-22.498C134.707,-22.498 134.026,-22.439 133.457,-22.323C132.889,-22.206 132.402,-22.07 131.997,-21.914C131.592,-21.758 131.257,-21.583 130.992,-21.388C130.728,-21.194 130.494,-21.018 130.292,-20.863L130.525,-20.629C130.821,-20.785 131.144,-20.94 131.495,-21.096C131.845,-21.252 132.293,-21.33 132.838,-21.33C133.757,-21.33 134.551,-21.03 135.221,-20.43C135.891,-19.831 136.226,-18.877 136.226,-17.568C136.226,-16.322 135.716,-15.322 134.695,-14.566C133.675,-13.811 132.309,-13.433 130.595,-13.433C128.96,-13.433 127.656,-13.904 126.682,-14.847C125.709,-15.789 125.222,-17.125 125.222,-18.853C125.222,-19.803 125.487,-20.75 126.016,-21.692C126.546,-22.634 127.367,-23.479 128.481,-24.227C129.595,-24.974 131.012,-25.59 132.733,-26.072C134.454,-26.555 136.529,-26.797 138.959,-26.797C141.856,-26.797 144.223,-26.524 146.061,-25.979C147.899,-25.434 149.328,-24.733 150.348,-23.876C151.368,-23.02 152.069,-22.046 152.451,-20.956C152.832,-19.866 153.023,-18.768 153.023,-17.662L153.023,-8.527C153.023,-7.11 153.07,-6.148 153.163,-5.642C153.257,-5.136 153.607,-4.883 154.215,-4.883C154.697,-4.883 155.036,-5.112 155.231,-5.572C155.426,-6.031 155.523,-6.822 155.523,-7.943L155.523,-10.863L158.186,-10.863L158.186,-7.896C158.186,-6.495 158.069,-5.253 157.836,-4.17C157.602,-3.088 157.158,-2.161 156.504,-1.39C155.85,-0.619 154.962,-0.035 153.841,0.362C152.719,0.759 151.286,0.958 149.542,0.958C147.969,0.958 146.665,0.79 145.629,0.456C144.593,0.121 143.772,-0.296 143.164,-0.794C142.557,-1.293 142.125,-1.811 141.868,-2.348C141.611,-2.885 141.482,-3.364 141.482,-3.785L141.108,-3.785C141.015,-3.146 140.746,-2.539 140.302,-1.962C139.858,-1.386 139.243,-0.876 138.457,-0.432C137.67,0.012 136.728,0.37 135.63,0.642C134.532,0.915 133.282,1.051 131.88,1.051C130.541,1.051 129.322,0.923 128.224,0.666C127.126,0.409 126.191,0.004 125.421,-0.549C124.65,-1.102 124.05,-1.818 123.622,-2.698C123.193,-3.578 122.979,-4.626 122.979,-5.841C122.979,-7.336 123.4,-8.516 124.241,-9.38C125.082,-10.244 126.141,-10.93 127.418,-11.436C128.695,-11.942 130.085,-12.355 131.588,-12.674C133.091,-12.993 134.481,-13.379 135.758,-13.83C137.035,-14.282 138.095,-14.866 138.936,-15.583C139.777,-16.299 140.197,-17.311 140.197,-18.62C140.197,-19.788 139.831,-20.726 139.099,-21.435C138.367,-22.144 137.168,-22.498 135.501,-22.498ZM140.197,-12.382C139.855,-11.884 139.426,-11.483 138.912,-11.179C138.398,-10.875 137.904,-10.579 137.429,-10.291C136.954,-10.003 136.541,-9.66 136.191,-9.263C135.84,-8.866 135.665,-8.333 135.665,-7.663C135.665,-7.149 135.805,-6.686 136.085,-6.273C136.366,-5.86 136.911,-5.654 137.721,-5.654C138.453,-5.654 139.049,-5.938 139.508,-6.506C139.967,-7.075 140.197,-7.873 140.197,-8.901L140.197,-12.382Z" style="fill:rgb(239,157,82);fill-rule:nonzero;"/>
                </g>
            </g>
        </g>
    </g>
</svg>
