<?xml version="1.0" encoding="UTF-8" standalone="no"?>
<!DOCTYPE svg PUBLIC "-//W3C//DTD SVG 1.1//EN" "http://www.w3.org/Graphics/SVG/1.1/DTD/svg11.dtd">
<svg width="100%" height="100%" viewBox="0 0 2196 97" version="1.1" xmlns="http://www.w3.org/2000/svg" xmlns:xlink="http://www.w3.org/1999/xlink" xml:space="preserve" xmlns:serif="http://www.serif.com/" style="fill-rule:evenodd;clip-rule:evenodd;stroke-linejoin:round;stroke-miterlimit:2;">
    <g transform="matrix(1,0,0,1,-37401.1,-30318.5)">
        <g transform="matrix(1,0,0,1,14470,15259.1)">
            <g transform="matrix(0.97004,0,0,0.384347,715.494,9301.54)">
                <rect x="22901.7" y="14985.7" width="2263.38" height="246.407" style="fill:none;"/>
                <g transform="matrix(3.14829,0,0,7.94587,-9055.56,-85121.1)">
                    <g transform="matrix(0.735166,0,0,0.735166,10177.6,12621)">
                        <path d="M20.005,-12.732C20.005,-13.25 19.942,-13.665 19.816,-13.978C19.69,-14.29 19.53,-14.529 19.337,-14.695C19.145,-14.861 18.929,-14.971 18.69,-15.024C18.451,-15.077 18.218,-15.103 17.993,-15.103C17.129,-15.103 16.485,-14.851 16.06,-14.346C15.635,-13.841 15.422,-13.124 15.422,-12.194L15.422,-9.345C15.422,-8.641 15.545,-8.139 15.791,-7.841C16.037,-7.542 16.511,-7.392 17.215,-7.392L18.291,-7.392L18.291,0L1.634,0L1.634,-7.392L2.809,-7.392C3.354,-7.392 3.769,-7.568 4.055,-7.92C4.34,-8.272 4.483,-8.694 4.483,-9.186L4.483,-12.971C4.483,-13.596 4.301,-14.017 3.935,-14.237C3.57,-14.456 3.155,-14.565 2.69,-14.565L1.634,-14.565L1.634,-21.958L13.469,-21.958L13.051,-16.478L13.39,-16.478C13.682,-18.524 14.579,-20.098 16.08,-21.201C17.581,-22.303 19.62,-22.854 22.197,-22.854C24.017,-22.854 25.498,-22.595 26.64,-22.077C27.783,-21.559 28.669,-20.905 29.3,-20.115C29.931,-19.324 30.36,-18.467 30.585,-17.544C30.811,-16.621 30.924,-15.754 30.924,-14.944L30.924,-9.345C30.924,-8.641 31.047,-8.139 31.293,-7.841C31.538,-7.542 32.013,-7.392 32.717,-7.392L33.793,-7.392L33.793,0L20.005,0L20.005,-12.732Z" style="fill-rule:nonzero;"/>
                    </g>
                    <g transform="matrix(0.735166,0,0,0.735166,10177.6,12621)">
                        <path d="M45.649,-19.188C44.971,-19.188 44.39,-19.138 43.905,-19.039C43.421,-18.939 43.005,-18.823 42.66,-18.69C42.315,-18.557 42.029,-18.408 41.803,-18.242C41.577,-18.076 41.378,-17.926 41.206,-17.793L41.405,-17.594C41.657,-17.727 41.933,-17.86 42.232,-17.993C42.531,-18.125 42.912,-18.192 43.377,-18.192C44.161,-18.192 44.839,-17.936 45.41,-17.425C45.981,-16.913 46.267,-16.1 46.267,-14.984C46.267,-13.921 45.831,-13.068 44.961,-12.423C44.091,-11.779 42.926,-11.457 41.465,-11.457C40.07,-11.457 38.957,-11.859 38.127,-12.663C37.297,-13.466 36.882,-14.605 36.882,-16.08C36.882,-16.89 37.108,-17.697 37.559,-18.501C38.011,-19.304 38.712,-20.025 39.661,-20.663C40.611,-21.3 41.82,-21.825 43.288,-22.237C44.756,-22.648 46.526,-22.854 48.598,-22.854C51.069,-22.854 53.088,-22.622 54.655,-22.157C56.223,-21.692 57.441,-21.094 58.311,-20.364C59.181,-19.633 59.779,-18.803 60.105,-17.873C60.43,-16.943 60.593,-16.007 60.593,-15.064L60.593,-7.273C60.593,-6.064 60.633,-5.244 60.712,-4.812C60.792,-4.38 61.091,-4.164 61.609,-4.164C62.021,-4.164 62.31,-4.36 62.476,-4.752C62.642,-5.144 62.725,-5.818 62.725,-6.775L62.725,-9.265L64.996,-9.265L64.996,-6.735C64.996,-5.539 64.897,-4.48 64.697,-3.557C64.498,-2.633 64.12,-1.843 63.562,-1.186C63.004,-0.528 62.247,-0.03 61.29,0.309C60.334,0.648 59.112,0.817 57.624,0.817C56.282,0.817 55.17,0.674 54.286,0.389C53.403,0.103 52.702,-0.252 52.184,-0.677C51.666,-1.103 51.298,-1.544 51.078,-2.002C50.859,-2.461 50.75,-2.869 50.75,-3.228L50.431,-3.228C50.351,-2.683 50.122,-2.165 49.743,-1.674C49.365,-1.182 48.84,-0.747 48.169,-0.369C47.499,0.01 46.695,0.315 45.758,0.548C44.822,0.78 43.756,0.897 42.56,0.897C41.418,0.897 40.379,0.787 39.442,0.568C38.506,0.349 37.709,0.003 37.051,-0.468C36.394,-0.94 35.882,-1.551 35.517,-2.301C35.152,-3.052 34.969,-3.945 34.969,-4.981C34.969,-6.257 35.328,-7.263 36.045,-8C36.762,-8.737 37.665,-9.322 38.755,-9.753C39.844,-10.185 41.029,-10.537 42.311,-10.809C43.593,-11.082 44.779,-11.411 45.868,-11.796C46.957,-12.181 47.861,-12.679 48.578,-13.29C49.295,-13.901 49.654,-14.765 49.654,-15.88C49.654,-16.877 49.342,-17.677 48.717,-18.281C48.093,-18.886 47.07,-19.188 45.649,-19.188ZM49.654,-10.56C49.362,-10.135 48.996,-9.793 48.558,-9.534C48.12,-9.275 47.698,-9.023 47.293,-8.777C46.888,-8.531 46.536,-8.239 46.237,-7.9C45.938,-7.562 45.788,-7.107 45.788,-6.535C45.788,-6.097 45.908,-5.702 46.147,-5.35C46.386,-4.998 46.851,-4.822 47.542,-4.822C48.166,-4.822 48.674,-5.064 49.066,-5.549C49.458,-6.034 49.654,-6.715 49.654,-7.592L49.654,-10.56Z" style="fill-rule:nonzero;"/>
                    </g>
                    <g transform="matrix(0.735166,0,0,0.735166,10177.6,12621)">
                        <path d="M84.682,-12.732C84.682,-13.25 84.619,-13.665 84.493,-13.978C84.367,-14.29 84.208,-14.529 84.015,-14.695C83.822,-14.861 83.607,-14.971 83.367,-15.024C83.128,-15.077 82.896,-15.103 82.67,-15.103C81.807,-15.103 81.162,-14.851 80.737,-14.346C80.312,-13.841 80.1,-13.124 80.1,-12.194L80.1,-9.345C80.1,-8.641 80.223,-8.139 80.468,-7.841C80.714,-7.542 81.189,-7.392 81.893,-7.392L82.969,-7.392L82.969,0L66.311,0L66.311,-7.392L67.487,-7.392C68.032,-7.392 68.447,-7.568 68.732,-7.92C69.018,-8.272 69.161,-8.694 69.161,-9.186L69.161,-12.971C69.161,-13.596 68.978,-14.017 68.613,-14.237C68.247,-14.456 67.832,-14.565 67.367,-14.565L66.311,-14.565L66.311,-21.958L78.147,-21.958L77.729,-16.478L78.067,-16.478C78.36,-18.524 79.256,-20.098 80.757,-21.201C82.258,-22.303 84.297,-22.854 86.874,-22.854C88.694,-22.854 90.175,-22.595 91.318,-22.077C92.46,-21.559 93.347,-20.905 93.978,-20.115C94.609,-19.324 95.037,-18.467 95.263,-17.544C95.489,-16.621 95.602,-15.754 95.602,-14.944L95.602,-9.345C95.602,-8.641 95.724,-8.139 95.97,-7.841C96.216,-7.542 96.691,-7.392 97.395,-7.392L98.471,-7.392L98.471,0L84.682,0L84.682,-12.732Z" style="fill-rule:nonzero;"/>
                    </g>
                    <g transform="matrix(0.735166,0,0,0.735166,10177.6,12621)">
                        <path d="M99.686,-11.019C99.686,-12.971 100.025,-14.685 100.702,-16.159C101.38,-17.634 102.346,-18.866 103.602,-19.856C104.857,-20.845 106.368,-21.592 108.135,-22.097C109.901,-22.602 111.874,-22.854 114.052,-22.854C116.231,-22.854 118.203,-22.602 119.97,-22.097C121.737,-21.592 123.245,-20.845 124.493,-19.856C125.742,-18.866 126.708,-17.634 127.392,-16.159C128.076,-14.685 128.419,-12.971 128.419,-11.019C128.419,-9.093 128.076,-7.386 127.392,-5.898C126.708,-4.41 125.742,-3.165 124.493,-2.162C123.245,-1.159 121.737,-0.405 119.97,0.1C118.203,0.604 116.231,0.857 114.052,0.857C111.874,0.857 109.901,0.604 108.135,0.1C106.368,-0.405 104.857,-1.159 103.602,-2.162C102.346,-3.165 101.38,-4.41 100.702,-5.898C100.025,-7.386 99.686,-9.093 99.686,-11.019ZM111.024,-11.019C111.024,-9.903 111.074,-8.956 111.173,-8.179C111.273,-7.402 111.436,-6.778 111.661,-6.306C111.887,-5.835 112.193,-5.489 112.578,-5.27C112.963,-5.051 113.455,-4.941 114.052,-4.941C114.65,-4.941 115.138,-5.051 115.517,-5.27C115.895,-5.489 116.201,-5.835 116.433,-6.306C116.666,-6.778 116.829,-7.402 116.922,-8.179C117.015,-8.956 117.061,-9.903 117.061,-11.019C117.061,-13.25 116.852,-14.814 116.433,-15.711C116.015,-16.608 115.221,-17.056 114.052,-17.056C113.455,-17.056 112.963,-16.953 112.578,-16.747C112.193,-16.541 111.887,-16.203 111.661,-15.731C111.436,-15.259 111.273,-14.635 111.173,-13.858C111.074,-13.081 111.024,-12.135 111.024,-11.019Z" style="fill-rule:nonzero;"/>
                    </g>
                    <g transform="matrix(0.546007,0,0,0.546007,10709.1,12620.3)">
                        <path d="M43.998,-29.672C43.998,-23.949 41.02,-20.819 35.064,-20.282L35.064,-19.987C38.176,-19.915 40.627,-19.066 42.415,-17.438C44.204,-15.811 45.098,-13.459 45.098,-10.382C45.098,-9.095 44.946,-7.829 44.642,-6.586C44.338,-5.343 43.681,-4.239 42.67,-3.273C41.66,-2.307 40.202,-1.52 38.297,-0.912C36.392,-0.304 33.83,0 30.611,0L1.1,0L1.1,-9.953C2.674,-9.953 3.801,-10.163 4.48,-10.584C5.16,-11.004 5.5,-11.795 5.5,-12.958L5.5,-26.533C5.5,-27.713 5.16,-28.514 4.48,-28.934C3.801,-29.354 2.674,-29.565 1.1,-29.565L1.1,-39.518L32.462,-39.518C34.93,-39.518 36.924,-39.241 38.445,-38.686C39.965,-38.132 41.136,-37.398 41.959,-36.486C42.782,-35.574 43.327,-34.523 43.596,-33.334C43.864,-32.145 43.998,-30.924 43.998,-29.672ZM25.326,-9.953C26.828,-9.953 27.865,-10.244 28.438,-10.825C29.01,-11.406 29.296,-12.377 29.296,-13.736C29.296,-15.095 29.01,-16.083 28.438,-16.701C27.865,-17.318 26.828,-17.626 25.326,-17.626L21.328,-17.626L21.328,-9.953L25.326,-9.953ZM21.328,-22.375L25.379,-22.375C26.488,-22.375 27.289,-22.728 27.781,-23.434C28.272,-24.141 28.518,-24.995 28.518,-25.996C28.518,-26.944 28.272,-27.776 27.781,-28.491C27.289,-29.207 26.488,-29.565 25.379,-29.565L21.328,-29.565L21.328,-22.375Z" style="fill-rule:nonzero;"/>
                        <path d="M86.199,-12.099C86.199,-11.241 86.445,-10.669 86.937,-10.382C87.428,-10.096 87.987,-9.953 88.613,-9.953L90.035,-9.953L90.035,0L74.099,0L74.099,-7.351L73.67,-7.351C73.259,-4.614 72.141,-2.54 70.317,-1.127C68.492,0.286 65.836,0.993 62.349,0.993C59.898,0.993 57.904,0.644 56.366,-0.054C54.828,-0.751 53.638,-1.632 52.798,-2.696C51.957,-3.76 51.38,-4.914 51.067,-6.157C50.754,-7.4 50.598,-8.567 50.598,-9.658L50.598,-16.982C50.598,-17.93 50.432,-18.605 50.102,-19.008C49.771,-19.41 49.131,-19.611 48.183,-19.611L46.574,-19.611L46.574,-29.565L65.326,-29.565L65.326,-12.636C65.326,-11.939 65.407,-11.38 65.568,-10.959C65.729,-10.539 65.939,-10.217 66.198,-9.993C66.458,-9.77 66.753,-9.622 67.084,-9.551C67.415,-9.479 67.723,-9.444 68.009,-9.444C69.19,-9.444 70.062,-9.783 70.625,-10.463C71.188,-11.143 71.47,-12.108 71.47,-13.36L71.47,-16.982C71.47,-17.93 71.305,-18.605 70.974,-19.008C70.643,-19.41 70.004,-19.611 69.056,-19.611L67.473,-19.611L67.473,-29.565L86.199,-29.565L86.199,-12.099Z" style="fill-rule:nonzero;"/>
                        <path d="M109.271,-29.565L108.815,-22.187L109.271,-22.187C109.897,-25.013 110.939,-27.15 112.396,-28.599C113.854,-30.048 115.745,-30.772 118.071,-30.772C119.448,-30.772 120.633,-30.553 121.625,-30.115C122.618,-29.676 123.418,-29.091 124.026,-28.357C124.635,-27.624 125.073,-26.779 125.341,-25.822C125.609,-24.865 125.743,-23.877 125.743,-22.858C125.743,-22.017 125.618,-21.185 125.368,-20.363C125.117,-19.54 124.715,-18.798 124.161,-18.136C123.606,-17.474 122.891,-16.942 122.014,-16.54C121.138,-16.137 120.056,-15.936 118.768,-15.936C116.98,-15.936 115.571,-16.392 114.543,-17.304C113.514,-18.216 113,-19.316 113,-20.604C113,-21.23 113.072,-21.762 113.215,-22.2C113.358,-22.638 113.505,-22.996 113.657,-23.273C113.809,-23.551 113.912,-23.752 113.966,-23.877C114.02,-24.002 113.957,-24.065 113.778,-24.065C113.402,-24.065 112.996,-23.636 112.557,-22.777C112.119,-21.919 111.9,-20.568 111.9,-18.726L111.9,-12.582C111.9,-11.634 112.066,-10.959 112.396,-10.557C112.727,-10.154 113.367,-9.953 114.315,-9.953L115.924,-9.953L115.924,0L93.335,0L93.335,-9.953L94.918,-9.953C95.651,-9.953 96.21,-10.19 96.595,-10.664C96.979,-11.138 97.171,-11.706 97.171,-12.368L97.171,-17.465C97.171,-18.306 96.926,-18.874 96.434,-19.169C95.942,-19.464 95.383,-19.611 94.757,-19.611L93.335,-19.611L93.335,-29.565L109.271,-29.565Z" style="fill-rule:nonzero;"/>
                        <path d="M166.79,4.883C166.79,7.923 165.042,10.248 161.546,11.858C158.049,13.468 152.992,14.273 146.374,14.273C143.978,14.273 141.644,14.237 139.372,14.165C137.101,14.094 135.089,13.857 133.336,13.454C131.583,13.052 130.175,12.412 129.11,11.536C128.046,10.66 127.514,9.417 127.514,7.807C127.514,6.519 127.925,5.464 128.748,4.641C129.571,3.819 130.456,3.166 131.404,2.683C130.242,1.985 129.45,1.207 129.03,0.349C128.61,-0.51 128.399,-1.449 128.399,-2.468C128.399,-3.684 128.838,-4.851 129.714,-5.969C130.59,-7.087 131.851,-8.174 133.497,-9.229C131.887,-10.284 130.653,-11.572 129.794,-13.092C128.936,-14.612 128.507,-16.419 128.507,-18.511C128.507,-20.532 128.927,-22.303 129.768,-23.823C130.608,-25.344 131.816,-26.614 133.389,-27.633C134.963,-28.652 136.841,-29.43 139.023,-29.967C141.205,-30.504 143.656,-30.772 146.374,-30.772C149.29,-30.772 151.923,-30.459 154.275,-29.833C156.627,-29.207 158.626,-28.259 160.271,-26.989C160.593,-27.418 161.031,-27.839 161.586,-28.25C162.051,-28.572 162.641,-28.872 163.356,-29.149C164.072,-29.426 164.948,-29.565 165.986,-29.565L168.454,-29.565L168.454,-19.611L166.683,-19.611C165.914,-19.611 165.328,-19.401 164.926,-18.981C164.523,-18.561 164.286,-18.154 164.215,-17.76C163.589,-13.986 161.765,-11.107 158.742,-9.122C155.719,-7.136 151.597,-6.144 146.374,-6.144C143.441,-6.144 140.785,-6.457 138.406,-7.083C138.031,-6.832 137.843,-6.519 137.843,-6.144C137.843,-5.446 138.254,-4.954 139.077,-4.668C139.9,-4.382 140.991,-4.19 142.35,-4.091C143.709,-3.993 145.256,-3.957 146.991,-3.984C148.726,-4.011 150.501,-3.984 152.317,-3.903C154.132,-3.823 155.912,-3.658 157.655,-3.407C159.399,-3.157 160.946,-2.71 162.297,-2.066C163.647,-1.422 164.734,-0.541 165.556,0.577C166.379,1.695 166.79,3.13 166.79,4.883ZM142.618,-18.511C142.618,-16.651 142.878,-15.216 143.396,-14.205C143.915,-13.195 144.908,-12.69 146.374,-12.69C147.859,-12.69 148.86,-13.195 149.379,-14.205C149.898,-15.216 150.157,-16.651 150.157,-18.511C150.157,-20.354 149.898,-21.758 149.379,-22.723C148.86,-23.689 147.859,-24.172 146.374,-24.172C144.908,-24.172 143.915,-23.689 143.396,-22.723C142.878,-21.758 142.618,-20.354 142.618,-18.511ZM147.582,5.285C145.668,5.285 143.933,5.236 142.377,5.138C140.821,5.039 139.417,4.901 138.165,4.722C137.986,5.026 137.897,5.339 137.897,5.661C137.897,6.948 138.594,7.794 139.989,8.196C141.384,8.598 143.217,8.8 145.489,8.8C148.529,8.8 150.752,8.616 152.156,8.25C153.56,7.883 154.262,7.369 154.262,6.707C154.262,6.367 154.061,6.108 153.658,5.929C153.256,5.75 152.728,5.607 152.075,5.5C151.422,5.392 150.703,5.33 149.916,5.312C149.129,5.294 148.351,5.285 147.582,5.285Z" style="fill-rule:nonzero;"/>
                        <path d="M185.409,-13.119C185.481,-10.454 185.986,-8.616 186.925,-7.606C187.864,-6.595 189.21,-6.09 190.963,-6.09C191.553,-6.09 192.13,-6.175 192.693,-6.345C193.256,-6.515 193.78,-6.792 194.262,-7.177C194.745,-7.561 195.161,-8.071 195.51,-8.706C195.859,-9.341 196.087,-10.141 196.194,-11.107L205.96,-11.107C205.602,-8.8 204.945,-6.868 203.988,-5.312C203.031,-3.756 201.801,-2.499 200.299,-1.543C198.796,-0.586 197.048,0.103 195.054,0.523C193.06,0.943 190.837,1.154 188.387,1.154C185.865,1.154 183.495,0.832 181.278,0.188C179.06,-0.456 177.115,-1.435 175.443,-2.75C173.77,-4.064 172.46,-5.719 171.512,-7.713C170.564,-9.707 170.09,-12.082 170.09,-14.836C170.09,-17.465 170.537,-19.772 171.432,-21.758C172.326,-23.743 173.582,-25.402 175.201,-26.734C176.82,-28.067 178.733,-29.073 180.942,-29.752C183.151,-30.432 185.579,-30.772 188.226,-30.772C191.481,-30.772 194.28,-30.343 196.623,-29.484C198.966,-28.626 200.88,-27.427 202.365,-25.889C203.849,-24.351 204.94,-22.5 205.638,-20.336C206.335,-18.172 206.666,-15.766 206.63,-13.119L185.409,-13.119ZM189.38,-23.528C188.128,-23.528 187.202,-23.086 186.603,-22.2C186.004,-21.315 185.606,-19.853 185.409,-17.814L193.27,-17.814C193.163,-19.567 192.787,-20.957 192.143,-21.986C191.499,-23.014 190.578,-23.528 189.38,-23.528Z" style="fill-rule:nonzero;"/>
                        <path d="M225.92,-29.565L225.464,-22.187L225.92,-22.187C226.546,-25.013 227.587,-27.15 229.045,-28.599C230.503,-30.048 232.394,-30.772 234.719,-30.772C236.096,-30.772 237.281,-30.553 238.274,-30.115C239.267,-29.676 240.067,-29.091 240.675,-28.357C241.283,-27.624 241.721,-26.779 241.99,-25.822C242.258,-24.865 242.392,-23.877 242.392,-22.858C242.392,-22.017 242.267,-21.185 242.017,-20.363C241.766,-19.54 241.364,-18.798 240.809,-18.136C240.255,-17.474 239.539,-16.942 238.663,-16.54C237.787,-16.137 236.705,-15.936 235.417,-15.936C233.628,-15.936 232.22,-16.392 231.191,-17.304C230.163,-18.216 229.649,-19.316 229.649,-20.604C229.649,-21.23 229.72,-21.762 229.863,-22.2C230.006,-22.638 230.154,-22.996 230.306,-23.273C230.458,-23.551 230.561,-23.752 230.615,-23.877C230.668,-24.002 230.606,-24.065 230.427,-24.065C230.051,-24.065 229.644,-23.636 229.206,-22.777C228.768,-21.919 228.549,-20.568 228.549,-18.726L228.549,-12.582C228.549,-11.634 228.714,-10.959 229.045,-10.557C229.376,-10.154 230.015,-9.953 230.963,-9.953L232.573,-9.953L232.573,0L209.984,0L209.984,-9.953L211.567,-9.953C212.3,-9.953 212.859,-10.19 213.243,-10.664C213.628,-11.138 213.82,-11.706 213.82,-12.368L213.82,-17.465C213.82,-18.306 213.574,-18.874 213.082,-19.169C212.591,-19.464 212.032,-19.611 211.406,-19.611L209.984,-19.611L209.984,-29.565L225.92,-29.565Z" style="fill-rule:nonzero;"/>
                    </g>
                    <g transform="matrix(0.538807,0,0,0.538807,10319.5,12620.8)">
                        <path d="M21.423,-23.843C19.865,-23.843 18.668,-23.181 17.835,-21.858C17.001,-20.535 16.584,-18.333 16.584,-15.252C16.584,-12.171 17.015,-9.982 17.875,-8.686C18.736,-7.39 20.055,-6.742 21.831,-6.742C22.339,-6.742 22.855,-6.824 23.381,-6.987C23.906,-7.15 24.382,-7.39 24.808,-7.708C25.234,-8.025 25.588,-8.433 25.868,-8.931C26.149,-9.429 26.308,-10.014 26.344,-10.684L35.126,-10.684C34.546,-6.643 32.919,-3.657 30.246,-1.726C27.572,0.204 23.761,1.169 18.813,1.169C16.33,1.169 14.01,0.843 11.854,0.19C9.697,-0.462 7.821,-1.455 6.226,-2.787C4.631,-4.119 3.38,-5.795 2.474,-7.816C1.568,-9.837 1.115,-12.243 1.115,-15.034C1.115,-17.699 1.568,-20.037 2.474,-22.049C3.38,-24.061 4.654,-25.742 6.294,-27.092C7.934,-28.442 9.873,-29.462 12.112,-30.15C14.35,-30.839 16.811,-31.184 19.493,-31.184C22.339,-31.184 24.74,-30.83 26.698,-30.123C28.655,-29.416 30.236,-28.533 31.442,-27.472C32.647,-26.412 33.508,-25.27 34.025,-24.047C34.541,-22.823 34.799,-21.677 34.799,-20.608C34.799,-19.756 34.677,-18.922 34.432,-18.107C34.188,-17.291 33.789,-16.548 33.236,-15.877C32.683,-15.207 31.981,-14.667 31.129,-14.26C30.277,-13.852 29.235,-13.648 28.003,-13.648C26.825,-13.648 25.864,-13.816 25.121,-14.151C24.378,-14.486 23.802,-14.903 23.394,-15.401C22.987,-15.9 22.697,-16.425 22.524,-16.978C22.352,-17.531 22.266,-18.052 22.266,-18.542C22.266,-19.647 22.529,-20.526 23.055,-21.179C23.58,-21.831 24.187,-22.284 24.876,-22.538C24.477,-22.846 24.074,-23.141 23.666,-23.422C23.258,-23.703 22.511,-23.843 21.423,-23.843Z" style="fill:rgb(239,157,82);fill-rule:nonzero;"/>
                        <path d="M67.07,-31.184C69.463,-31.184 71.407,-30.83 72.902,-30.123C74.397,-29.416 75.566,-28.524 76.409,-27.445C77.252,-26.367 77.827,-25.198 78.135,-23.938C78.444,-22.678 78.598,-21.496 78.598,-20.39L78.598,-12.751C78.598,-11.79 78.765,-11.106 79.101,-10.698C79.436,-10.29 80.084,-10.086 81.044,-10.086L82.513,-10.086L82.513,0L63.699,0L63.699,-17.373C63.699,-18.079 63.613,-18.646 63.441,-19.072C63.269,-19.498 63.051,-19.824 62.788,-20.05C62.526,-20.277 62.231,-20.427 61.905,-20.499C61.579,-20.572 61.261,-20.608 60.953,-20.608C59.775,-20.608 58.896,-20.263 58.316,-19.575C57.736,-18.886 57.446,-17.907 57.446,-16.638L57.446,-12.751C57.446,-11.79 57.614,-11.106 57.949,-10.698C58.284,-10.29 58.932,-10.086 59.893,-10.086L61.905,-10.086L61.905,0L38.633,0L38.633,-10.086L40.237,-10.086C40.98,-10.086 41.546,-10.327 41.936,-10.807C42.326,-11.287 42.52,-11.863 42.52,-12.533L42.466,-26.888C42.466,-27.939 42.135,-28.714 41.474,-29.212C40.812,-29.711 40.046,-29.96 39.176,-29.96L38.633,-29.96L38.633,-40.046L57.446,-40.046L57.446,-29.96C57.446,-29.616 57.337,-29.018 57.12,-28.166C56.902,-27.314 56.495,-26.462 55.896,-25.61L56.44,-25.338C57.419,-27.115 58.733,-28.533 60.382,-29.593C62.032,-30.653 64.261,-31.184 67.07,-31.184Z" style="fill:rgb(239,157,82);fill-rule:nonzero;"/>
                        <path d="M99.695,-13.294C99.767,-10.594 100.279,-8.732 101.231,-7.708C102.182,-6.683 103.546,-6.171 105.322,-6.171C105.921,-6.171 106.505,-6.258 107.076,-6.43C107.647,-6.602 108.177,-6.883 108.666,-7.273C109.156,-7.662 109.577,-8.179 109.931,-8.822C110.284,-9.466 110.515,-10.277 110.624,-11.255L120.52,-11.255C120.158,-8.917 119.491,-6.96 118.522,-5.383C117.552,-3.806 116.306,-2.533 114.784,-1.563C113.261,-0.594 111.489,0.104 109.469,0.53C107.448,0.956 105.196,1.169 102.713,1.169C100.157,1.169 97.755,0.843 95.508,0.19C93.261,-0.462 91.289,-1.455 89.595,-2.787C87.9,-4.119 86.573,-5.795 85.612,-7.816C84.651,-9.837 84.171,-12.243 84.171,-15.034C84.171,-17.699 84.624,-20.037 85.53,-22.049C86.437,-24.061 87.71,-25.742 89.35,-27.092C90.99,-28.442 92.93,-29.462 95.168,-30.15C97.407,-30.839 99.867,-31.184 102.549,-31.184C105.848,-31.184 108.685,-30.749 111.059,-29.879C113.433,-29.009 115.373,-27.794 116.877,-26.235C118.381,-24.677 119.487,-22.801 120.194,-20.608C120.901,-18.415 121.236,-15.977 121.2,-13.294L99.695,-13.294ZM103.718,-23.843C102.45,-23.843 101.512,-23.394 100.905,-22.497C100.297,-21.6 99.894,-20.118 99.695,-18.052L107.661,-18.052C107.552,-19.828 107.171,-21.238 106.519,-22.28C105.866,-23.322 104.933,-23.843 103.718,-23.843Z" style="fill:rgb(239,157,82);fill-rule:nonzero;"/>
                        <path d="M139.007,-13.294C139.08,-10.594 139.592,-8.732 140.543,-7.708C141.495,-6.683 142.859,-6.171 144.635,-6.171C145.233,-6.171 145.818,-6.258 146.388,-6.43C146.959,-6.602 147.49,-6.883 147.979,-7.273C148.468,-7.662 148.89,-8.179 149.243,-8.822C149.597,-9.466 149.828,-10.277 149.936,-11.255L159.832,-11.255C159.47,-8.917 158.804,-6.96 157.834,-5.383C156.865,-3.806 155.618,-2.533 154.096,-1.563C152.574,-0.594 150.802,0.104 148.781,0.53C146.76,0.956 144.508,1.169 142.025,1.169C139.469,1.169 137.068,0.843 134.82,0.19C132.573,-0.462 130.602,-1.455 128.907,-2.787C127.213,-4.119 125.885,-5.795 124.924,-7.816C123.964,-9.837 123.483,-12.243 123.483,-15.034C123.483,-17.699 123.937,-20.037 124.843,-22.049C125.749,-24.061 127.022,-25.742 128.663,-27.092C130.303,-28.442 132.242,-29.462 134.481,-30.15C136.719,-30.839 139.179,-31.184 141.862,-31.184C145.161,-31.184 147.997,-30.749 150.371,-29.879C152.746,-29.009 154.685,-27.794 156.189,-26.235C157.694,-24.677 158.799,-22.801 159.506,-20.608C160.213,-18.415 160.548,-15.977 160.512,-13.294L139.007,-13.294ZM143.031,-23.843C141.762,-23.843 140.824,-23.394 140.217,-22.497C139.61,-21.6 139.207,-20.118 139.007,-18.052L146.973,-18.052C146.864,-19.828 146.484,-21.238 145.831,-22.28C145.179,-23.322 144.245,-23.843 143.031,-23.843Z" style="fill:rgb(239,157,82);fill-rule:nonzero;"/>
                        <path d="M194.768,-20.037L187.291,-20.037C186.766,-21.342 185.95,-22.375 184.844,-23.136C183.739,-23.897 182.588,-24.278 181.392,-24.278C180.576,-24.278 179.928,-24.128 179.448,-23.829C178.968,-23.53 178.727,-23.082 178.727,-22.484C178.727,-21.741 179.144,-21.183 179.978,-20.812C180.812,-20.44 181.858,-20.109 183.118,-19.819C184.378,-19.529 185.742,-19.18 187.21,-18.773C188.678,-18.365 190.042,-17.78 191.301,-17.019C192.561,-16.258 193.608,-15.234 194.442,-13.947C195.275,-12.66 195.692,-10.965 195.692,-8.863C195.692,-7.232 195.33,-5.809 194.605,-4.595C193.88,-3.38 192.887,-2.383 191.628,-1.604C190.368,-0.825 188.886,-0.24 187.183,0.15C185.479,0.539 183.639,0.734 181.664,0.734C179.742,0.734 177.925,0.548 176.213,0.177C174.5,-0.195 172.864,-0.825 171.305,-1.713L171.033,0.163L163.856,0.163L163.856,-10.739L171.305,-10.739C172.012,-9.289 172.905,-8.165 173.983,-7.368C175.062,-6.57 176.253,-6.171 177.558,-6.171C178.555,-6.171 179.267,-6.357 179.693,-6.729C180.118,-7.1 180.331,-7.513 180.331,-7.966C180.331,-8.709 179.915,-9.284 179.081,-9.692C178.247,-10.1 177.219,-10.462 175.995,-10.78C174.772,-11.097 173.426,-11.45 171.958,-11.84C170.49,-12.23 169.144,-12.796 167.921,-13.539C166.697,-14.282 165.669,-15.284 164.835,-16.543C164.001,-17.803 163.584,-19.457 163.584,-21.505C163.584,-22.973 163.915,-24.314 164.577,-25.529C165.238,-26.743 166.185,-27.767 167.418,-28.601C168.65,-29.434 170.1,-30.073 171.768,-30.517C173.435,-30.961 175.266,-31.184 177.259,-31.184C179.489,-31.184 181.496,-30.934 183.281,-30.436C185.067,-29.937 186.403,-29.389 187.291,-28.791L187.563,-30.721L194.768,-30.721L194.768,-20.037Z" style="fill:rgb(239,157,82);fill-rule:nonzero;"/>
                        <path d="M223.042,2.229C222.426,3.571 221.792,5.002 221.139,6.525C220.487,8.047 219.63,9.457 218.57,10.752C217.51,12.048 216.146,13.122 214.478,13.974C212.811,14.826 210.636,15.252 207.953,15.252C206.068,15.252 204.419,15.012 203.005,14.531C201.592,14.051 200.423,13.403 199.498,12.588C198.574,11.772 197.89,10.834 197.446,9.774C197.002,8.713 196.78,7.63 196.78,6.525C196.78,4.332 197.455,2.605 198.805,1.346C200.155,0.086 201.836,-0.544 203.848,-0.544C205.026,-0.544 206.014,-0.372 206.812,-0.027C207.609,0.317 208.262,0.761 208.769,1.305C209.277,1.849 209.63,2.447 209.829,3.099C210.029,3.752 210.128,4.368 210.128,4.948C210.128,6.253 209.807,7.25 209.163,7.939C208.52,8.627 207.745,9.062 206.839,9.244C206.911,9.316 207.029,9.37 207.192,9.407C207.41,9.515 207.854,9.57 208.524,9.57C209.159,9.57 209.725,9.411 210.224,9.094C210.722,8.777 211.175,8.387 211.583,7.925C211.991,7.463 212.344,6.964 212.643,6.43C212.942,5.895 213.182,5.401 213.364,4.948L213.418,4.785L201.836,-17.536C201.655,-17.952 201.46,-18.306 201.252,-18.596C201.043,-18.886 200.79,-19.126 200.491,-19.316C200.192,-19.507 199.82,-19.647 199.376,-19.738C198.932,-19.828 198.375,-19.874 197.704,-19.874L197.704,-29.96L219.535,-29.96L219.535,-19.874C218.393,-19.874 217.646,-19.706 217.292,-19.371C216.939,-19.035 216.907,-18.514 217.197,-17.807L220.487,-10.793L223.668,-17.807C223.958,-18.442 223.926,-18.945 223.572,-19.316C223.219,-19.688 222.471,-19.874 221.329,-19.874L221.329,-29.96L236.473,-29.96L236.473,-19.874C235.131,-19.874 234.193,-19.688 233.659,-19.316C233.124,-18.945 232.666,-18.351 232.286,-17.536L223.042,2.229Z" style="fill:rgb(239,157,82);fill-rule:nonzero;"/>
                    </g>
                    <g transform="matrix(0.5244,0,0,0.5244,10498.3,12620.8)">
                        <path d="M5.252,-37.654C5.252,-39.256 5.861,-40.625 7.081,-41.761C8.301,-42.897 10.037,-43.465 12.291,-43.465C14.581,-43.465 16.346,-42.897 17.584,-41.761C18.823,-40.625 19.442,-39.256 19.442,-37.654C19.442,-36.016 18.823,-34.633 17.584,-33.506C16.346,-32.38 14.581,-31.816 12.291,-31.816C10.037,-31.816 8.301,-32.38 7.081,-33.506C5.861,-34.633 5.252,-36.016 5.252,-37.654ZM5.726,-17.263C5.726,-18.343 5.382,-19.139 4.693,-19.651C4.004,-20.163 3.222,-20.419 2.346,-20.419L1.145,-20.419L1.145,-30.783L21.23,-30.783L21.23,0.81C21.23,3.436 20.904,5.666 20.252,7.5C19.6,9.334 18.627,10.81 17.333,11.928C16.039,13.045 14.446,13.855 12.556,14.358C10.666,14.861 8.464,15.112 5.95,15.112C3.659,15.112 1.723,14.884 0.14,14.428C-1.443,13.971 -2.728,13.371 -3.715,12.626C-4.702,11.881 -5.414,11.02 -5.852,10.042C-6.29,9.064 -6.509,8.045 -6.509,6.983C-6.509,5.382 -6.006,4.008 -5,2.863C-3.995,1.718 -2.514,1.145 -0.559,1.145C0.317,1.145 1.085,1.299 1.746,1.606C2.407,1.913 2.956,2.295 3.394,2.751C3.832,3.208 4.157,3.72 4.372,4.288C4.586,4.856 4.693,5.41 4.693,5.95C4.693,6.937 4.539,7.7 4.232,8.24C3.925,8.78 3.566,9.255 3.156,9.665L3.548,10.112C4.46,9.516 5.051,8.799 5.321,7.961C5.591,7.123 5.726,6.201 5.726,5.196L5.726,-17.263Z" style="fill-rule:nonzero;"/>
                        <path d="M40.141,-26.9C39.191,-26.9 38.376,-26.83 37.696,-26.691C37.017,-26.551 36.435,-26.388 35.951,-26.202C35.466,-26.015 35.066,-25.806 34.749,-25.573C34.433,-25.34 34.153,-25.131 33.911,-24.945L34.191,-24.665C34.545,-24.852 34.931,-25.038 35.35,-25.224C35.769,-25.41 36.304,-25.503 36.956,-25.503C38.055,-25.503 39.005,-25.145 39.805,-24.428C40.606,-23.711 41.007,-22.57 41.007,-21.006C41.007,-19.516 40.397,-18.32 39.177,-17.417C37.957,-16.513 36.323,-16.062 34.275,-16.062C32.319,-16.062 30.76,-16.625 29.596,-17.752C28.432,-18.878 27.85,-20.475 27.85,-22.542C27.85,-23.678 28.166,-24.81 28.8,-25.936C29.433,-27.063 30.415,-28.073 31.747,-28.967C33.078,-29.861 34.773,-30.597 36.83,-31.174C38.888,-31.751 41.37,-32.04 44.275,-32.04C47.739,-32.04 50.569,-31.714 52.767,-31.062C54.964,-30.41 56.673,-29.572 57.892,-28.548C59.112,-27.524 59.95,-26.36 60.406,-25.056C60.863,-23.753 61.091,-22.44 61.091,-21.118L61.091,-10.196C61.091,-8.501 61.147,-7.351 61.258,-6.746C61.37,-6.141 61.789,-5.838 62.515,-5.838C63.093,-5.838 63.498,-6.113 63.73,-6.662C63.963,-7.212 64.08,-8.157 64.08,-9.497L64.08,-12.989L67.264,-12.989L67.264,-9.442C67.264,-7.766 67.124,-6.28 66.845,-4.986C66.566,-3.692 66.035,-2.584 65.253,-1.662C64.471,-0.74 63.409,-0.042 62.068,0.433C60.728,0.908 59.014,1.145 56.929,1.145C55.048,1.145 53.488,0.945 52.25,0.545C51.011,0.144 50.029,-0.354 49.303,-0.95C48.577,-1.546 48.06,-2.165 47.752,-2.807C47.445,-3.45 47.292,-4.022 47.292,-4.525L46.845,-4.525C46.733,-3.762 46.412,-3.035 45.881,-2.346C45.35,-1.657 44.615,-1.048 43.674,-0.517C42.734,0.014 41.607,0.442 40.294,0.768C38.981,1.094 37.487,1.257 35.811,1.257C34.209,1.257 32.752,1.103 31.439,0.796C30.126,0.489 29.009,0.005 28.087,-0.656C27.165,-1.318 26.448,-2.174 25.936,-3.226C25.424,-4.278 25.168,-5.531 25.168,-6.983C25.168,-8.771 25.671,-10.182 26.677,-11.215C27.682,-12.249 28.949,-13.068 30.476,-13.673C32.003,-14.279 33.665,-14.772 35.462,-15.154C37.259,-15.536 38.921,-15.997 40.448,-16.537C41.975,-17.077 43.241,-17.775 44.247,-18.632C45.252,-19.488 45.755,-20.699 45.755,-22.263C45.755,-23.66 45.318,-24.782 44.442,-25.629C43.567,-26.476 42.133,-26.9 40.141,-26.9ZM45.755,-14.805C45.346,-14.209 44.833,-13.729 44.219,-13.366C43.604,-13.003 43.013,-12.649 42.445,-12.305C41.877,-11.96 41.384,-11.551 40.965,-11.076C40.546,-10.601 40.336,-9.963 40.336,-9.162C40.336,-8.548 40.504,-7.994 40.839,-7.5C41.174,-7.007 41.826,-6.76 42.794,-6.76C43.67,-6.76 44.382,-7.1 44.931,-7.78C45.481,-8.459 45.755,-9.414 45.755,-10.643L45.755,-14.805Z" style="fill-rule:nonzero;"/>
                        <path d="M88.605,-41.146L88.605,-13.38C88.605,-12.132 88.913,-11.318 89.527,-10.936C90.142,-10.554 90.924,-10.363 91.874,-10.363L92.628,-10.363L92.628,0L69.108,0L69.108,-10.363L70.197,-10.363C71.184,-10.363 71.915,-10.675 72.39,-11.299C72.865,-11.923 73.102,-12.598 73.102,-13.324L73.102,-27.626C73.102,-28.706 72.762,-29.503 72.083,-30.015C71.403,-30.527 70.616,-30.783 69.722,-30.783L69.108,-30.783L69.108,-41.146L88.605,-41.146Z" style="fill-rule:nonzero;"/>
                        <path d="M109.248,-26.9C108.299,-26.9 107.484,-26.83 106.804,-26.691C106.124,-26.551 105.542,-26.388 105.058,-26.202C104.574,-26.015 104.174,-25.806 103.857,-25.573C103.541,-25.34 103.261,-25.131 103.019,-24.945L103.298,-24.665C103.652,-24.852 104.039,-25.038 104.458,-25.224C104.877,-25.41 105.412,-25.503 106.064,-25.503C107.163,-25.503 108.112,-25.145 108.913,-24.428C109.714,-23.711 110.114,-22.57 110.114,-21.006C110.114,-19.516 109.504,-18.32 108.285,-17.417C107.065,-16.513 105.431,-16.062 103.382,-16.062C101.427,-16.062 99.867,-16.625 98.703,-17.752C97.539,-18.878 96.958,-20.475 96.958,-22.542C96.958,-23.678 97.274,-24.81 97.907,-25.936C98.54,-27.063 99.523,-28.073 100.854,-28.967C102.186,-29.861 103.88,-30.597 105.938,-31.174C107.996,-31.751 110.477,-32.04 113.382,-32.04C116.846,-32.04 119.677,-31.714 121.874,-31.062C124.072,-30.41 125.78,-29.572 127,-28.548C128.22,-27.524 129.058,-26.36 129.514,-25.056C129.97,-23.753 130.198,-22.44 130.198,-21.118L130.198,-10.196C130.198,-8.501 130.254,-7.351 130.366,-6.746C130.478,-6.141 130.897,-5.838 131.623,-5.838C132.2,-5.838 132.605,-6.113 132.838,-6.662C133.071,-7.212 133.187,-8.157 133.187,-9.497L133.187,-12.989L136.372,-12.989L136.372,-9.442C136.372,-7.766 136.232,-6.28 135.953,-4.986C135.673,-3.692 135.143,-2.584 134.361,-1.662C133.578,-0.74 132.517,-0.042 131.176,0.433C129.835,0.908 128.122,1.145 126.036,1.145C124.156,1.145 122.596,0.945 121.357,0.545C120.119,0.144 119.137,-0.354 118.411,-0.95C117.684,-1.546 117.167,-2.165 116.86,-2.807C116.553,-3.45 116.399,-4.022 116.399,-4.525L115.952,-4.525C115.841,-3.762 115.519,-3.035 114.989,-2.346C114.458,-1.657 113.722,-1.048 112.782,-0.517C111.841,0.014 110.715,0.442 109.402,0.768C108.089,1.094 106.595,1.257 104.919,1.257C103.317,1.257 101.86,1.103 100.547,0.796C99.234,0.489 98.117,0.005 97.195,-0.656C96.273,-1.318 95.556,-2.174 95.044,-3.226C94.532,-4.278 94.276,-5.531 94.276,-6.983C94.276,-8.771 94.779,-10.182 95.784,-11.215C96.79,-12.249 98.056,-13.068 99.583,-13.673C101.11,-14.279 102.772,-14.772 104.569,-15.154C106.366,-15.536 108.029,-15.997 109.556,-16.537C111.083,-17.077 112.349,-17.775 113.355,-18.632C114.36,-19.488 114.863,-20.699 114.863,-22.263C114.863,-23.66 114.425,-24.782 113.55,-25.629C112.675,-26.476 111.241,-26.9 109.248,-26.9ZM114.863,-14.805C114.453,-14.209 113.941,-13.729 113.327,-13.366C112.712,-13.003 112.121,-12.649 111.553,-12.305C110.985,-11.96 110.491,-11.551 110.072,-11.076C109.653,-10.601 109.444,-9.963 109.444,-9.162C109.444,-8.548 109.611,-7.994 109.947,-7.5C110.282,-7.007 110.934,-6.76 111.902,-6.76C112.777,-6.76 113.49,-7.1 114.039,-7.78C114.588,-8.459 114.863,-9.414 114.863,-10.643L114.863,-14.805Z" style="fill-rule:nonzero;"/>
                        <path d="M166.652,0.922C165.46,0.922 164.399,0.861 163.467,0.74C162.536,0.619 161.689,0.447 160.925,0.223C160.162,0 159.436,-0.265 158.747,-0.573C158.058,-0.88 157.369,-1.201 156.68,-1.536L156.68,1.201C156.68,2.188 156.852,2.891 157.196,3.31C157.541,3.729 158.216,3.939 159.221,3.939L160.87,3.939L160.87,14.302L137.349,14.302L137.349,3.939L139.025,3.939C139.789,3.939 140.371,3.692 140.771,3.198C141.172,2.705 141.372,2.114 141.372,1.425L141.372,-18.185C141.372,-19.06 141.111,-19.651 140.59,-19.959C140.068,-20.266 139.482,-20.419 138.83,-20.419L137.349,-20.419L137.349,-30.783L155.478,-30.783L155.478,-25.056L155.953,-25.056C156.642,-26.993 157.862,-28.595 159.613,-29.861C161.363,-31.127 163.765,-31.76 166.819,-31.76C171.196,-31.76 174.618,-30.378 177.085,-27.612C179.552,-24.847 180.786,-20.792 180.786,-15.447C180.786,-10.103 179.525,-6.038 177.001,-3.254C174.478,-0.47 171.028,0.922 166.652,0.922ZM164.864,-15.168C164.864,-16.155 164.808,-17.095 164.696,-17.989C164.585,-18.883 164.375,-19.665 164.068,-20.336C163.761,-21.006 163.351,-21.532 162.839,-21.914C162.327,-22.296 161.652,-22.487 160.814,-22.487C159.976,-22.487 159.287,-22.305 158.747,-21.942C158.207,-21.579 157.788,-21.081 157.49,-20.447C157.192,-19.814 156.982,-19.06 156.861,-18.185C156.74,-17.31 156.68,-16.378 156.68,-15.391L156.68,-8.52C156.996,-8.036 157.583,-7.649 158.439,-7.361C159.296,-7.072 160.087,-6.928 160.814,-6.928C161.652,-6.928 162.327,-7.165 162.839,-7.64C163.351,-8.115 163.761,-8.743 164.068,-9.525C164.375,-10.307 164.585,-11.192 164.696,-12.179C164.808,-13.166 164.864,-14.162 164.864,-15.168Z" style="fill-rule:nonzero;"/>
                        <path d="M199.027,-13.66C199.101,-10.885 199.627,-8.971 200.605,-7.919C201.583,-6.867 202.984,-6.341 204.809,-6.341C205.424,-6.341 206.024,-6.429 206.611,-6.606C207.197,-6.783 207.742,-7.072 208.245,-7.472C208.748,-7.873 209.181,-8.403 209.544,-9.064C209.907,-9.726 210.144,-10.559 210.256,-11.565L220.424,-11.565C220.052,-9.162 219.367,-7.151 218.371,-5.531C217.375,-3.911 216.094,-2.602 214.53,-1.606C212.966,-0.61 211.145,0.107 209.069,0.545C206.993,0.982 204.679,1.201 202.127,1.201C199.502,1.201 197.034,0.866 194.725,0.196C192.416,-0.475 190.391,-1.494 188.65,-2.863C186.908,-4.232 185.544,-5.955 184.557,-8.031C183.57,-10.107 183.077,-12.579 183.077,-15.447C183.077,-18.185 183.542,-20.587 184.473,-22.654C185.405,-24.721 186.713,-26.448 188.398,-27.836C190.083,-29.223 192.076,-30.271 194.376,-30.978C196.676,-31.686 199.204,-32.04 201.96,-32.04C205.349,-32.04 208.264,-31.593 210.703,-30.699C213.143,-29.805 215.135,-28.557 216.681,-26.956C218.227,-25.354 219.363,-23.427 220.089,-21.174C220.815,-18.92 221.16,-16.416 221.122,-13.66L199.027,-13.66ZM203.161,-24.498C201.857,-24.498 200.894,-24.037 200.27,-23.115C199.646,-22.193 199.232,-20.671 199.027,-18.548L207.211,-18.548C207.1,-20.373 206.709,-21.821 206.038,-22.892C205.368,-23.962 204.409,-24.498 203.161,-24.498Z" style="fill-rule:nonzero;"/>
                        <path d="M250.369,-17.85C250.369,-18.576 250.28,-19.158 250.103,-19.595C249.927,-20.033 249.703,-20.368 249.433,-20.601C249.163,-20.834 248.86,-20.987 248.525,-21.062C248.19,-21.136 247.864,-21.174 247.548,-21.174C246.337,-21.174 245.434,-20.82 244.838,-20.112C244.242,-19.405 243.944,-18.399 243.944,-17.095L243.944,-13.101C243.944,-12.114 244.116,-11.411 244.461,-10.992C244.805,-10.573 245.471,-10.363 246.458,-10.363L247.967,-10.363L247.967,0L224.614,0L224.614,-10.363L226.262,-10.363C227.026,-10.363 227.608,-10.61 228.008,-11.104C228.408,-11.597 228.609,-12.188 228.609,-12.877L228.609,-18.185C228.609,-19.06 228.352,-19.651 227.84,-19.959C227.328,-20.266 226.746,-20.419 226.095,-20.419L224.614,-20.419L224.614,-30.783L241.207,-30.783L240.62,-23.101L241.095,-23.101C241.505,-25.969 242.762,-28.176 244.866,-29.721C246.97,-31.267 249.829,-32.04 253.441,-32.04C255.993,-32.04 258.069,-31.677 259.671,-30.95C261.272,-30.224 262.515,-29.307 263.4,-28.199C264.284,-27.091 264.885,-25.89 265.202,-24.596C265.518,-23.301 265.676,-22.086 265.676,-20.95L265.676,-13.101C265.676,-12.114 265.849,-11.411 266.193,-10.992C266.538,-10.573 267.203,-10.363 268.19,-10.363L269.699,-10.363L269.699,0L250.369,0L250.369,-17.85ZM241.43,-37.068C240.927,-37.068 240.438,-36.905 239.964,-36.579C239.489,-36.253 239.195,-35.764 239.084,-35.113L234.614,-35.113C234.726,-36.118 234.973,-37.105 235.354,-38.073C235.736,-39.042 236.234,-39.908 236.849,-40.671C237.463,-41.435 238.199,-42.045 239.056,-42.501C239.912,-42.957 240.89,-43.185 241.989,-43.185C242.827,-43.185 243.59,-43.083 244.279,-42.878C244.968,-42.673 245.611,-42.454 246.207,-42.222C246.803,-41.989 247.394,-41.77 247.98,-41.565C248.567,-41.36 249.186,-41.258 249.838,-41.258C250.341,-41.258 250.83,-41.416 251.305,-41.733C251.779,-42.049 252.073,-42.534 252.184,-43.185L256.654,-43.185C256.542,-42.198 256.295,-41.221 255.914,-40.252C255.532,-39.284 255.034,-38.418 254.419,-37.654C253.805,-36.891 253.069,-36.276 252.212,-35.811C251.356,-35.345 250.369,-35.113 249.251,-35.113C248.376,-35.113 247.608,-35.22 246.947,-35.434C246.286,-35.648 245.648,-35.871 245.033,-36.104C244.419,-36.337 243.828,-36.556 243.26,-36.761C242.692,-36.965 242.082,-37.068 241.43,-37.068Z" style="fill-rule:nonzero;"/>
                        <path d="M271.403,-15.447C271.403,-18.185 271.878,-20.587 272.827,-22.654C273.777,-24.721 275.132,-26.448 276.892,-27.836C278.652,-29.223 280.77,-30.271 283.247,-30.978C285.723,-31.686 288.489,-32.04 291.543,-32.04C294.597,-32.04 297.362,-31.686 299.839,-30.978C302.316,-30.271 304.43,-29.223 306.18,-27.836C307.931,-26.448 309.285,-24.721 310.244,-22.654C311.204,-20.587 311.683,-18.185 311.683,-15.447C311.683,-12.747 311.204,-10.354 310.244,-8.268C309.285,-6.183 307.931,-4.437 306.18,-3.031C304.43,-1.625 302.316,-0.568 299.839,0.14C297.362,0.847 294.597,1.201 291.543,1.201C288.489,1.201 285.723,0.847 283.247,0.14C280.77,-0.568 278.652,-1.625 276.892,-3.031C275.132,-4.437 273.777,-6.183 272.827,-8.268C271.878,-10.354 271.403,-12.747 271.403,-15.447ZM287.297,-15.447C287.297,-13.883 287.367,-12.556 287.507,-11.467C287.646,-10.377 287.874,-9.502 288.191,-8.841C288.507,-8.18 288.936,-7.696 289.476,-7.388C290.016,-7.081 290.705,-6.928 291.543,-6.928C292.381,-6.928 293.065,-7.081 293.596,-7.388C294.127,-7.696 294.555,-8.18 294.881,-8.841C295.207,-9.502 295.435,-10.377 295.565,-11.467C295.696,-12.556 295.761,-13.883 295.761,-15.447C295.761,-18.576 295.468,-20.769 294.881,-22.026C294.294,-23.283 293.182,-23.911 291.543,-23.911C290.705,-23.911 290.016,-23.767 289.476,-23.478C288.936,-23.19 288.507,-22.715 288.191,-22.054C287.874,-21.392 287.646,-20.517 287.507,-19.428C287.367,-18.338 287.297,-17.012 287.297,-15.447Z" style="fill-rule:nonzero;"/>
                    </g>
                </g>
            </g>
        </g>
    </g>
</svg>
