<?xml version="1.0" encoding="UTF-8" standalone="no"?>
<!DOCTYPE svg PUBLIC "-//W3C//DTD SVG 1.1//EN" "http://www.w3.org/Graphics/SVG/1.1/DTD/svg11.dtd">
<svg width="100%" height="100%" viewBox="0 0 113 82" version="1.1" xmlns="http://www.w3.org/2000/svg" xmlns:xlink="http://www.w3.org/1999/xlink" xml:space="preserve" xmlns:serif="http://www.serif.com/" style="fill-rule:evenodd;clip-rule:evenodd;stroke-linejoin:round;stroke-miterlimit:2;">
    <g transform="matrix(1,0,0,1,-8136.14,-18258.9)">
        <g transform="matrix(0.56496,0,0,0.744951,3835.71,5203.53)">
            <g transform="matrix(1,0,0,1,-83.325,157.182)">
                <g transform="matrix(6.22766,0,0,4.72297,7695.22,17368)">
                    <path d="M30.605,4.225C29.197,1.615 26.442,-0.01 23.446,0L0.778,0C0.466,0.001 0.183,0.19 0.062,0.478C-0.057,0.764 0.009,1.096 0.23,1.314L5.168,6.214C5.604,6.648 6.198,6.891 6.816,6.891L22.796,6.891C23.935,6.879 24.866,7.781 24.878,8.904C24.89,10.027 23.977,10.947 22.838,10.958L11.821,10.958C11.508,10.958 11.225,11.146 11.103,11.434C10.983,11.721 11.049,12.053 11.27,12.272L16.211,17.176C16.65,17.61 17.242,17.853 17.859,17.852L22.842,17.852C29.325,17.852 34.227,11.012 30.605,4.222" style="fill:white;fill-rule:nonzero;"/>
                </g>
                <g transform="matrix(1.77004,0,0,1.34237,7620.9,17456)">
                    <path d="M44.674,5.074L44.674,12.939L46.635,12.939C47.646,12.924 48.608,12.5 49.302,11.765C50.007,11.019 50.393,10.026 50.377,9C50.407,7.971 50.025,6.97 49.317,6.223C48.62,5.486 47.649,5.07 46.635,5.073L44.675,5.073L44.674,5.074ZM46.635,2.608C50.29,2.608 53.055,5.44 53.055,9C53.055,12.56 50.29,15.408 46.635,15.408L42.31,15.408C42.139,15.406 42,15.265 42,15.094C42,15.093 42,15.091 42,15.09L42,2.939C42,2.763 42.139,2.62 42.31,2.62L46.635,2.608ZM62.476,13.213C64.136,13.218 65.635,12.197 66.274,10.626C66.912,9.061 66.567,7.258 65.396,6.039C64.243,4.838 62.46,4.47 60.926,5.117C59.392,5.765 58.39,7.298 58.387,9C58.387,11.32 60.215,13.202 62.477,13.213M62.477,2.318C66.324,2.318 69.265,5.35 69.265,9C69.265,12.65 66.324,15.682 62.476,15.682C58.629,15.682 55.713,12.665 55.713,9C55.713,5.335 58.654,2.318 62.476,2.318M78.61,13.213C80.873,13.207 82.704,11.323 82.702,9.003C82.699,6.681 80.864,4.801 78.602,4.8C76.338,4.8 74.502,6.679 74.499,9C74.499,10.118 74.932,11.19 75.703,11.98C76.465,12.766 77.514,13.211 78.609,13.213M78.609,2.318C82.444,2.318 85.385,5.335 85.385,9C85.385,12.665 82.432,15.682 78.609,15.682C74.787,15.682 71.821,12.665 71.821,9C71.821,5.335 74.762,2.318 78.609,2.318M94.355,5.074L91.59,5.074L91.59,8.459L94.355,8.459C94.796,8.479 95.227,8.314 95.543,8.006C95.863,7.696 96.045,7.266 96.049,6.814C96.065,6.351 95.892,5.901 95.569,5.568C95.252,5.241 94.811,5.062 94.355,5.077L94.355,5.074ZM88.915,2.939C88.915,2.763 89.055,2.62 89.226,2.62L94.432,2.62C96.914,2.62 98.71,4.485 98.71,6.827C98.729,8.411 97.864,9.866 96.483,10.575L98.884,14.928C98.952,15.03 98.956,15.162 98.896,15.268C98.837,15.373 98.722,15.434 98.602,15.424L96.495,15.424C96.376,15.426 96.266,15.359 96.213,15.252L93.899,10.944L91.58,10.944L91.58,15.08C91.58,15.082 91.58,15.083 91.58,15.085C91.58,15.256 91.441,15.397 91.27,15.399L89.24,15.399C89.069,15.397 88.93,15.256 88.93,15.085C88.93,15.083 88.93,15.082 88.93,15.08L88.916,2.94L88.915,2.939ZM105.682,5.134L105.682,13L107.642,13C108.652,12.986 109.615,12.564 110.31,11.83C111.015,11.085 111.402,10.093 111.387,9.067C111.419,8.036 111.039,7.034 110.33,6.285C109.632,5.547 108.659,5.131 107.643,5.135L105.682,5.134ZM107.642,2.665C111.297,2.665 114.062,5.5 114.062,9.067C114.062,12.634 111.297,15.469 107.642,15.469L103.33,15.469C103.159,15.467 103.02,15.326 103.02,15.155C103.02,15.153 103.02,15.152 103.02,15.15L103.02,3C103.02,2.823 103.159,2.68 103.33,2.68L107.643,2.665L107.642,2.665ZM122.218,5.793L120.701,9.999L123.732,9.999L122.218,5.793ZM119.811,12.376L118.818,15.176C118.777,15.311 118.649,15.402 118.508,15.396L116.354,15.396C116.242,15.406 116.134,15.355 116.071,15.262C116.007,15.168 115.997,15.047 116.044,14.944L120.698,2.805C120.742,2.674 120.87,2.588 121.008,2.595L123.418,2.595C123.557,2.587 123.684,2.673 123.729,2.805L128.383,14.944C128.43,15.047 128.419,15.168 128.355,15.262C128.292,15.355 128.183,15.406 128.072,15.395L125.919,15.395C125.778,15.401 125.65,15.31 125.609,15.175L124.616,12.375L119.811,12.375L119.811,12.376ZM130.88,6.066C130.88,4.056 132.574,2.318 135.249,2.318C136.689,2.286 138.085,2.825 139.129,3.817C139.193,3.878 139.23,3.962 139.23,4.051C139.23,4.14 139.193,4.224 139.129,4.285L137.936,5.5C137.878,5.56 137.799,5.593 137.716,5.593C137.633,5.593 137.554,5.56 137.496,5.5C136.934,4.973 136.196,4.675 135.426,4.663C134.356,4.663 133.565,5.3 133.565,6.035C133.565,8.411 139.888,7.04 139.888,11.612C139.885,13.929 138.178,15.682 135.16,15.682C133.467,15.699 131.838,15.028 130.649,13.824C130.585,13.763 130.548,13.679 130.548,13.59C130.548,13.501 130.585,13.417 130.649,13.356L131.803,12.172C131.861,12.109 131.943,12.074 132.028,12.074C132.113,12.074 132.195,12.109 132.253,12.172C132.979,12.892 133.958,13.301 134.98,13.312C136.317,13.312 137.198,12.58 137.198,11.663C137.198,9.286 130.878,10.658 130.878,6.085M151.354,2.923L151.354,7.727L146.002,7.727L146.002,2.923C146.002,2.922 146.002,2.92 146.002,2.919C146.002,2.748 145.863,2.607 145.692,2.605L143.662,2.605C143.491,2.607 143.352,2.748 143.352,2.919C143.352,2.92 143.352,2.922 143.352,2.923L143.352,15.06C143.352,15.236 143.492,15.379 143.662,15.379L145.692,15.379C145.862,15.379 146.002,15.236 146.002,15.06L146.002,10.18L151.35,10.18L151.35,15.06C151.35,15.236 151.49,15.379 151.66,15.379L153.69,15.379C153.861,15.379 154,15.236 154,15.06L154,2.923C154,2.922 154,2.92 154,2.919C154,2.748 153.861,2.607 153.69,2.605L151.66,2.605C151.489,2.609 151.352,2.752 151.354,2.923Z" style="fill:white;fill-rule:nonzero;"/>
                </g>
            </g>
        </g>
    </g>
</svg>
