<?xml version="1.0" encoding="UTF-8" standalone="no"?>
<!DOCTYPE svg PUBLIC "-//W3C//DTD SVG 1.1//EN" "http://www.w3.org/Graphics/SVG/1.1/DTD/svg11.dtd">
<svg width="100%" height="100%" viewBox="0 0 158 193" version="1.1" xmlns="http://www.w3.org/2000/svg" xmlns:xlink="http://www.w3.org/1999/xlink" xml:space="preserve" xmlns:serif="http://www.serif.com/" style="fill-rule:evenodd;clip-rule:evenodd;stroke-linejoin:round;stroke-miterlimit:2;">
    <g transform="matrix(1,0,0,1,-8445.2,-17632.4)">
        <g transform="matrix(0.56496,0,0,0.744951,4175.49,4592.1)">
            <g transform="matrix(3.07104,0,0,2.32903,7557.55,17504.9)">
                <path d="M42.39,0.88C44.147,-0.287 46.443,-0.287 48.2,0.88C52.654,3.691 56.929,6.777 61,10.12C65.071,13.463 62.11,10.89 62.14,9.58C62.14,9.58 61.96,5.72 62.43,4.58C62.734,3.637 63.619,2.996 64.61,3C65.601,3.004 69.61,3.25 72.85,3.68C74.274,3.905 75.37,5.083 75.49,6.52C75.61,7.957 77.55,20.29 78,25.23C78,25.23 78.4,27.75 82,32.02C82,32.02 89.36,42.35 90.27,44.39C90.27,44.39 92,47.99 88.27,48.46C88.27,48.46 81.5,49.14 80.86,49.3C79.943,49.389 79.259,50.212 79.34,51.13C79.421,52.048 79,75 77.25,86.48C77.25,86.48 76.8,91.03 74.25,90.92C74.25,90.92 67.25,90.69 65.69,90.74C65.69,90.74 64.98,90.74 65.09,89.81C65.09,89.81 68.63,52.57 66.22,33.73C66.22,33.73 66.13,31.3 64.22,30.8C64.22,30.8 62.54,30.12 60.92,32.35C53.914,42.165 50.075,53.892 49.92,65.95C49.765,78.008 49.72,71.95 50.63,73.43C50.63,73.43 51.19,74.43 54.07,74.71L57.72,75.2C57.72,75.2 58.4,75.2 58.34,76.09C58.34,76.09 57.5,87.01 57.26,88.95C57.254,89.392 57.165,89.83 57,90.24C56.835,90.65 56.87,90.61 55.72,90.57C55.72,90.57 39.66,90.45 37.85,90.57C37.85,90.57 37.09,90.65 36.93,90.18C36.77,89.71 35.81,76.07 35.85,74.18C35.808,73.763 36.033,73.362 36.41,73.18C38.898,71.621 40.542,69.008 40.87,66.09C41.083,64.014 41.127,61.923 41,59.84C40.873,57.757 41.59,38.84 41.74,35.53C41.74,35.53 41.87,34.4 40.38,34.18C39.651,34.005 38.906,34.454 38.72,35.18L38.72,35.31C38.72,35.31 37.72,49.13 37.88,54.63C37.88,54.63 38.23,58.21 35.76,58.28C35.76,58.28 33.35,58.64 33.24,55.67C33.24,55.67 33.42,42.23 34,35.59C34.023,34.834 33.434,34.188 32.68,34.14C31.89,34.008 31.132,34.55 31,35.34L31,35.46C31,35.46 30,48.31 30.16,55.1C30.16,55.1 30.46,58.39 27.83,58.27C27.83,58.27 25.64,58.53 25.51,55.61C25.51,55.61 26.11,37.21 26.27,35.78C26.279,35.713 26.284,35.645 26.284,35.577C26.284,34.839 25.732,34.208 25,34.11L24.8,34.11C24.733,34.1 24.666,34.095 24.599,34.095C23.902,34.095 23.308,34.619 23.22,35.31L23.22,35.47C23.22,35.47 22.22,57.47 22.38,63.93C22.38,63.93 22.29,70.58 27.19,73.27C27.19,73.27 27.91,73.69 27.93,74.27C27.93,74.27 28.48,85.95 28.93,89.71C28.93,89.71 29.11,90.61 28.31,90.61L16,91C14.669,90.992 13.559,89.939 13.48,88.61C11.931,76.249 11.219,63.797 11.35,51.34C11.444,50.39 10.788,49.516 9.85,49.34C8.912,49.164 3.53,48.75 2,48.34C0.83,48.055 -0,46.999 -0,45.794C-0,45.577 0.027,45.361 0.08,45.15C0.14,44.914 0.235,44.689 0.36,44.48C10.646,26.769 25.068,11.808 42.39,0.88Z" style="fill:white;fill-rule:nonzero;"/>
            </g>
        </g>
        <g transform="matrix(0.56496,0,0,0.744951,4175.49,4592.1)">
            <g transform="matrix(1.11667,0,0,0.846863,7476.04,17695.4)">
                <path d="M176.44,32C176.208,31.679 175.836,31.489 175.44,31.49L164.56,31.49L151.21,76.65L146.21,54.71L161.7,33.56C161.808,33.424 161.886,33.268 161.93,33.1L162.2,32.17C162.216,32.119 162.224,32.066 162.224,32.012C162.224,31.773 162.062,31.561 161.83,31.5C161.781,31.489 161.729,31.489 161.68,31.5L150.68,31.5L138.76,48.84L143.82,33.12C144.019,32.454 143.636,31.741 142.97,31.54C142.85,31.503 142.725,31.486 142.6,31.49L131.67,31.49L122.21,63.6C122.42,58.09 118.14,53.74 115.65,50.99C113.65,48.75 112.42,47.16 112.65,45.39C112.966,42.965 114.997,41.1 117.44,40.99C120.16,40.77 121.33,41.61 123.06,42.42C123.262,42.51 123.479,42.561 123.7,42.57C123.878,42.568 124.054,42.534 124.22,42.47C124.589,42.33 124.874,42.027 124.99,41.65L127.53,33.06L125.77,32.24L125.51,32.12L125.43,32.12C123.339,31.226 121.083,30.783 118.81,30.82C109.24,30.82 100.53,37.67 99.09,46.1C98.09,52 101.86,56.16 104.62,59.2L104.86,59.47C106.86,61.61 108.24,63.27 107.86,65.19C107.4,67.89 104.78,69.43 102.25,69.64C99.47,69.87 97.73,69.09 95.56,68.13C95.181,67.905 94.734,67.823 94.3,67.9C93.879,68.026 93.546,68.352 93.41,68.77L91,77.07L90.69,78.13C93.921,79.643 97.433,80.464 101,80.54C109.16,80.54 116.21,77.41 120.4,69.85L117.93,78.27C117.895,78.387 117.878,78.507 117.878,78.629C117.878,79.189 118.251,79.685 118.79,79.84C118.906,79.879 119.028,79.9 119.15,79.9L130.08,79.9L132.81,70.63L136.13,65.84L138.69,78.84C138.821,79.423 139.343,79.84 139.94,79.84L162.94,79.84L176.69,33.1C176.807,32.717 176.732,32.299 176.49,31.98L176.44,32Z" style="fill:white;fill-rule:nonzero;"/>
            </g>
        </g>
        <g transform="matrix(0.56496,0,0,0.744951,4175.49,4592.1)">
            <g transform="matrix(1.11667,0,0,0.846863,7476.04,17695.4)">
                <path d="M190.75,41.94L194.83,41.94C195.39,41.918 195.935,42.132 196.33,42.53C196.997,43.291 197.293,44.31 197.14,45.31C196.897,47.879 196.221,50.387 195.14,52.73C193.79,55.73 192.54,57.98 188.98,58.39L185.89,58.39L190.75,41.94ZM182.86,68.76L187.62,68.76C199.08,68.91 204.88,60.86 207.47,52.12C208.336,49.582 208.851,46.938 209,44.26C209.171,40.923 208.037,37.647 205.84,35.13C203.7,32.783 200.656,31.458 197.48,31.49L179.41,31.49L178.64,34.05C178.573,34.287 178.609,34.541 178.74,34.75L179.25,35.56C179.759,36.349 179.891,37.324 179.61,38.22L167.87,78.22C167.75,78.602 167.821,79.019 168.06,79.34C168.296,79.657 168.665,79.849 169.06,79.86L179.58,79.86L182.86,68.76Z" style="fill:white;fill-rule:nonzero;"/>
            </g>
        </g>
        <g transform="matrix(0.56496,0,0,0.744951,4175.49,4592.1)">
            <g transform="matrix(1.11667,0,0,0.846863,7476.04,17695.4)">
                <path d="M218.26,56.42L219.79,56.42C221.27,56.42 222.54,57.73 222.34,60.97C222.14,64.21 219.57,75.18 214.44,75.18L212.74,75.18L218.26,56.42ZM206.55,79.83L213.22,79.83C223.88,79.83 227.59,66.46 227.93,60.83C228.3,54.67 224.87,51.68 221.13,51.68L214,51.68L206,79C205.911,79.315 206.095,79.649 206.41,79.74C206.466,79.75 206.524,79.75 206.58,79.74L206.55,79.83Z" style="fill:white;fill-rule:nonzero;"/>
            </g>
        </g>
        <g transform="matrix(0.56496,0,0,0.744951,4175.49,4592.1)">
            <g transform="matrix(1.11667,0,0,0.846863,7476.04,17695.4)">
                <path d="M222.84,47.94L225.43,47.94L227.43,41.13L230.55,41.13L228.7,47.47C228.649,47.659 228.761,47.857 228.95,47.91L231.64,47.91L236.12,32.61C236.13,32.576 236.136,32.54 236.136,32.505C236.136,32.346 236.031,32.206 235.88,32.16L233.21,32.16L231.36,38.52L228.21,38.52L229.93,32.63C229.94,32.596 229.946,32.56 229.946,32.525C229.946,32.366 229.841,32.226 229.69,32.18L227,32.18L222.52,47.48C222.512,47.51 222.509,47.54 222.509,47.571C222.509,47.74 222.625,47.889 222.79,47.93L222.85,47.93L222.84,47.94Z" style="fill:white;fill-rule:nonzero;"/>
            </g>
        </g>
        <g transform="matrix(0.56496,0,0,0.744951,4175.49,4592.1)">
            <g transform="matrix(1.11667,0,0,0.846863,7476.04,17695.4)">
                <path d="M234.61,47.87L241.21,47.87L241.85,45.71C241.918,45.537 241.832,45.339 241.66,45.27C241.608,45.255 241.552,45.255 241.5,45.27L237.92,45.27L239.21,41.18L242.46,41.18L243.1,39C243.11,38.966 243.116,38.93 243.116,38.895C243.116,38.736 243.011,38.596 242.86,38.55L240,38.55L241.13,34.75L245.13,34.75L245.75,32.59C245.76,32.556 245.766,32.52 245.766,32.485C245.766,32.326 245.661,32.186 245.51,32.14L238.76,32.14L238.68,32.4L234.28,47.4C234.242,47.597 234.366,47.791 234.56,47.84L234.64,47.84L234.61,47.87Z" style="fill:white;fill-rule:nonzero;"/>
            </g>
        </g>
        <g transform="matrix(0.56496,0,0,0.744951,4175.49,4592.1)">
            <g transform="matrix(1.11667,0,0,0.846863,7476.04,17695.4)">
                <path d="M215.62,47.87L218.21,47.87L222.07,34.73L224.53,34.73L225.14,32.57C225.148,32.54 225.151,32.51 225.151,32.479C225.151,32.31 225.035,32.161 224.87,32.12L217.26,32.12L216.65,34.28C216.642,34.31 216.639,34.34 216.639,34.371C216.639,34.54 216.755,34.689 216.92,34.73L219,34.73L215.29,47.41C215.239,47.599 215.351,47.797 215.54,47.85L215.64,47.85L215.62,47.87Z" style="fill:white;fill-rule:nonzero;"/>
            </g>
        </g>
        <g transform="matrix(0.56496,0,0,0.744951,4175.49,4592.1)">
            <g transform="matrix(1.11667,0,0,0.846863,7476.04,17695.4)">
                <path d="M234.62,51.74L226.62,79.09C226.531,79.405 226.715,79.739 227.03,79.83C227.086,79.84 227.144,79.84 227.2,79.83L231.87,79.83L239.87,52.48C239.884,52.428 239.892,52.373 239.892,52.319C239.892,52.044 239.706,51.801 239.44,51.73C239.391,51.719 239.339,51.719 239.29,51.73L234.62,51.74Z" style="fill:white;fill-rule:nonzero;"/>
            </g>
        </g>
        <g transform="matrix(0.56496,0,0,0.744951,4175.49,4592.1)">
            <g transform="matrix(1.11667,0,0,0.846863,7476.04,17695.4)">
                <path d="M276.93,51.74L272.21,51.74L268.89,63.08L263.32,63.08L266.41,52.51C266.424,52.458 266.432,52.403 266.432,52.349C266.432,52.074 266.246,51.831 265.98,51.76C265.931,51.749 265.879,51.749 265.83,51.76L261.21,51.76L253.21,79.11C253.121,79.425 253.305,79.759 253.62,79.85C253.676,79.86 253.734,79.86 253.79,79.85L258.47,79.85L262,67.72L267.57,67.72L264.19,79.09C264.113,79.413 264.303,79.744 264.62,79.84L269.45,79.84L277.45,52.49C277.464,52.439 277.47,52.387 277.47,52.334C277.47,52.052 277.275,51.805 277,51.74C276.95,51.73 276.9,51.73 276.85,51.74L276.93,51.74Z" style="fill:white;fill-rule:nonzero;"/>
            </g>
        </g>
        <g transform="matrix(0.56496,0,0,0.744951,4175.49,4592.1)">
            <g transform="matrix(1.11667,0,0,0.846863,7476.04,17695.4)">
                <path d="M288.91,63.2L284,63.2L286,56.41L293.2,56.41L294.33,52.5C294.344,52.448 294.352,52.393 294.352,52.339C294.352,52.064 294.166,51.821 293.9,51.75C293.851,51.739 293.799,51.739 293.75,51.75L281.85,51.75L273.85,79.1C273.761,79.415 273.945,79.749 274.26,79.84C274.316,79.85 274.374,79.85 274.43,79.84L286.33,79.84L287.46,75.93C287.474,75.878 287.482,75.823 287.482,75.769C287.482,75.494 287.296,75.251 287.03,75.18C286.981,75.169 286.929,75.169 286.88,75.18L280.46,75.18L282.64,67.89L288.31,67.89L289.49,63.95C289.504,63.899 289.51,63.847 289.51,63.794C289.51,63.512 289.315,63.265 289.04,63.2C288.994,63.19 288.946,63.19 288.9,63.2L288.91,63.2Z" style="fill:white;fill-rule:nonzero;"/>
            </g>
        </g>
        <g transform="matrix(0.56496,0,0,0.744951,4175.49,4592.1)">
            <g transform="matrix(1.11667,0,0,0.846863,7476.04,17695.4)">
                <path d="M247.21,59.37C247.498,57.535 249.027,56.131 250.88,56C251.935,55.94 252.99,56.129 253.96,56.55C254.407,56.754 254.943,56.556 255.15,56.11C255.154,56.09 255.154,56.07 255.15,56.05C255.15,55.97 256.27,52.25 256.27,52.25C254.816,51.61 253.248,51.269 251.66,51.25C246.66,51.25 241.66,54.95 240.9,60.01C240.36,63.38 242.51,65.79 244.05,67.61C245.26,69 246.24,70.22 245.99,71.78C245.692,73.767 243.998,75.27 241.99,75.33C240.72,75.462 239.439,75.237 238.29,74.68C238.162,74.601 238.015,74.559 237.865,74.559C237.573,74.559 237.304,74.717 237.16,74.97C237.112,75.04 237.079,75.118 237.06,75.2L235.85,79.35C237.57,80.01 239.397,80.349 241.24,80.35C246.612,80.362 251.268,76.493 252.24,71.21C252.78,67.8 250.66,65.21 249.12,63.45C248,62 247,60.81 247.22,59.34L247.21,59.37Z" style="fill:white;fill-rule:nonzero;"/>
            </g>
        </g>
        <g transform="matrix(0.56496,0,0,0.744951,4175.49,4592.1)">
            <g transform="matrix(1.11667,0,0,0.846863,7476.04,17695.4)">
                <path d="M305.75,51.27C300.75,51.27 295.75,54.97 294.99,60.03C294.45,63.4 296.6,65.81 298.14,67.63C299.35,69.02 300.33,70.24 300.08,71.8C299.782,73.787 298.088,75.29 296.08,75.35C294.81,75.482 293.529,75.257 292.38,74.7C292.252,74.621 292.105,74.579 291.955,74.579C291.663,74.579 291.394,74.737 291.25,74.99C291.202,75.06 291.169,75.138 291.15,75.22L289.94,79.37C291.66,80.03 293.487,80.369 295.33,80.37C300.702,80.382 305.358,76.513 306.33,71.23C306.87,67.82 304.75,65.23 303.21,63.47C302.04,62.08 301.06,60.86 301.3,59.38C301.586,57.531 303.133,56.118 305,56C306.055,55.94 307.11,56.129 308.08,56.55C308.527,56.754 309.063,56.556 309.27,56.11C309.274,56.09 309.274,56.07 309.27,56.05C309.27,55.97 310.39,52.25 310.39,52.25C308.933,51.61 307.362,51.269 305.77,51.25L305.75,51.27Z" style="fill:white;fill-rule:nonzero;"/>
            </g>
        </g>
    </g>
</svg>
