<?xml version="1.0" encoding="UTF-8" standalone="no"?>
<!DOCTYPE svg PUBLIC "-//W3C//DTD SVG 1.1//EN" "http://www.w3.org/Graphics/SVG/1.1/DTD/svg11.dtd">
<svg width="100%" height="100%" viewBox="0 0 105 74" version="1.1" xmlns="http://www.w3.org/2000/svg" xmlns:xlink="http://www.w3.org/1999/xlink" xml:space="preserve" xmlns:serif="http://www.serif.com/" style="fill-rule:evenodd;clip-rule:evenodd;stroke-linejoin:round;stroke-miterlimit:2;">
    <g transform="matrix(1,0,0,1,-7856.02,-17671.5)">
        <g transform="matrix(0.56496,0,0,0.744951,3559.99,4592.1)">
            <g transform="matrix(2.67088,0,0,2.02555,7399.31,17608.6)">
                <path d="M109.264,14.803C109.264,11.889 106.933,9.599 103.99,9.599C101.09,9.599 98.717,11.889 98.717,14.803C98.717,17.718 101.09,20.008 103.99,20.008C106.933,20.008 109.264,17.718 109.264,14.803M113.566,6.282L113.566,23.339L109.181,23.339L109.181,21.798C107.654,23.061 105.725,23.769 103.629,23.769C98.439,23.769 94.387,19.786 94.387,14.803C94.387,9.835 98.453,5.838 103.629,5.838C105.725,5.838 107.654,6.546 109.181,7.809L109.181,6.282L113.566,6.282ZM128.139,19.467L124.836,19.467C123.836,19.467 123.184,19.036 123.184,18.12L123.184,10.14L128.125,10.14L128.125,6.282L123.184,6.282L123.184,1.425L118.757,1.425L118.757,6.282L115.426,6.282L115.426,10.154L118.757,10.154L118.757,19.217C118.757,21.507 120.408,23.325 123.378,23.325L128.125,23.325L128.125,19.467L128.139,19.467ZM138.131,23.769C143.197,23.769 146.056,21.396 146.056,18.12C146.056,15.789 144.362,14.054 140.823,13.305L137.076,12.555C134.911,12.167 134.217,11.764 134.217,10.973C134.217,9.946 135.258,9.321 137.187,9.321C139.283,9.321 140.81,9.877 141.254,11.764L145.639,11.764C145.403,8.211 142.78,5.838 137.479,5.838C132.899,5.838 129.679,7.698 129.679,11.292C129.679,13.776 131.456,15.4 135.272,16.191L139.449,17.135C141.101,17.454 141.545,17.884 141.545,18.551C141.545,19.619 140.296,20.285 138.284,20.285C135.758,20.285 134.301,19.73 133.745,17.843L129.318,17.843C129.971,21.396 132.663,23.769 138.131,23.769M76.692,0.231L93.221,0.231L93.221,4.173L81.16,4.173L81.16,9.821L92.902,9.821L92.902,13.652L81.16,13.652L81.16,19.369L93.221,19.369L93.221,23.311L76.692,23.311L76.692,0.231Z" style="fill-rule:nonzero;"/>
            </g>
        </g>
        <g transform="matrix(0.56496,0,0,0.744951,3559.99,4592.1)">
            <g transform="matrix(2.67088,0,0,2.02555,7604.33,17556.9)">
                <path d="M68.837,9.46L68.837,6.365L67.657,6.365C65.783,6.365 64.395,7.226 63.563,8.572L63.563,6.49L60.204,6.49L60.204,23.297L63.59,23.297L63.59,13.749C63.59,11.14 65.2,9.46 67.421,9.46L68.837,9.46ZM44.466,13.346C45.077,10.779 47.186,9.058 49.698,9.058C52.21,9.058 54.334,10.765 54.903,13.346L44.466,13.346ZM49.768,6.171C44.771,6.171 40.969,10.154 40.969,14.901C40.969,19.911 44.924,23.672 50.073,23.672C53.196,23.672 55.749,22.325 57.456,20.077L55,18.301C53.723,19.98 52.044,20.771 50.059,20.771C47.172,20.771 44.855,18.731 44.383,15.997L58.317,15.997L58.317,14.914C58.331,9.89 54.708,6.171 49.768,6.171M30.394,20.771C27.104,20.771 24.481,18.162 24.481,14.942C24.481,11.681 27.132,9.113 30.394,9.113C33.613,9.113 36.264,11.681 36.264,14.942C36.278,18.162 33.627,20.771 30.394,20.771M21.164,23.311L24.523,23.311L24.523,21.201C26.063,22.756 28.256,23.699 30.629,23.699C35.667,23.699 39.623,19.772 39.623,14.928C39.623,10.057 35.667,6.129 30.629,6.129C28.242,6.129 26.091,7.087 24.551,8.628L24.551,0.231L21.164,0.231L21.164,23.311ZM9.243,20.605C12.504,20.605 15.016,18.134 15.016,14.47L15.016,0.231L18.541,0.231L18.541,23.297L15.044,23.297L15.044,21.16C13.462,22.77 11.283,23.699 8.827,23.699C3.789,23.699 -0.069,20.105 -0.069,14.665L-0.069,0.231L3.47,0.231L3.47,14.47C3.47,18.204 5.954,20.605 9.243,20.605" style="fill:rgb(20,35,40);fill-rule:nonzero;"/>
            </g>
        </g>
    </g>
</svg>
